<svg width="50" height="51" viewBox="0 0 50 51" fill="none" xmlns="http://www.w3.org/2000/svg">
<path d="M3.90625 36.835H6.25V39.1787C6.2507 39.8001 6.49786 40.3958 6.93724 40.8352C7.37663 41.2746 7.97236 41.5218 8.59375 41.5225H10.9375V43.8662C10.9382 44.4876 11.1854 45.0833 11.6247 45.5227C12.0641 45.9621 12.6599 46.2093 13.2812 46.21H27.3438C27.9651 46.2093 28.5609 45.9621 29.0003 45.5227C29.4396 45.0833 29.6868 44.4876 29.6875 43.8662V39.96H47.6562C47.8634 39.96 48.0622 39.8776 48.2087 39.7311C48.3552 39.5846 48.4375 39.3859 48.4375 39.1787V25.1162C48.4375 24.909 48.3552 24.7103 48.2087 24.5638C48.0622 24.4173 47.8634 24.335 47.6562 24.335H40.0461L33.1919 20.527C33.0758 20.4626 32.9453 20.4287 32.8125 20.4287H29.6875V15.7412C29.6868 15.1198 29.4396 14.5241 29.0003 14.0847C28.5609 13.6453 27.9651 13.3982 27.3438 13.3975H25V11.0537C24.9993 10.4323 24.7521 9.83659 24.3128 9.39721C23.8734 8.95782 23.2776 8.71066 22.6562 8.70996H20.3125V6.36621C20.3118 5.74483 20.0646 5.14909 19.6253 4.70971C19.1859 4.27032 18.5901 4.02316 17.9688 4.02246H3.90625C3.28486 4.02316 2.68913 4.27032 2.24974 4.70971C1.81036 5.14909 1.5632 5.74483 1.5625 6.36621V34.4912C1.5632 35.1126 1.81036 35.7083 2.24974 36.1477C2.68913 36.5871 3.28486 36.8343 3.90625 36.835ZM3.125 34.4912V32.1475H3.90625C4.52764 32.1482 5.12337 32.3953 5.56276 32.8347C6.00214 33.2741 6.2493 33.8698 6.25 34.4912V35.2725H3.90625C3.69912 35.2722 3.50055 35.1898 3.35408 35.0434C3.20762 34.8969 3.12524 34.6983 3.125 34.4912ZM7.8125 6.36621V5.58496H14.0625V6.36621C14.0616 7.21189 14.3367 8.03477 14.8459 8.70996H8.59375C7.97236 8.71066 7.37663 8.95782 6.93724 9.39721C6.49786 9.83659 6.2507 10.4323 6.25 11.0537V31.3684C5.57481 30.8591 4.75193 30.5841 3.90625 30.585H3.125V10.2725H3.90625C4.94189 10.2713 5.93478 9.85936 6.66709 9.12705C7.3994 8.39474 7.81132 7.40185 7.8125 6.36621ZM19.5334 13.3975H13.2812C12.6599 13.3982 12.0641 13.6453 11.6247 14.0847C11.1854 14.5241 10.9382 15.1198 10.9375 15.7412V36.0559C10.2623 35.5466 9.43943 35.2716 8.59375 35.2725H7.8125V14.96H8.59375C9.62939 14.9588 10.6223 14.5469 11.3546 13.8145C12.0869 13.0822 12.4988 12.0894 12.5 11.0537V10.2725H18.75V11.0537C18.7491 11.8994 19.0242 12.7223 19.5334 13.3975ZM27.3438 19.6475H28.125V26.6787H24.7998C24.3705 26.0652 23.8202 25.5459 23.1829 25.1527C22.5456 24.7595 21.8347 24.5007 21.0938 24.3922V20.4287H19.5312V24.3917C18.2297 24.5794 17.0395 25.2298 16.1785 26.2238C15.3176 27.2178 14.8438 28.4887 14.8438 29.8037C14.8438 31.1187 15.3176 32.3896 16.1785 33.3836C17.0395 34.3776 18.2297 35.0281 19.5312 35.2158V39.1787H21.0938V35.2146C21.835 35.1081 22.5464 34.8502 23.1836 34.457C23.8209 34.0637 24.3704 33.5435 24.798 32.9287H28.125V39.96H27.3438C26.3081 39.9611 25.3152 40.3731 24.5829 41.1054C23.8506 41.8377 23.4387 42.8306 23.4375 43.8662V44.6475H17.1875V43.8662C17.1863 42.8306 16.7744 41.8377 16.0421 41.1054C15.3098 40.3731 14.3169 39.9611 13.2812 39.96H12.5V19.6475H13.2812C14.3169 19.6463 15.3098 19.2344 16.0421 18.502C16.7744 17.7697 17.1863 16.7769 17.1875 15.7412V14.96H23.4375V15.7412C23.4387 16.7769 23.8506 17.7697 24.5829 18.502C25.3152 19.2344 26.3081 19.6463 27.3438 19.6475ZM22.9687 32.667C22.4117 33.1851 21.7155 33.5293 20.9657 33.6575C20.2158 33.7857 19.4449 33.6922 18.7474 33.3886C18.0498 33.085 17.4561 32.5843 17.039 31.9481C16.6219 31.312 16.3996 30.5679 16.3992 29.8071C16.3989 29.0464 16.6206 28.3021 17.0372 27.6656C17.4537 27.029 18.047 26.5279 18.7443 26.2236C19.4415 25.9194 20.2124 25.8252 20.9623 25.9528C21.7123 26.0803 22.4088 26.424 22.9662 26.9416C22.4094 27.185 21.9357 27.5855 21.6031 28.0942C21.2705 28.6028 21.0935 29.1974 21.0938 29.8051C21.094 30.4128 21.2715 31.0072 21.6046 31.5156C21.9376 32.0239 22.4117 32.4241 22.9687 32.667ZM12.5 18.085V15.7412C12.5002 15.5341 12.5826 15.3355 12.7291 15.189C12.8755 15.0426 13.0741 14.9602 13.2812 14.96H15.625V15.7412C15.6243 16.3626 15.3771 16.9583 14.9378 17.3977C14.4984 17.8371 13.9026 18.0843 13.2812 18.085H12.5ZM7.8125 13.3975V11.0537C7.81274 10.8466 7.89512 10.648 8.04158 10.5015C8.18805 10.3551 8.38662 10.2727 8.59375 10.2725H10.9375V11.0537C10.9368 11.6751 10.6896 12.2708 10.2503 12.7102C9.81087 13.1496 9.21514 13.3968 8.59375 13.3975H7.8125ZM7.8125 39.1787V36.835H8.59375C9.21514 36.8357 9.81087 37.0828 10.2503 37.5222C10.6896 37.9616 10.9368 38.5573 10.9375 39.1787V39.96H8.59375C8.38662 39.9597 8.18805 39.8773 8.04158 39.7309C7.89512 39.5844 7.81274 39.3858 7.8125 39.1787ZM12.5 43.8662V41.5225H13.2812C13.9026 41.5232 14.4984 41.7703 14.9378 42.2097C15.3771 42.6491 15.6243 43.2448 15.625 43.8662V44.6475H13.2812C13.0741 44.6472 12.8755 44.5648 12.7291 44.4184C12.5826 44.2719 12.5002 44.0733 12.5 43.8662ZM27.3438 44.6475H25V43.8662C25.0007 43.2448 25.2479 42.6491 25.6872 42.2097C26.1266 41.7703 26.7224 41.5232 27.3438 41.5225H28.125V43.8662C28.1248 44.0733 28.0424 44.2719 27.8959 44.4184C27.7495 44.5648 27.5509 44.6472 27.3438 44.6475ZM40.625 25.8975H46.875V38.3975H40.625V25.8975ZM32.61 21.9912L39.0625 25.5759V38.3975H29.6875V34.4089C30.1974 34.9279 30.8052 35.3405 31.4758 35.6228C32.1463 35.9052 32.8662 36.0516 33.5938 36.0537H35.9375V34.4912H33.5938C32.9876 34.4898 32.39 34.3479 31.8478 34.0769C31.3056 33.8058 30.8336 33.4128 30.4688 32.9287L29.5313 31.6787C29.4585 31.5817 29.3641 31.5029 29.2557 31.4487C29.1472 31.3944 29.0275 31.3662 28.9062 31.3662H24.2188C23.8043 31.3662 23.4069 31.2016 23.1139 30.9086C22.8209 30.6155 22.6562 30.2181 22.6562 29.8037C22.6562 29.3893 22.8209 28.9919 23.1139 28.6989C23.4069 28.4058 23.8043 28.2412 24.2188 28.2412H34.375V26.6787H29.6875V21.9912H32.61ZM28.125 15.7412V18.085H27.3438C26.7224 18.0843 26.1266 17.8371 25.6872 17.3977C25.2479 16.9583 25.0007 16.3626 25 15.7412V14.96H27.3438C27.5509 14.9602 27.7495 15.0426 27.8959 15.189C28.0424 15.3355 28.1248 15.5341 28.125 15.7412ZM23.4375 11.0537V13.3975H22.6562C22.0349 13.3968 21.4391 13.1496 20.9997 12.7102C20.5604 12.2708 20.3132 11.6751 20.3125 11.0537V10.2725H22.6562C22.8634 10.2727 23.062 10.3551 23.2084 10.5015C23.3549 10.648 23.4373 10.8466 23.4375 11.0537ZM18.75 6.36621V8.70996H17.9688C17.3474 8.70926 16.7516 8.4621 16.3122 8.02272C15.8729 7.58333 15.6257 6.9876 15.625 6.36621V5.58496H17.9688C18.1759 5.5852 18.3745 5.66758 18.5209 5.81405C18.6674 5.96051 18.7498 6.15908 18.75 6.36621ZM3.90625 5.58496H6.25V6.36621C6.2493 6.9876 6.00214 7.58333 5.56276 8.02272C5.12337 8.4621 4.52764 8.70926 3.90625 8.70996H3.125V6.36621C3.12524 6.15908 3.20762 5.96051 3.35408 5.81405C3.50055 5.66758 3.69912 5.5852 3.90625 5.58496Z" fill="#322F2B"/>
</svg>
