<svg width="46" height="47" viewBox="0 0 46 47" fill="none" xmlns="http://www.w3.org/2000/svg">
<path d="M43.7 2.41626H2.3C1.03021 2.41776 0.0014974 3.44647 0 4.71626V41.5163C0.0014974 42.7861 1.03021 43.8148 2.3 43.8163H43.7C44.9698 43.8148 45.9985 42.7861 46 41.5163V4.71626C45.9985 3.44647 44.9698 2.41776 43.7 2.41626ZM2.3 3.94959H43.7C44.1234 3.94997 44.4663 4.29287 44.4667 4.71626V9.31626H1.53333V4.71626C1.53371 4.29287 1.87661 3.94997 2.3 3.94959ZM43.7 42.2829H2.3C1.87661 42.2826 1.53371 41.9397 1.53333 41.5163V10.8496H44.4667V41.5163C44.4663 41.9397 44.1234 42.2826 43.7 42.2829Z" fill="#322F2B"/>
<path d="M3.06665 5.48291H5.36665V7.78291H3.06665V5.48291Z" fill="#322F2B"/>
<path d="M6.90002 5.48291H9.20002V7.78291H6.90002V5.48291Z" fill="#322F2B"/>
<path d="M10.7333 5.48291H13.0333V7.78291H10.7333V5.48291Z" fill="#322F2B"/>
<path d="M30.8905 16.9829H18.1761C17.4462 16.9829 16.76 17.3296 16.3261 17.9165C15.8926 18.5035 15.7631 19.2612 15.9772 19.959L18.1005 26.8597C18.3948 27.8271 19.2883 28.4867 20.2994 28.4829H28.7672C29.7783 28.4867 30.6723 27.8267 30.9662 26.859L33.0895 19.959C33.3036 19.2612 33.1741 18.5035 32.7406 17.9165C32.3067 17.3296 31.6205 16.9829 30.8905 16.9829ZM17.5592 18.8277C17.703 18.6308 17.9324 18.5151 18.1761 18.5162H30.8905C31.1339 18.5162 31.3626 18.6315 31.5071 18.8273C31.652 19.0231 31.695 19.2758 31.6235 19.5083L31.4569 20.0496H17.6098L17.4432 19.5083C17.3702 19.2758 17.4136 19.0227 17.5592 18.8277ZM29.5002 26.4075C29.4025 26.7302 29.1045 26.9507 28.7672 26.9496H20.2994C19.9625 26.9507 19.6646 26.7306 19.5665 26.4083L18.0814 21.5829H30.9849L29.5002 26.4075Z" fill="#322F2B"/>
<path d="M17.2785 29.466L14.092 18.6338C13.8008 17.6575 12.9049 16.987 11.8863 16.9829H9.96667V18.5162H11.8863C12.2259 18.5177 12.5242 18.7412 12.6216 19.0665L15.808 29.8987C16.0993 30.875 16.9951 31.5455 18.0137 31.5496H32.2V30.0162H18.0137C17.6741 30.0148 17.3758 29.7913 17.2785 29.466Z" fill="#322F2B"/>
<path d="M20.7 34.6163C20.7 35.4631 20.0134 36.1497 19.1666 36.1497C18.3199 36.1497 17.6333 35.4631 17.6333 34.6163C17.6333 33.7696 18.3199 33.083 19.1666 33.083C20.0134 33.083 20.7 33.7696 20.7 34.6163Z" fill="#322F2B"/>
<path d="M30.6666 34.6163C30.6666 35.4631 29.9801 36.1497 29.1333 36.1497C28.2865 36.1497 27.6 35.4631 27.6 34.6163C27.6 33.7696 28.2865 33.083 29.1333 33.083C29.9801 33.083 30.6666 33.7696 30.6666 34.6163Z" fill="#322F2B"/>
</svg>
