<svg width="25" height="26" viewBox="0 0 25 26" fill="none" xmlns="http://www.w3.org/2000/svg">
<path d="M7.24044 13.2969H7.8125C7.81238 13.4004 7.77119 13.4997 7.69796 13.5729C7.62473 13.6462 7.52544 13.6874 7.42187 13.6875C7.11118 13.6878 6.81332 13.8114 6.59363 14.0311C6.37393 14.2508 6.25036 14.5487 6.25 14.8594V15.6406H7.03125V14.8594C7.03137 14.7558 7.07256 14.6565 7.14579 14.5833C7.21902 14.51 7.31831 14.4689 7.42187 14.4687C7.73257 14.4684 8.03043 14.3448 8.25012 14.1251C8.46982 13.9054 8.59339 13.6076 8.59375 13.2969V12.6774L8.86996 12.4012C8.90623 12.3649 8.93501 12.3219 8.95464 12.2745C8.97428 12.2271 8.98438 12.1763 8.98438 12.125C8.98438 12.0737 8.97428 12.0229 8.95464 11.9755C8.93501 11.9281 8.90623 11.885 8.86996 11.8488L7.69808 10.6769C7.62483 10.6037 7.52547 10.5625 7.42187 10.5625C7.31828 10.5625 7.21892 10.6037 7.14567 10.6769L6.86946 10.9531H6.80242C6.55231 10.9531 6.31245 10.8537 6.1356 10.6769C5.95874 10.5 5.85938 10.2602 5.85937 10.0101V9.94303L6.13558 9.66682C6.17186 9.63055 6.20063 9.58749 6.22027 9.5401C6.2399 9.49271 6.25001 9.44191 6.25001 9.39061C6.25001 9.33932 6.2399 9.28852 6.22027 9.24113C6.20063 9.19374 6.17186 9.15068 6.13558 9.11441L4.96371 7.94253C4.89045 7.86928 4.7911 7.82812 4.6875 7.82812C4.5839 7.82812 4.48455 7.86928 4.41129 7.94253L3.63004 8.72378C3.59377 8.76005 3.56499 8.80311 3.54536 8.8505C3.52573 8.89789 3.51562 8.94869 3.51563 8.99999V9.57205C3.51563 10.5599 3.90807 11.5073 4.6066 12.2059C5.30514 12.9044 6.25256 13.2969 7.24044 13.2969ZM4.29687 9.16178L4.6875 8.77115L5.30696 9.39061L5.19254 9.50503C5.15627 9.5413 5.12749 9.58436 5.10786 9.63175C5.08823 9.67914 5.07812 9.72994 5.07812 9.78124V10.0101C5.07813 10.4674 5.2598 10.906 5.58317 11.2293C5.90653 11.5527 6.34511 11.7344 6.80242 11.7344H7.03125C7.08255 11.7344 7.13334 11.7243 7.18074 11.7046C7.22813 11.685 7.27119 11.6562 7.30746 11.6199L7.42187 11.5055L8.04133 12.125L7.65071 12.5156H7.24044C6.85388 12.5156 6.47111 12.4395 6.11398 12.2916C5.75685 12.1436 5.43236 11.9268 5.15902 11.6535C4.88568 11.3801 4.66886 11.0556 4.52094 10.6985C4.37301 10.3414 4.29687 9.9586 4.29687 9.57205V9.16178Z" fill="#E30D42"/>
<path d="M22.2656 2.75H2.73438C2.21655 2.75058 1.72011 2.95655 1.35395 3.3227C0.987797 3.68886 0.781834 4.1853 0.78125 4.70312V17.2031C0.781834 17.7209 0.987797 18.2174 1.35395 18.5835C1.72011 18.9497 2.21655 19.1557 2.73438 19.1562H10.5469V20.3281C10.5465 20.6388 10.423 20.9367 10.2033 21.1564C9.98356 21.3761 9.68569 21.4997 9.375 21.5C9.2714 21.5 9.17204 21.5412 9.09879 21.6144C9.02553 21.6877 8.98438 21.787 8.98438 21.8906C8.98438 21.9942 9.02553 22.0936 9.09879 22.1668C9.17204 22.2401 9.2714 22.2812 9.375 22.2812H15.625C15.7286 22.2812 15.828 22.2401 15.9012 22.1668C15.9745 22.0936 16.0156 21.9942 16.0156 21.8906C16.0156 21.787 15.9745 21.6877 15.9012 21.6144C15.828 21.5412 15.7286 21.5 15.625 21.5C15.3143 21.4997 15.0164 21.3761 14.7967 21.1564C14.577 20.9367 14.4535 20.6388 14.4531 20.3281V19.1562H22.2656C22.7834 19.1557 23.2799 18.9497 23.646 18.5835C24.0122 18.2174 24.2182 17.7209 24.2188 17.2031V4.70312C24.2182 4.1853 24.0122 3.68886 23.646 3.3227C23.2799 2.95655 22.7834 2.75058 22.2656 2.75ZM2.73438 3.53125H22.2656C22.5763 3.53161 22.8742 3.65518 23.0939 3.87488C23.3136 4.09457 23.4371 4.39243 23.4375 4.70312V16.0312H22.6562V5.09375C22.656 4.88662 22.5736 4.68805 22.4272 4.54158C22.2807 4.39512 22.0821 4.31274 21.875 4.3125H3.125C2.91787 4.31274 2.7193 4.39512 2.57283 4.54158C2.42637 4.68805 2.34399 4.88662 2.34375 5.09375V16.0312H1.5625V4.70312C1.56286 4.39243 1.68643 4.09457 1.90613 3.87488C2.12582 3.65518 2.42368 3.53161 2.73438 3.53125ZM21.875 16.0312H3.125V5.09375H21.875V16.0312ZM14.0634 21.5H10.9366C11.1911 21.1624 11.3286 20.7509 11.3281 20.3281V19.1562H13.6719V20.3281C13.6714 20.7509 13.8089 21.1624 14.0634 21.5ZM22.2656 18.375H2.73438C2.42368 18.3746 2.12582 18.2511 1.90613 18.0314C1.68643 17.8117 1.56286 17.5138 1.5625 17.2031V16.8125H23.4375V17.2031C23.4371 17.5138 23.3136 17.8117 23.0939 18.0314C22.8742 18.2511 22.5763 18.3746 22.2656 18.375Z" fill="#E30D42"/>
<path d="M12.5 17.9844C12.7157 17.9844 12.8906 17.8095 12.8906 17.5938C12.8906 17.378 12.7157 17.2031 12.5 17.2031C12.2843 17.2031 12.1094 17.378 12.1094 17.5938C12.1094 17.8095 12.2843 17.9844 12.5 17.9844Z" fill="#E30D42"/>
<path d="M10.1562 15.25H11.7188C11.77 15.25 11.8208 15.2399 11.8682 15.2203C11.9156 15.2006 11.9587 15.1719 11.995 15.1356C12.0312 15.0993 12.06 15.0563 12.0796 15.0089C12.0993 14.9615 12.1094 14.9107 12.1094 14.8594V12.5156C12.1094 12.4643 12.0993 12.4135 12.0796 12.3661C12.06 12.3187 12.0312 12.2757 11.995 12.2394C11.9587 12.2031 11.9156 12.1744 11.8682 12.1547C11.8208 12.1351 11.77 12.125 11.7188 12.125H10.1562C10.105 12.125 10.0542 12.1351 10.0068 12.1547C9.95937 12.1744 9.91631 12.2031 9.88003 12.2394C9.84376 12.2757 9.81499 12.3187 9.79536 12.3661C9.77573 12.4135 9.76562 12.4643 9.76563 12.5156V14.8594C9.76562 14.9107 9.77573 14.9615 9.79536 15.0089C9.81499 15.0563 9.84376 15.0993 9.88003 15.1356C9.91631 15.1719 9.95937 15.2006 10.0068 15.2203C10.0542 15.2399 10.105 15.25 10.1562 15.25ZM10.5469 12.9062H11.3281V14.4688H10.5469V12.9062Z" fill="#E30D42"/>
<path d="M14.8438 9.78125H13.2812C13.23 9.78125 13.1792 9.79135 13.1318 9.81098C13.0844 9.83061 13.0413 9.85938 13.005 9.89566C12.9688 9.93193 12.94 9.97499 12.9204 10.0224C12.9007 10.0698 12.8906 10.1206 12.8906 10.1719V14.8594C12.8906 14.9107 12.9007 14.9615 12.9204 15.0089C12.94 15.0563 12.9688 15.0993 13.005 15.1356C13.0413 15.1719 13.0844 15.2006 13.1318 15.2203C13.1792 15.2399 13.23 15.25 13.2812 15.25H14.8438C14.895 15.25 14.9458 15.2399 14.9932 15.2203C15.0406 15.2006 15.0837 15.1719 15.12 15.1356C15.1562 15.0993 15.185 15.0563 15.2046 15.0089C15.2243 14.9615 15.2344 14.9107 15.2344 14.8594V10.1719C15.2344 10.1206 15.2243 10.0698 15.2046 10.0224C15.185 9.97499 15.1562 9.93193 15.12 9.89566C15.0837 9.85938 15.0406 9.83061 14.9932 9.81098C14.9458 9.79135 14.895 9.78125 14.8438 9.78125ZM14.4531 14.4688H13.6719V10.5625H14.4531V14.4688Z" fill="#E30D42"/>
<path d="M17.9688 11.3438H16.4062C16.355 11.3437 16.3042 11.3539 16.2568 11.3735C16.2094 11.3931 16.1663 11.4219 16.13 11.4582C16.0938 11.4944 16.065 11.5375 16.0454 11.5849C16.0257 11.6323 16.0156 11.6831 16.0156 11.7344V14.8594C16.0156 14.9107 16.0257 14.9615 16.0454 15.0089C16.065 15.0563 16.0938 15.0993 16.13 15.1356C16.1663 15.1719 16.2094 15.2006 16.2568 15.2203C16.3042 15.2399 16.355 15.25 16.4062 15.25H17.9688C18.02 15.25 18.0708 15.2399 18.1182 15.2203C18.1656 15.2006 18.2087 15.1719 18.245 15.1356C18.2812 15.0993 18.31 15.0563 18.3296 15.0089C18.3493 14.9615 18.3594 14.9107 18.3594 14.8594V11.7344C18.3594 11.6831 18.3493 11.6323 18.3296 11.5849C18.31 11.5375 18.2812 11.4944 18.245 11.4582C18.2087 11.4219 18.1656 11.3931 18.1182 11.3735C18.0708 11.3539 18.02 11.3437 17.9688 11.3438ZM17.5781 14.4688H16.7969V12.125H17.5781V14.4688Z" fill="#E30D42"/>
<path d="M21.0938 9.39063H19.5312C19.48 9.39062 19.4292 9.40073 19.3818 9.42036C19.3344 9.43999 19.2913 9.46876 19.255 9.50503C19.2188 9.54131 19.19 9.58437 19.1704 9.63176C19.1507 9.67916 19.1406 9.72995 19.1406 9.78125V14.8594C19.1406 14.9107 19.1507 14.9615 19.1704 15.0089C19.19 15.0563 19.2188 15.0993 19.255 15.1356C19.2913 15.1719 19.3344 15.2006 19.3818 15.2203C19.4292 15.2399 19.48 15.25 19.5312 15.25H21.0938C21.145 15.25 21.1958 15.2399 21.2432 15.2203C21.2906 15.2006 21.3337 15.1719 21.37 15.1356C21.4062 15.0993 21.435 15.0563 21.4546 15.0089C21.4743 14.9615 21.4844 14.9107 21.4844 14.8594V9.78125C21.4844 9.72995 21.4743 9.67916 21.4546 9.63176C21.435 9.58437 21.4062 9.54131 21.37 9.50503C21.3337 9.46876 21.2906 9.43999 21.2432 9.42036C21.1958 9.40073 21.145 9.39062 21.0938 9.39063ZM20.7031 14.4688H19.9219V10.1719H20.7031V14.4688Z" fill="#E30D42"/>
<path d="M14.0625 7.59932L16.9113 10.4481C16.9476 10.4844 16.9906 10.5131 17.038 10.5328C17.0854 10.5524 17.1362 10.5625 17.1875 10.5625C17.2388 10.5625 17.2896 10.5524 17.337 10.5328C17.3844 10.5131 17.4274 10.4844 17.4637 10.4481L20.7031 7.20867V8.21875H21.4844V6.26562C21.4844 6.21433 21.4743 6.16353 21.4546 6.11614C21.435 6.06874 21.4062 6.02568 21.37 5.98941C21.3337 5.95313 21.2906 5.92436 21.2432 5.90473C21.1958 5.8851 21.145 5.875 21.0937 5.875H19.1406V6.65625H20.1507L17.1875 9.61943L14.3387 6.77066C14.2654 6.69741 14.1661 6.65626 14.0625 6.65626C13.9589 6.65626 13.8595 6.69741 13.7863 6.77066L10.6613 9.89566L11.2137 10.4481L14.0625 7.59932Z" fill="#E30D42"/>
</svg>
