<svg width="24" height="25" viewBox="0 0 24 25" fill="none" xmlns="http://www.w3.org/2000/svg">
<g clip-path="url(#clip0)">
<path d="M16.5 2.0752H15.375V2.8252H16.5V2.0752Z" fill="#E30D42"/>
<path d="M17.25 2.8252C17.4571 2.8252 17.625 2.6573 17.625 2.4502C17.625 2.24309 17.4571 2.0752 17.25 2.0752C17.0429 2.0752 16.875 2.24309 16.875 2.4502C16.875 2.6573 17.0429 2.8252 17.25 2.8252Z" fill="#E30D42"/>
<path d="M8.625 20.8252C8.4025 20.8252 8.18499 20.8912 7.99998 21.0148C7.81498 21.1384 7.67078 21.3141 7.58564 21.5197C7.50049 21.7252 7.47821 21.9514 7.52162 22.1697C7.56503 22.3879 7.67217 22.5884 7.82951 22.7457C7.98684 22.903 8.18729 23.0102 8.40552 23.0536C8.62375 23.097 8.84995 23.0747 9.05552 22.9896C9.26109 22.9044 9.43679 22.7602 9.5604 22.5752C9.68402 22.3902 9.75 22.1727 9.75 21.9502C9.74966 21.6519 9.63103 21.366 9.42012 21.1551C9.20922 20.9442 8.92327 20.8255 8.625 20.8252ZM8.625 22.3252C8.55083 22.3252 8.47833 22.3032 8.41666 22.262C8.35499 22.2208 8.30693 22.1622 8.27855 22.0937C8.25016 22.0252 8.24274 21.9498 8.25721 21.877C8.27168 21.8043 8.30739 21.7375 8.35984 21.685C8.41228 21.6326 8.4791 21.5969 8.55184 21.5824C8.62458 21.5679 8.69998 21.5754 8.76851 21.6037C8.83703 21.6321 8.8956 21.6802 8.9368 21.7419C8.97801 21.8035 9 21.876 9 21.9502C8.99989 22.0496 8.96034 22.1449 8.89004 22.2152C8.81974 22.2855 8.72442 22.3251 8.625 22.3252Z" fill="#E30D42"/>
<path d="M23.25 10.3252C23.25 10.1122 23.2046 9.9017 23.1167 9.70769C23.0289 9.51369 22.9006 9.34067 22.7406 9.2002C22.9695 8.99899 23.1316 8.73278 23.2054 8.43705C23.2792 8.14133 23.2611 7.83014 23.1535 7.54499C23.0458 7.25983 22.8539 7.01424 22.6031 6.84098C22.3524 6.66771 22.0548 6.575 21.75 6.5752V2.8252C21.7494 2.32809 21.5517 1.8515 21.2002 1.49999C20.8487 1.14849 20.3721 0.95076 19.875 0.950195H13.125C12.6279 0.95076 12.1513 1.14849 11.7998 1.49999C11.4483 1.8515 11.2506 2.32809 11.25 2.8252V9.2002H10.5C10.4005 9.20019 10.3052 9.2397 10.2348 9.31001L4.87499 14.6699L4.76515 14.56C4.69481 14.4897 4.59944 14.4502 4.49999 14.4502C4.40055 14.4502 4.30517 14.4897 4.23483 14.56L0.859833 17.935L1.39015 18.4654L4.49999 15.3555L11.0947 21.9502L10.2348 22.81L10.7652 23.3404L11.8902 22.2154C11.925 22.1806 11.9526 22.1392 11.9714 22.0937C11.9903 22.0482 12 21.9994 12 21.9502C12 21.9009 11.9903 21.8522 11.9714 21.8067C11.9526 21.7612 11.925 21.7198 11.8902 21.685L11.7803 21.5752L14.4053 18.9502H19.875C20.3721 18.9496 20.8487 18.7519 21.2002 18.4004C21.5517 18.0489 21.7494 17.5723 21.75 17.0752V16.3252C22.0548 16.3254 22.3524 16.2327 22.6031 16.0594C22.8539 15.8861 23.0458 15.6406 23.1535 15.3554C23.2611 15.0702 23.2792 14.7591 23.2054 14.4633C23.1316 14.1676 22.9695 13.9014 22.7406 13.7002C22.9006 13.5597 23.0288 13.3867 23.1167 13.1927C23.2045 12.9987 23.25 12.7882 23.25 12.5752C23.25 12.3622 23.2045 12.1517 23.1167 11.9577C23.0288 11.7637 22.9006 11.5907 22.7406 11.4502C22.9006 11.3097 23.0289 11.1367 23.1167 10.9427C23.2046 10.7487 23.25 10.5382 23.25 10.3252ZM22.5 8.0752C22.4998 8.27404 22.4207 8.46467 22.2801 8.60527C22.1395 8.74588 21.9488 8.82497 21.75 8.8252H21.375C21.1761 8.8252 20.9853 8.74618 20.8447 8.60553C20.704 8.46487 20.625 8.27411 20.625 8.0752C20.625 7.87628 20.704 7.68552 20.8447 7.54487C20.9853 7.40421 21.1761 7.3252 21.375 7.3252H21.75C21.9488 7.32542 22.1395 7.40451 22.2801 7.54512C22.4207 7.68572 22.4998 7.87635 22.5 8.0752ZM13.125 12.4799C13.2526 12.447 13.3779 12.4055 13.5 12.3559V12.5752C13.5 12.6747 13.5395 12.77 13.6098 12.8404C13.6802 12.9107 13.7755 12.9502 13.875 12.9502H15V14.0752C15 14.1747 15.0395 14.27 15.1098 14.3404C15.1802 14.4107 15.2755 14.4502 15.375 14.4502H19.125C19.2244 14.4502 19.3198 14.4107 19.3902 14.3404C19.4605 14.27 19.5 14.1747 19.5 14.0752V8.4502C19.5 8.35074 19.4605 8.25536 19.3902 8.18503C19.3198 8.11471 19.2244 8.0752 19.125 8.0752H18V6.9502C18 6.85074 17.9605 6.75536 17.8902 6.68503C17.8198 6.61471 17.7244 6.5752 17.625 6.5752H13.875C13.7755 6.5752 13.6802 6.61471 13.6098 6.68503C13.5395 6.75536 13.5 6.85074 13.5 6.9502V9.2002H13.125V2.8252H14.0946L15.1098 3.84038C15.1802 3.9107 15.2755 3.9502 15.375 3.9502H17.625C17.7244 3.9502 17.8198 3.91069 17.8902 3.84038L18.9053 2.8252H19.875V17.0752H13.125V12.4799ZM18.75 8.8252V13.7002H15.75V8.8252H18.75ZM17.25 8.0752H15.375C15.2755 8.0752 15.1802 8.11471 15.1098 8.18503C15.0395 8.25536 15 8.35074 15 8.4502V9.2002H14.25V7.3252H17.25V8.0752ZM15 12.2002H14.25V11.9151C14.5553 11.6698 14.8101 11.3674 15 11.0248V12.2002ZM12 2.8252C12.0003 2.52693 12.119 2.24098 12.3299 2.03008C12.5408 1.81917 12.8267 1.70054 13.125 1.7002H19.875C20.1733 1.70054 20.4592 1.81917 20.6701 2.03008C20.881 2.24098 20.9996 2.52693 21 2.8252V6.62267C20.8685 6.65678 20.7424 6.70871 20.625 6.777V2.8252C20.6248 2.62635 20.5457 2.43572 20.4051 2.29512C20.2645 2.15451 20.0738 2.07542 19.875 2.0752H18.75C18.6505 2.07519 18.5552 2.1147 18.4848 2.18501L17.4696 3.2002H15.5303L14.5152 2.18501C14.4448 2.1147 14.3494 2.07519 14.25 2.0752H13.125C12.9261 2.07542 12.7355 2.15451 12.5949 2.29512C12.4543 2.43572 12.3752 2.62635 12.375 2.8252V9.2002H12V2.8252ZM11.25 21.0449L5.40534 15.2002L10.6553 9.9502H14.5937C14.5044 10.4742 14.2328 10.9498 13.8268 11.2929C13.4208 11.636 12.9066 11.8245 12.375 11.8252C12.2755 11.8252 12.1802 11.8647 12.1098 11.935L10.2348 13.81C10.1645 13.8803 10.125 13.9757 10.125 14.0752C10.125 14.1747 10.1645 14.27 10.2348 14.3404C10.7802 14.8857 11.0996 15.6168 11.1292 16.3875C11.1588 17.1581 10.8964 17.9115 10.3945 18.4971L10.2153 18.7062L10.7847 19.1942L10.9639 18.9852C11.1985 18.7117 11.3931 18.4063 11.5421 18.0783C11.7111 18.3452 11.9448 18.5651 12.2215 18.7175C12.4983 18.87 12.809 18.95 13.125 18.9502H13.3446L11.25 21.0449ZM11.25 14.4044C11.1779 14.295 11.1003 14.1895 11.0174 14.0881L11.25 13.8555V14.4044ZM19.875 18.2002H13.125C12.8267 18.1999 12.5408 18.0812 12.3299 17.8703C12.119 17.6594 12.0003 17.3735 12 17.0752V13.1055L12.375 12.7305V17.0752C12.3752 17.274 12.4543 17.4647 12.5949 17.6053C12.7355 17.7459 12.9261 17.825 13.125 17.8252H19.875C20.0738 17.825 20.2645 17.7459 20.4051 17.6053C20.5457 17.4647 20.6248 17.274 20.625 17.0752V16.1234C20.7424 16.1917 20.8685 16.2436 21 16.2777V17.0752C20.9996 17.3735 20.881 17.6594 20.6701 17.8703C20.4592 18.0812 20.1733 18.1999 19.875 18.2002ZM22.5 14.8252C22.4998 15.024 22.4207 15.2147 22.2801 15.3553C22.1395 15.4959 21.9488 15.575 21.75 15.5752H21.375C21.1761 15.5752 20.9853 15.4962 20.8447 15.3555C20.704 15.2149 20.625 15.0241 20.625 14.8252C20.625 14.6263 20.704 14.4355 20.8447 14.2949C20.9853 14.1542 21.1761 14.0752 21.375 14.0752H21.75C21.9488 14.0754 22.1395 14.1545 22.2801 14.2951C22.4207 14.4357 22.4998 14.6264 22.5 14.8252ZM22.5 12.5752C22.4998 12.774 22.4207 12.9647 22.2801 13.1053C22.1395 13.2459 21.9488 13.325 21.75 13.3252H21.375C21.1761 13.3252 20.9853 13.2462 20.8447 13.1055C20.704 12.9649 20.625 12.7741 20.625 12.5752C20.625 12.3763 20.704 12.1855 20.8447 12.0449C20.9853 11.9042 21.1761 11.8252 21.375 11.8252H21.75C21.9488 11.8254 22.1395 11.9045 22.2801 12.0451C22.4207 12.1857 22.4998 12.3764 22.5 12.5752ZM21.375 11.0752C21.1761 11.0752 20.9853 10.9962 20.8447 10.8555C20.704 10.7149 20.625 10.5241 20.625 10.3252C20.625 10.1263 20.704 9.93552 20.8447 9.79487C20.9853 9.65421 21.1761 9.5752 21.375 9.5752H21.75C21.9489 9.5752 22.1397 9.65421 22.2803 9.79487C22.421 9.93552 22.5 10.1263 22.5 10.3252C22.5 10.5241 22.421 10.7149 22.2803 10.8555C22.1397 10.9962 21.9489 11.0752 21.75 11.0752H21.375Z" fill="#E30D42"/>
</g>
<defs>
<clipPath id="clip0">
<rect width="24" height="24" fill="white" transform="translate(0 0.200195)"/>
</clipPath>
</defs>
</svg>
