<svg width="24" height="25" viewBox="0 0 24 25" fill="none" xmlns="http://www.w3.org/2000/svg">
<path d="M18.75 7.87354C18.75 4.15155 15.722 1.12354 12 1.12354C8.27804 1.12354 5.25 4.15155 5.25 7.87354C5.25 11.5955 8.27804 14.6235 12 14.6235C15.722 14.6235 18.75 11.5955 18.75 7.87354ZM18 7.87354C18.0001 8.31835 17.9508 8.7618 17.8529 9.19571L16.3709 9.56625L15.3558 6.5207C15.3337 6.45464 15.2937 6.39602 15.2403 6.35139C15.1868 6.30677 15.122 6.27792 15.053 6.26806L12.75 5.93907V4.26544L15.6131 3.08663C16.3544 3.64524 16.9559 4.36838 17.3701 5.19907C17.7843 6.02976 18 6.9453 18 7.87354ZM14.8447 2.59194L12.2322 3.66756C12.1635 3.69585 12.1048 3.74391 12.0634 3.80564C12.0221 3.86738 12 3.94001 12 4.01431V6.26431C12 6.35458 12.0326 6.44182 12.0917 6.51002C12.1508 6.57822 12.2326 6.62279 12.322 6.63556L14.7175 6.97778L15.7692 10.1329C15.7991 10.2226 15.8617 10.2977 15.9445 10.3431C16.0274 10.3886 16.1243 10.4011 16.216 10.3781L17.598 10.0325C17.3345 10.7122 16.9496 11.3383 16.4621 11.8802L13.9123 11.6254C13.8492 11.619 13.7855 11.6288 13.7272 11.6538C13.6689 11.6788 13.6179 11.7182 13.579 11.7683L11.9422 13.8728C11.4433 13.8684 10.947 13.8017 10.4647 13.6741L11.9178 11.8578C11.9656 11.798 11.994 11.7251 11.9992 11.6487C12.0043 11.5723 11.9859 11.4962 11.9466 11.4306L10.875 9.64467V8.62354C10.875 8.55389 10.8556 8.48563 10.819 8.42639C10.7824 8.36715 10.73 8.31927 10.6677 8.28813L9.1677 7.53813C9.11563 7.51209 9.05822 7.49853 9 7.49854H7.875V6.74854H9.375C9.44464 6.74854 9.5129 6.72915 9.57214 6.69254C9.63138 6.65593 9.67926 6.60355 9.7104 6.54126L11.9604 2.04126C11.9862 1.98915 11.9996 1.93172 11.9993 1.87355L12 1.87354C12.9933 1.87234 13.9711 2.11929 14.8447 2.59194ZM15.7399 12.5617C14.9328 13.2082 13.9716 13.6342 12.9505 13.798L14.0438 12.3923L15.7399 12.5617ZM6 7.87354C6 4.84418 8.25683 2.3324 11.1774 1.93017L9.14323 5.99854H7.5C7.40054 5.99854 7.30516 6.03805 7.23484 6.10837C7.16451 6.1787 7.125 6.27408 7.125 6.37354V7.87354C7.125 7.97299 7.16451 8.06837 7.23484 8.1387C7.30516 8.20902 7.40054 8.24853 7.5 8.24854H8.91147L10.125 8.8553V9.74854C10.125 9.81651 10.1435 9.8832 10.1784 9.94148L11.1693 11.5929L9.70874 13.4185C8.61194 12.964 7.67434 12.1947 7.01428 11.2079C6.35422 10.221 6.00128 9.06078 6 7.87354Z" fill="#E30D42"/>
<path d="M9.375 20.6235H9V19.4985C9 19.3991 8.96049 19.3037 8.89016 19.2334C8.81984 19.1631 8.72446 19.1235 8.625 19.1235H8.25V18.3735C8.25094 16.8406 7.97522 15.3201 7.4361 13.8852L7.29884 13.5191C7.19605 13.245 6.99568 13.0186 6.73617 12.8832C6.47665 12.7478 6.17628 12.713 5.89271 12.7856C5.60913 12.8581 5.36232 13.0328 5.19964 13.2761C5.03697 13.5194 4.96989 13.8143 5.01128 14.104L5.02686 14.2131L3.72883 12.5906L3.10799 8.86547C3.05902 8.57164 2.90137 8.30696 2.66633 8.12396C2.43128 7.94096 2.13603 7.85301 1.83916 7.87758C1.54229 7.90215 1.26551 8.03743 1.06375 8.25658C0.861991 8.47573 0.749998 8.76273 0.75 9.06061V13.4985C0.749998 13.5568 0.763555 13.6142 0.789597 13.6663L3.51823 19.1235H3.375C3.27554 19.1235 3.18016 19.1631 3.10984 19.2334C3.03951 19.3037 3 19.3991 3 19.4985V20.6235H2.625C2.52554 20.6235 2.43016 20.6631 2.35984 20.7334C2.28951 20.8037 2.25 20.8991 2.25 20.9985V23.6235H3V21.3735H9V23.6235H9.75V20.9985C9.75 20.8991 9.71049 20.8037 9.64016 20.7334C9.56984 20.6631 9.47446 20.6235 9.375 20.6235ZM1.5 13.41V9.06061C1.5 8.95093 1.54124 8.84526 1.61553 8.76457C1.68981 8.68388 1.79173 8.63407 1.90103 8.62503C2.01034 8.61599 2.11905 8.64837 2.20559 8.71576C2.29213 8.78314 2.35017 8.8806 2.36819 8.98879L3.0051 12.8102C3.01563 12.8734 3.04216 12.9328 3.08217 12.9828L5.23563 15.6746L5.46805 17.3016L6.2105 17.1955L5.96361 15.4672H5.9636L5.75372 13.998C5.74486 13.9359 5.74943 13.8727 5.76713 13.8126C5.78484 13.7524 5.81526 13.6968 5.85633 13.6494C5.89741 13.6021 5.94818 13.5641 6.00522 13.538C6.06225 13.512 6.12421 13.4985 6.1869 13.4985C6.27591 13.4988 6.36272 13.5261 6.43588 13.5768C6.50903 13.6275 6.56508 13.6992 6.5966 13.7824L6.73384 14.1485C7.24134 15.4993 7.50089 16.9306 7.5 18.3735V19.1235H4.35677L1.5 13.41ZM3.75 19.8735H8.25V20.6235H3.75V19.8735Z" fill="#E30D42"/>
<path d="M22.0629 7.87354C21.7817 7.87279 21.5094 7.9722 21.2949 8.15397C21.0803 8.33573 20.9375 8.58797 20.892 8.86547L20.2712 12.5906L18.9731 14.2131L18.9887 14.104C19.0301 13.8143 18.963 13.5194 18.8004 13.2761C18.6377 13.0327 18.3909 12.8581 18.1073 12.7855C17.8237 12.713 17.5233 12.7478 17.2638 12.8832C17.0043 13.0186 16.8039 13.2451 16.7011 13.5191L16.5639 13.8852C16.0248 15.3201 15.7491 16.8406 15.75 18.3735V19.1235H15.375C15.2755 19.1235 15.1802 19.1631 15.1098 19.2334C15.0395 19.3037 15 19.3991 15 19.4985V20.6235H14.625C14.5255 20.6235 14.4302 20.6631 14.3598 20.7334C14.2895 20.8037 14.25 20.8991 14.25 20.9985V23.6235H15V21.3735H21V23.6235H21.75V20.9985C21.75 20.8991 21.7105 20.8037 21.6402 20.7334C21.5698 20.6631 21.4745 20.6235 21.375 20.6235H21V19.4985C21 19.3991 20.9605 19.3037 20.8902 19.2334C20.8198 19.1631 20.7245 19.1235 20.625 19.1235H20.4818L23.2104 13.6663C23.2364 13.6142 23.25 13.5568 23.25 13.4985V9.06061C23.2496 8.74589 23.1245 8.44416 22.9019 8.22162C22.6794 7.99907 22.3776 7.87389 22.0629 7.87354ZM15.75 20.6235V19.8735H20.25V20.6235H15.75ZM22.5 13.41L19.6432 19.1235H16.5V18.3735C16.4991 16.9306 16.7587 15.4993 17.2662 14.1485L17.4034 13.7825C17.4349 13.6992 17.491 13.6275 17.5641 13.5768C17.6373 13.5261 17.7241 13.4988 17.8131 13.4985C17.8758 13.4985 17.9378 13.512 17.9948 13.538C18.0518 13.5641 18.1026 13.6021 18.1437 13.6494C18.1848 13.6968 18.2152 13.7524 18.2329 13.8126C18.2506 13.8727 18.2551 13.9359 18.2463 13.998L18.0364 15.4672H18.0364L17.7895 17.1955L18.5319 17.3016L18.7644 15.6746L20.9178 12.9828C20.9578 12.9328 20.9844 12.8734 20.9949 12.8102L21.6318 8.98879C21.6498 8.8806 21.7079 8.78314 21.7944 8.71576C21.8809 8.64837 21.9897 8.61599 22.099 8.62503C22.2083 8.63407 22.3102 8.68388 22.3845 8.76457C22.4588 8.84526 22.5 8.95093 22.5 9.06061V13.41Z" fill="#E30D42"/>
</svg>
