<svg width="24" height="25" viewBox="0 0 24 25" fill="none" xmlns="http://www.w3.org/2000/svg">
<g clip-path="url(#clip0)">
<path d="M21.375 0.950195H4.875C4.37787 0.950694 3.90125 1.1484 3.54973 1.49992C3.1982 1.85144 3.0005 2.32807 3 2.8252V9.9502H3.75V2.8252C3.75039 2.52695 3.86905 2.24103 4.07994 2.03014C4.29083 1.81924 4.57675 1.70059 4.875 1.7002H21.375C21.6732 1.70059 21.9592 1.81924 22.1701 2.03014C22.381 2.24103 22.4996 2.52695 22.5 2.8252V13.3252H21.75V3.2002C21.7498 3.00135 21.6707 2.81072 21.5301 2.67012C21.3895 2.52951 21.1988 2.45042 21 2.4502H5.25C5.05116 2.45042 4.86052 2.52951 4.71992 2.67012C4.57932 2.81072 4.50023 3.00135 4.5 3.2002V9.9502H5.25V3.2002H21V13.3252H9V14.0752H22.5V14.4502C22.4996 14.7484 22.381 15.0344 22.1701 15.2453C21.9592 15.4561 21.6732 15.5748 21.375 15.5752H9V16.3252H11.25V17.4502C11.2496 17.7484 11.131 18.0344 10.9201 18.2453C10.7092 18.4561 10.4232 18.5748 10.125 18.5752C10.0255 18.5752 9.93016 18.6147 9.85983 18.685C9.78951 18.7554 9.75 18.8507 9.75 18.9502C9.75 19.0497 9.78951 19.145 9.85983 19.2154C9.93016 19.2857 10.0255 19.3252 10.125 19.3252H16.125C16.2245 19.3252 16.3198 19.2857 16.3902 19.2154C16.4605 19.145 16.5 19.0497 16.5 18.9502C16.5 18.8507 16.4605 18.7554 16.3902 18.685C16.3198 18.6147 16.2245 18.5752 16.125 18.5752C15.8268 18.5748 15.5408 18.4561 15.3299 18.2453C15.119 18.0344 15.0004 17.7484 15 17.4502V16.3252H21.375C21.8721 16.3247 22.3488 16.127 22.7003 15.7755C23.0518 15.4239 23.2495 14.9473 23.25 14.4502V2.8252C23.2495 2.32807 23.0518 1.85144 22.7003 1.49992C22.3488 1.1484 21.8721 0.950694 21.375 0.950195ZM11.6241 18.5752C11.8684 18.2511 12.0004 17.8561 12 17.4502V16.3252H14.25V17.4502C14.2496 17.8561 14.3816 18.2511 14.6259 18.5752H11.6241Z" fill="#E30D42"/>
<path d="M13.125 15.2002C13.3321 15.2002 13.5 15.0323 13.5 14.8252C13.5 14.6181 13.3321 14.4502 13.125 14.4502C12.9179 14.4502 12.75 14.6181 12.75 14.8252C12.75 15.0323 12.9179 15.2002 13.125 15.2002Z" fill="#E30D42"/>
<path d="M9 10.3252V9.2002C9 9.10074 8.96049 9.00536 8.89016 8.93503C8.81984 8.86471 8.72446 8.8252 8.625 8.8252H6.375C6.27554 8.8252 6.18016 8.86471 6.10984 8.93503C6.03951 9.00536 6 9.10074 6 9.2002V9.9502H6.75V9.5752H8.25V10.3252H9Z" fill="#E30D42"/>
<path d="M10.125 8.0752C10.0255 8.0752 9.93016 8.11471 9.85984 8.18503C9.78951 8.25536 9.75 8.35074 9.75 8.4502V12.2002C9.75 12.2997 9.78951 12.395 9.85984 12.4654C9.93016 12.5357 10.0255 12.5752 10.125 12.5752H12.375C12.4745 12.5752 12.5698 12.5357 12.6402 12.4654C12.7105 12.395 12.75 12.2997 12.75 12.2002V8.4502C12.75 8.35074 12.7105 8.25536 12.6402 8.18503C12.5698 8.11471 12.4745 8.0752 12.375 8.0752H10.125ZM12 11.8252H10.5V8.8252H12V11.8252Z" fill="#E30D42"/>
<path d="M13.875 9.5752C13.7755 9.5752 13.6802 9.61471 13.6098 9.68503C13.5395 9.75536 13.5 9.85074 13.5 9.9502V12.2002C13.5 12.2997 13.5395 12.395 13.6098 12.4654C13.6802 12.5357 13.7755 12.5752 13.875 12.5752H16.125C16.2245 12.5752 16.3198 12.5357 16.3902 12.4654C16.4605 12.395 16.5 12.2997 16.5 12.2002V9.9502C16.5 9.85074 16.4605 9.75536 16.3902 9.68503C16.3198 9.61471 16.2245 9.5752 16.125 9.5752H13.875ZM15.75 11.8252H14.25V10.3252H15.75V11.8252Z" fill="#E30D42"/>
<path d="M17.25 7.3252V12.2002C17.25 12.2997 17.2895 12.395 17.3598 12.4654C17.4302 12.5357 17.5255 12.5752 17.625 12.5752H19.875C19.9745 12.5752 20.0698 12.5357 20.1402 12.4654C20.2105 12.395 20.25 12.2997 20.25 12.2002V7.3252C20.25 7.22574 20.2105 7.13036 20.1402 7.06003C20.0698 6.98971 19.9745 6.9502 19.875 6.9502H17.625C17.5255 6.9502 17.4302 6.98971 17.3598 7.06003C17.2895 7.13036 17.25 7.22574 17.25 7.3252ZM18 7.7002H19.5V11.8252H18V7.7002Z" fill="#E30D42"/>
<path d="M11.5152 4.06004C11.4448 3.98971 11.3494 3.95021 11.25 3.95021C11.1505 3.95021 11.0551 3.98971 10.9848 4.06004L7.2348 7.81004L7.76517 8.34035L11.25 4.85551L14.7348 8.34035C14.8051 8.41068 14.9005 8.4502 15 8.4502C15.0994 8.4502 15.1948 8.41068 15.2652 8.34035L18.375 5.23054V6.2002H19.125V4.3252C19.125 4.22574 19.0855 4.13036 19.0151 4.06003C18.9448 3.98971 18.8494 3.9502 18.75 3.9502H16.875V4.7002H17.8446L15 7.54488L11.5152 4.06004Z" fill="#E30D42"/>
<path d="M7.125 10.7002H1.875C1.57674 10.7005 1.29079 10.8192 1.07988 11.0301C0.868977 11.241 0.750341 11.5269 0.75 11.8252V22.3252C0.750341 22.6235 0.868977 22.9094 1.07988 23.1203C1.29079 23.3312 1.57674 23.4499 1.875 23.4502H7.125C7.42326 23.4499 7.70921 23.3312 7.92012 23.1203C8.13102 22.9094 8.24966 22.6235 8.25 22.3252V11.8252C8.24966 11.5269 8.13102 11.241 7.92012 11.0301C7.70921 10.8192 7.42326 10.7005 7.125 10.7002ZM7.5 22.3252C7.49989 22.4246 7.46034 22.5199 7.39004 22.5902C7.31974 22.6605 7.22442 22.7001 7.125 22.7002H1.875C1.77558 22.7001 1.68026 22.6605 1.60996 22.5902C1.53966 22.5199 1.50011 22.4246 1.5 22.3252V11.8252C1.50011 11.7258 1.53966 11.6305 1.60996 11.5602C1.68026 11.4899 1.77558 11.4503 1.875 11.4502H7.125C7.22442 11.4503 7.31974 11.4899 7.39004 11.5602C7.46034 11.6305 7.49989 11.7258 7.5 11.8252V22.3252Z" fill="#E30D42"/>
<path d="M4.5 22.3252C4.70711 22.3252 4.875 22.1573 4.875 21.9502C4.875 21.7431 4.70711 21.5752 4.5 21.5752C4.29289 21.5752 4.125 21.7431 4.125 21.9502C4.125 22.1573 4.29289 22.3252 4.5 22.3252Z" fill="#E30D42"/>
<path d="M5.25 11.8252H3.75V12.5752H5.25V11.8252Z" fill="#E30D42"/>
<path d="M6 12.5752C6.20711 12.5752 6.375 12.4073 6.375 12.2002C6.375 11.9931 6.20711 11.8252 6 11.8252C5.79289 11.8252 5.625 11.9931 5.625 12.2002C5.625 12.4073 5.79289 12.5752 6 12.5752Z" fill="#E30D42"/>
<path d="M4.5 14.4502C3.98082 14.4502 3.47331 14.6041 3.04163 14.8926C2.60995 15.181 2.2735 15.591 2.07482 16.0707C1.87614 16.5503 1.82415 17.0781 1.92544 17.5873C2.02673 18.0965 2.27673 18.5642 2.64384 18.9314C3.01096 19.2985 3.47869 19.5485 3.98789 19.6498C4.49709 19.751 5.02489 19.6991 5.50454 19.5004C5.9842 19.3017 6.39416 18.9652 6.6826 18.5336C6.97104 18.1019 7.12499 17.5944 7.12499 17.0752C7.12421 16.3792 6.8474 15.712 6.35528 15.2199C5.86317 14.7278 5.19595 14.451 4.5 14.4502ZM2.625 17.0752C2.62478 16.7364 2.71639 16.404 2.89009 16.1131C3.0638 15.8223 3.3131 15.584 3.61146 15.4236C3.90983 15.2632 4.2461 15.1867 4.5845 15.2022C4.9229 15.2177 5.25077 15.3246 5.53322 15.5116L2.93644 18.1084C2.73301 17.8023 2.62465 17.4428 2.625 17.0752ZM3.46678 18.6388L4.5 17.6055L5.53322 18.6388C5.22691 18.8419 4.86753 18.9502 4.5 18.9502C4.13247 18.9502 3.77309 18.8419 3.46678 18.6388V18.6388ZM6.06356 18.1084L5.03034 17.0752L6.06356 16.042C6.26667 16.3483 6.375 16.7077 6.375 17.0752C6.375 17.4427 6.26667 17.8021 6.06356 18.1084V18.1084Z" fill="#E30D42"/>
</g>
<defs>
<clipPath id="clip0">
<rect width="24" height="24" fill="white" transform="translate(0 0.200195)"/>
</clipPath>
</defs>
</svg>
