<svg width="24" height="25" viewBox="0 0 24 25" fill="none" xmlns="http://www.w3.org/2000/svg">
<path d="M22.125 3.29541H1.875C1.57674 3.29575 1.29079 3.41439 1.07988 3.62529C0.868977 3.8362 0.750341 4.12215 0.75 4.42041V15.6704C0.750341 15.9687 0.868977 16.2546 1.07988 16.4655C1.29079 16.6764 1.57674 16.7951 1.875 16.7954H9.85862L10.7027 18.0333C10.8673 18.2748 10.963 18.5566 10.9794 18.8484C10.9958 19.1402 10.9323 19.431 10.7957 19.6894C10.6591 19.9478 10.4547 20.164 10.2043 20.3149C9.954 20.4657 9.66727 20.5454 9.375 20.5454C9.27554 20.5454 9.18016 20.5849 9.10983 20.6552C9.03951 20.7256 9 20.821 9 20.9204C9 21.0199 9.03951 21.1152 9.10983 21.1856C9.18016 21.2559 9.27554 21.2954 9.375 21.2954H15.75C16.1787 21.2954 16.5992 21.1785 16.9664 20.9573C17.3336 20.736 17.6335 20.4188 17.8338 20.0398C18.0341 19.6608 18.1272 19.2344 18.1032 18.8064C18.0791 18.3784 17.9388 17.965 17.6973 17.6108L17.1414 16.7954H22.125C22.4233 16.7951 22.7092 16.6764 22.9201 16.4655C23.131 16.2546 23.2497 15.9687 23.25 15.6704V4.42041C23.2497 4.12215 23.131 3.8362 22.9201 3.62529C22.7092 3.41439 22.4233 3.29575 22.125 3.29541ZM17.0777 18.0333C17.2423 18.2748 17.338 18.5566 17.3544 18.8484C17.3708 19.1402 17.3073 19.431 17.1707 19.6894C17.0341 19.9478 16.8297 20.164 16.5793 20.3149C16.329 20.4657 16.0423 20.5454 15.75 20.5454H11.1036C11.2431 20.3927 11.3625 20.2228 11.4588 20.0398C11.5007 19.9604 11.5382 19.8788 11.5712 19.7954H13.125V19.0454H11.735C11.7582 18.5349 11.6132 18.0309 11.3223 17.6108L10.7664 16.7954H12.1623L12.6176 17.557C12.6208 17.5623 12.624 17.5675 12.6275 17.5726C12.7755 17.7952 12.9762 17.9776 13.2119 18.1037C13.4475 18.2298 13.7107 18.2957 13.9779 18.2954C14.1541 18.2954 14.3273 18.2499 14.4806 18.1631C14.634 18.0764 14.7622 17.9514 14.853 17.8004C14.9437 17.6494 14.9938 17.4775 14.9984 17.3014C15.003 17.1253 14.962 16.951 14.8792 16.7954H16.2336L17.0777 18.0333ZM14.0254 16.7954L14.1848 17.0931C14.1905 17.1037 14.1967 17.1141 14.2034 17.1241C14.2306 17.1649 14.2462 17.2123 14.2486 17.2613C14.2509 17.3103 14.24 17.359 14.2168 17.4023C14.1937 17.4455 14.1592 17.4817 14.1172 17.5069C14.0751 17.5321 14.027 17.5454 13.9779 17.5454C13.8356 17.5456 13.6954 17.5108 13.5696 17.4443C13.4437 17.3777 13.3361 17.2813 13.2562 17.1636L13.0361 16.7954H14.0254ZM1.875 16.0454C1.77558 16.0453 1.68026 16.0058 1.60996 15.9354C1.53966 15.8651 1.50011 15.7698 1.5 15.6704V4.42041C1.50011 4.32099 1.53966 4.22567 1.60996 4.15537C1.68026 4.08507 1.77558 4.04552 1.875 4.04541H7.5V4.79541H3.375C3.07674 4.79575 2.79079 4.91439 2.57988 5.12529C2.36898 5.3362 2.25034 5.62215 2.25 5.92041V14.1704C2.25034 14.4687 2.36898 14.7546 2.57988 14.9655C2.79079 15.1764 3.07674 15.2951 3.375 15.2954H19.125C19.4233 15.2951 19.7092 15.1764 19.9201 14.9655C20.131 14.7546 20.2497 14.4687 20.25 14.1704V5.92041C20.2497 5.62215 20.131 5.3362 19.9201 5.12529C19.7092 4.91439 19.4233 4.79575 19.125 4.79541H8.25V4.04541H20.625C20.7244 4.04552 20.8197 4.08507 20.89 4.15537C20.9603 4.22567 20.9999 4.32099 21 4.42041V15.6704C20.9999 15.7698 20.9603 15.8651 20.89 15.9354C20.8197 16.0058 20.7244 16.0453 20.625 16.0454H1.875ZM7.875 8.17041C7.97445 8.17041 8.06983 8.13089 8.14016 8.06057C8.21048 7.99024 8.25 7.89487 8.25 7.79541V7.10638C8.94919 7.18365 9.60575 7.48101 10.125 7.95558V13.0454H5.625V7.95558C6.14424 7.48101 6.80081 7.18365 7.5 7.10638V7.79541C7.5 7.89487 7.53952 7.99024 7.60984 8.06057C7.68017 8.13089 7.77555 8.17041 7.875 8.17041ZM7.5 6.35252C6.54942 6.43792 5.65912 6.8548 4.98482 7.53023C4.9145 7.60057 4.875 7.69595 4.875 7.79541V13.4204C4.875 13.5199 4.91452 13.6152 4.98484 13.6856C5.05517 13.7559 5.15055 13.7954 5.25 13.7954H10.5C10.5995 13.7954 10.6948 13.7559 10.7652 13.6856C10.8355 13.6152 10.875 13.5199 10.875 13.4204V7.79541C10.875 7.69595 10.8355 7.60057 10.7652 7.53023C10.0909 6.8548 9.20058 6.43792 8.25 6.35252V5.54541H19.125C19.2244 5.54552 19.3197 5.58507 19.39 5.65537C19.4603 5.72567 19.4999 5.82099 19.5 5.92041V14.1704C19.4999 14.2698 19.4603 14.3651 19.39 14.4354C19.3197 14.5058 19.2244 14.5453 19.125 14.5454H3.375C3.27558 14.5453 3.18026 14.5058 3.10996 14.4354C3.03966 14.3651 3.00011 14.2698 3 14.1704V5.92041C3.00011 5.82099 3.03966 5.72567 3.10996 5.65537C3.18026 5.58507 3.27558 5.54552 3.375 5.54541H7.5V6.35252ZM22.5 15.6704C22.4999 15.7698 22.4603 15.8651 22.39 15.9354C22.3197 16.0058 22.2244 16.0453 22.125 16.0454H21.6855C21.7282 15.925 21.75 15.7982 21.75 15.6704V4.42041C21.75 4.29265 21.7282 4.16582 21.6855 4.04541H22.125C22.2244 4.04552 22.3197 4.08507 22.39 4.15537C22.4603 4.22567 22.4999 4.32099 22.5 4.42041V15.6704Z" fill="#E30D42"/>
<path d="M14.625 19.0454H13.875V19.7954H14.625V19.0454Z" fill="#E30D42"/>
<path d="M16.125 19.0454H15.375V19.7954H16.125V19.0454Z" fill="#E30D42"/>
<path d="M8.73483 9.03027L6.48483 11.2803L7.0152 11.8106L9.2652 9.56064L8.73483 9.03027Z" fill="#E30D42"/>
<path d="M6.75 9.67041C6.95711 9.67041 7.125 9.50252 7.125 9.29541C7.125 9.0883 6.95711 8.92041 6.75 8.92041C6.54289 8.92041 6.375 9.0883 6.375 9.29541C6.375 9.50252 6.54289 9.67041 6.75 9.67041Z" fill="#E30D42"/>
<path d="M9 11.9204C9.20711 11.9204 9.375 11.7525 9.375 11.5454C9.375 11.3383 9.20711 11.1704 9 11.1704C8.79289 11.1704 8.625 11.3383 8.625 11.5454C8.625 11.7525 8.79289 11.9204 9 11.9204Z" fill="#E30D42"/>
</svg>
