<svg width="24" height="25" viewBox="0 0 24 25" fill="none" xmlns="http://www.w3.org/2000/svg">
<g clip-path="url(#clip0)">
<path d="M16.5 18.9502H16.125V15.2002H15.375V18.9502H2.62498L2.62454 11.4502L2.625 11.4502V10.7002C2.42616 10.7004 2.23552 10.7795 2.09492 10.9201C1.95432 11.0607 1.87523 11.2514 1.875 11.4502V18.9502H1.5V11.4502C1.50034 11.1519 1.61898 10.866 1.82988 10.6551C2.04079 10.4442 2.32674 10.3255 2.625 10.3252V9.5752C2.12789 9.57576 1.65131 9.77349 1.2998 10.125C0.94829 10.4765 0.750565 10.9531 0.75 11.4502V19.3252C0.750565 19.8223 0.94829 20.2989 1.2998 20.6504C1.65131 21.0019 2.12789 21.1996 2.625 21.2002H7.5V21.5752C7.49966 21.8735 7.38102 22.1594 7.17012 22.3703C6.95921 22.5812 6.67326 22.6999 6.375 22.7002C6.27554 22.7002 6.18016 22.7397 6.10983 22.81C6.03951 22.8804 6 22.9757 6 23.0752C6 23.1747 6.03951 23.27 6.10983 23.3404C6.18016 23.4107 6.27554 23.4502 6.375 23.4502H11.625C11.7245 23.4502 11.8198 23.4107 11.8902 23.3404C11.9605 23.27 12 23.1747 12 23.0752C12 22.9757 11.9605 22.8804 11.8902 22.81C11.8198 22.7397 11.7245 22.7002 11.625 22.7002C11.3267 22.6999 11.0408 22.5812 10.8299 22.3703C10.619 22.1594 10.5003 21.8735 10.5 21.5752V21.2002H15.375C15.8721 21.1996 16.3487 21.0019 16.7002 20.6504C17.0517 20.2989 17.2494 19.8223 17.25 19.3252V15.2002H16.5V18.9502ZM10.1259 22.7002H7.87413C8.11847 22.3761 8.25043 21.9811 8.25 21.5752V21.2002H9.75V21.5752C9.74957 21.9811 9.88153 22.3761 10.1259 22.7002ZM15.375 20.4502H2.625C2.39245 20.4499 2.16568 20.3777 1.97581 20.2434C1.78595 20.1091 1.64227 19.9194 1.56451 19.7002H16.4355C16.3577 19.9194 16.2141 20.1091 16.0242 20.2434C15.8343 20.3777 15.6076 20.4499 15.375 20.4502Z" fill="#E30D42"/>
<path d="M22.125 0.950195H12.375C12.0767 0.950533 11.7908 1.06917 11.5799 1.28007C11.369 1.49098 11.2503 1.77693 11.25 2.0752V10.3252C11.2503 10.6235 11.369 10.9094 11.5799 11.1203C11.7908 11.3312 12.0767 11.4499 12.375 11.4502H22.125C22.4233 11.4499 22.7092 11.3312 22.9201 11.1203C23.131 10.9094 23.2497 10.6235 23.25 10.3252V2.0752C23.2497 1.77693 23.131 1.49098 22.9201 1.28007C22.7092 1.06917 22.4233 0.950533 22.125 0.950195ZM22.5 10.3252C22.4999 10.4246 22.4603 10.5199 22.39 10.5902C22.3197 10.6605 22.2244 10.7001 22.125 10.7002H12.375C12.2756 10.7001 12.1803 10.6605 12.11 10.5902C12.0397 10.5199 12.0001 10.4246 12 10.3252V2.0752C12.0001 1.97577 12.0397 1.88046 12.11 1.81016C12.1803 1.73985 12.2756 1.70031 12.375 1.7002H22.125C22.2244 1.70031 22.3197 1.73985 22.39 1.81016C22.4603 1.88046 22.4999 1.97577 22.5 2.0752V10.3252Z" fill="#E30D42"/>
<path d="M12.75 3.2002H21.75V3.9502H12.75V3.2002Z" fill="#E30D42"/>
<path d="M13.125 2.8252C13.3321 2.8252 13.5 2.6573 13.5 2.4502C13.5 2.24309 13.3321 2.0752 13.125 2.0752C12.9179 2.0752 12.75 2.24309 12.75 2.4502C12.75 2.6573 12.9179 2.8252 13.125 2.8252Z" fill="#E30D42"/>
<path d="M14.25 2.8252C14.4571 2.8252 14.625 2.6573 14.625 2.4502C14.625 2.24309 14.4571 2.0752 14.25 2.0752C14.0429 2.0752 13.875 2.24309 13.875 2.4502C13.875 2.6573 14.0429 2.8252 14.25 2.8252Z" fill="#E30D42"/>
<path d="M15.375 2.8252C15.5821 2.8252 15.75 2.6573 15.75 2.4502C15.75 2.24309 15.5821 2.0752 15.375 2.0752C15.1679 2.0752 15 2.24309 15 2.4502C15 2.6573 15.1679 2.8252 15.375 2.8252Z" fill="#E30D42"/>
<path d="M16.5 4.7002H13.125C13.0255 4.7002 12.9302 4.73971 12.8598 4.81003C12.7895 4.88036 12.75 4.97574 12.75 5.0752V8.4502C12.75 8.54965 12.7895 8.64503 12.8598 8.71536C12.9302 8.78569 13.0255 8.82519 13.125 8.8252H16.5C16.5995 8.82519 16.6948 8.78569 16.7652 8.71536C16.8355 8.64503 16.875 8.54965 16.875 8.4502V5.0752C16.875 4.97574 16.8355 4.88036 16.7652 4.81003C16.6948 4.73971 16.5995 4.7002 16.5 4.7002ZM16.125 8.0752H13.5V5.4502H16.125V8.0752Z" fill="#E30D42"/>
<path d="M21.375 4.7002H18C17.9005 4.7002 17.8052 4.73971 17.7348 4.81003C17.6645 4.88036 17.625 4.97574 17.625 5.0752V8.4502C17.625 8.54965 17.6645 8.64503 17.7348 8.71536C17.8052 8.78569 17.9005 8.82519 18 8.8252H21.375C21.4745 8.82519 21.5698 8.78569 21.6402 8.71536C21.7105 8.64503 21.75 8.54965 21.75 8.4502V5.0752C21.75 4.97574 21.7105 4.88036 21.6402 4.81003C21.5698 4.73971 21.4745 4.7002 21.375 4.7002ZM21 8.0752H18.375V5.4502H21V8.0752Z" fill="#E30D42"/>
<path d="M13.5 9.2002H15V9.9502H13.5V9.2002Z" fill="#E30D42"/>
<path d="M15.375 9.2002H16.125V9.9502H15.375V9.2002Z" fill="#E30D42"/>
<path d="M18.375 9.2002H19.875V9.9502H18.375V9.2002Z" fill="#E30D42"/>
<path d="M20.25 9.2002H21V9.9502H20.25V9.2002Z" fill="#E30D42"/>
<path d="M18.375 13.3252C18.3749 13.4246 18.3353 13.5199 18.265 13.5902C18.1947 13.6605 18.0994 13.7001 18 13.7002H8.25C8.15058 13.7001 8.05526 13.6605 7.98496 13.5902C7.91466 13.5199 7.87511 13.4246 7.875 13.3252V5.0752C7.87511 4.97577 7.91466 4.88046 7.98496 4.81016C8.05526 4.73985 8.15058 4.70031 8.25 4.7002H10.5V3.9502H8.25C7.95173 3.95053 7.66578 4.06917 7.45488 4.28007C7.24397 4.49098 7.12534 4.77693 7.125 5.0752V13.3252C7.12534 13.6235 7.24397 13.9094 7.45488 14.1203C7.66578 14.3312 7.95173 14.4499 8.25 14.4502H18C18.2983 14.4499 18.5842 14.3312 18.7951 14.1203C19.006 13.9094 19.1247 13.6235 19.125 13.3252V12.2002H18.375V13.3252Z" fill="#E30D42"/>
<path d="M8.625 6.2002H10.5V6.9502H8.625V6.2002Z" fill="#E30D42"/>
<path d="M9 5.8252C9.20711 5.8252 9.375 5.6573 9.375 5.4502C9.375 5.24309 9.20711 5.0752 9 5.0752C8.79289 5.0752 8.625 5.24309 8.625 5.4502C8.625 5.6573 8.79289 5.8252 9 5.8252Z" fill="#E30D42"/>
<path d="M10.125 5.8252C10.3321 5.8252 10.5 5.6573 10.5 5.4502C10.5 5.24309 10.3321 5.0752 10.125 5.0752C9.91789 5.0752 9.75 5.24309 9.75 5.4502C9.75 5.6573 9.91789 5.8252 10.125 5.8252Z" fill="#E30D42"/>
<path d="M4.125 18.2002H13.875C14.1733 18.1999 14.4592 18.0812 14.6701 17.8703C14.881 17.6594 14.9997 17.3735 15 17.0752V15.2002H14.25V17.0752C14.2499 17.1746 14.2103 17.2699 14.14 17.3402C14.0697 17.4105 13.9744 17.4501 13.875 17.4502H4.125C4.02558 17.4501 3.93026 17.4105 3.85996 17.3402C3.78966 17.2699 3.75011 17.1746 3.75 17.0752V8.8252C3.75011 8.72577 3.78966 8.63046 3.85996 8.56016C3.93026 8.48985 4.02558 8.45031 4.125 8.4502H6.375V7.7002H4.125C3.82673 7.70053 3.54078 7.81917 3.32988 8.03007C3.11897 8.24098 3.00034 8.52693 3 8.8252V17.0752C3.00034 17.3735 3.11897 17.6594 3.32988 17.8703C3.54078 18.0812 3.82673 18.1999 4.125 18.2002Z" fill="#E30D42"/>
<path d="M4.5 9.9502H6.375V10.7002H4.5V9.9502Z" fill="#E30D42"/>
<path d="M4.875 9.5752C5.08211 9.5752 5.25 9.4073 5.25 9.2002C5.25 8.99309 5.08211 8.8252 4.875 8.8252C4.66789 8.8252 4.5 8.99309 4.5 9.2002C4.5 9.4073 4.66789 9.5752 4.875 9.5752Z" fill="#E30D42"/>
<path d="M6 9.5752C6.20711 9.5752 6.375 9.4073 6.375 9.2002C6.375 8.99309 6.20711 8.8252 6 8.8252C5.79289 8.8252 5.625 8.99309 5.625 9.2002C5.625 9.4073 5.79289 9.5752 6 9.5752Z" fill="#E30D42"/>
</g>
<defs>
<clipPath id="clip0">
<rect width="24" height="24" fill="white" transform="translate(0 0.200195)"/>
</clipPath>
</defs>
</svg>
