<svg width="25" height="25" viewBox="0 0 25 25" fill="none" xmlns="http://www.w3.org/2000/svg">
<g clip-path="url(#clip0)">
<path d="M23.55 4.19204H22.632C22.71 3.93247 22.7498 3.66294 22.75 3.39204V1.79204C22.7492 1.12954 22.2125 0.592822 21.55 0.592041H15.55C14.4459 0.593408 13.5514 1.48794 13.55 2.59204V2.99204H11.95V2.59204C11.9486 1.48794 11.0541 0.593408 9.95 0.592041H3.95C3.2875 0.592822 2.75078 1.12954 2.75 1.79204V3.39204C2.7502 3.66294 2.79004 3.93247 2.86797 4.19204H1.95C1.2875 4.19282 0.750781 4.72954 0.75 5.39204V6.99204C0.750781 7.65454 1.2875 8.19126 1.95 8.19204V23.392C1.95078 24.0545 2.4875 24.5913 3.15 24.592H22.35C23.0125 24.5913 23.5492 24.0545 23.55 23.392V8.19204C24.2125 8.19126 24.7492 7.65454 24.75 6.99204V5.39204C24.7492 4.72954 24.2125 4.19282 23.55 4.19204ZM14.35 2.59204C14.3508 1.92954 14.8875 1.39282 15.55 1.39204H21.55C21.7709 1.39224 21.9498 1.57114 21.95 1.79204V3.39204C21.9486 4.49614 21.0541 5.39067 19.95 5.39204H16.35V4.59204C16.3508 3.92954 16.8875 3.39282 17.55 3.39204H21.15V2.59204H17.55C16.4459 2.59341 15.5514 3.48794 15.55 4.59204V5.39204H14.35V2.59204ZM7.76406 6.19204H11.9676L7.68242 12.1252L7.2207 10.7393C7.11211 10.4124 6.80625 10.1917 6.46172 10.192H5.09727L7.76406 6.19204ZM12.75 6.47524L13.4121 7.39204H12.0879L12.75 6.47524ZM13.5324 6.19204H17.7359L20.4027 10.192H19.0383C18.6939 10.1917 18.3881 10.4122 18.2797 10.7389L17.8172 12.1249L13.5324 6.19204ZM13.55 3.79204V5.39204H11.95V3.79204H13.55ZM3.55 1.79204C3.5502 1.57114 3.7291 1.39224 3.95 1.39204H9.95C10.6125 1.39282 11.1492 1.92954 11.15 2.59204V5.39204H9.95V4.59204C9.94863 3.48794 9.0541 2.59341 7.95 2.59204H4.35V3.39204H7.95C8.6125 3.39282 9.14922 3.92954 9.15 4.59204V5.39204H5.55C4.4459 5.39067 3.55137 4.49614 3.55 3.39204V1.79204ZM1.55 6.99204V5.39204C1.5502 5.17114 1.7291 4.99224 1.95 4.99204H3.25566C3.77813 5.74321 4.63496 6.19126 5.55 6.19204H6.80254L6.00254 7.39204H1.95C1.7291 7.39185 1.5502 7.21294 1.55 6.99204ZM3.15 23.792C2.9291 23.7918 2.7502 23.6129 2.75 23.392V8.19204H5.46914L4.43164 9.74829C4.26797 9.9938 4.25273 10.3094 4.39199 10.5694C4.53125 10.8295 4.80234 10.992 5.09727 10.992H6.46172L6.92383 12.3784C7.01816 12.6635 7.26465 12.8713 7.56172 12.9159C7.60215 12.9221 7.64297 12.9252 7.68398 12.9252C7.94063 12.9252 8.18145 12.8018 8.33125 12.5936L10.75 9.24458V23.792H3.15ZM11.55 23.792V8.19204H13.95V23.792H11.55ZM22.75 23.392C22.7498 23.6129 22.5709 23.7918 22.35 23.792H14.75V9.24458L17.1688 12.5936C17.3184 12.802 17.5594 12.9254 17.816 12.9252C17.857 12.9252 17.8979 12.9221 17.9383 12.9159C18.2354 12.8713 18.4818 12.6635 18.5762 12.3784L19.0383 10.992H20.4027C20.6977 10.992 20.9688 10.8295 21.108 10.5694C21.2473 10.3094 21.232 9.9938 21.0684 9.74829L20.0309 8.19204H22.75V23.392ZM23.95 6.99204C23.9498 7.21294 23.7709 7.39185 23.55 7.39204H19.4975L18.6975 6.19204H19.95C20.865 6.19146 21.7219 5.74321 22.2443 4.99204H23.55C23.7709 4.99224 23.9498 5.17114 23.95 5.39204V6.99204Z" fill="#E30D42"/>
</g>
<defs>
<clipPath id="clip0">
<rect width="24" height="24" fill="white" transform="translate(0.75 0.592041)"/>
</clipPath>
</defs>
</svg>
