<svg width="24" height="25" viewBox="0 0 24 25" fill="none" xmlns="http://www.w3.org/2000/svg">
<path d="M1.125 23.5193H17.625C17.6742 23.5193 17.723 23.5096 17.7685 23.4907C17.814 23.4719 17.8553 23.4443 17.8902 23.4095C17.925 23.3746 17.9526 23.3333 17.9715 23.2878C17.9903 23.2423 18 23.1935 18 23.1443V10.7693H17.25V12.114L12.8598 16.5041L13.3902 17.0344L17.25 13.1746V14.739L16.2348 15.7541L16.7652 16.2844L17.25 15.7996V17.364L16.2348 18.3791L16.7652 18.9094L17.25 18.4246V22.7693H1.5V10.0193H6.75V14.5193C6.75 14.5935 6.77199 14.666 6.8132 14.7276C6.8544 14.7893 6.91297 14.8374 6.98149 14.8657C7.05001 14.8941 7.12541 14.9016 7.19816 14.8871C7.2709 14.8726 7.33772 14.8369 7.39016 14.7844L8.25 13.9246L9.10984 14.7844C9.18017 14.8548 9.27555 14.8943 9.375 14.8943C9.47445 14.8943 9.56983 14.8548 9.64016 14.7844L10.5 13.9246L11.3598 14.7844C11.4123 14.8369 11.4791 14.8726 11.5518 14.8871C11.6246 14.9016 11.7 14.8941 11.7685 14.8657C11.837 14.8374 11.8956 14.7893 11.9368 14.7276C11.978 14.666 12 14.5935 12 14.5193V10.0193H16.5V9.26929H12V4.01929H14.25V3.26929H1.125C1.07575 3.26929 1.02699 3.27898 0.981492 3.29783C0.935994 3.31667 0.894654 3.3443 0.859832 3.37912C0.82501 3.41394 0.797387 3.45528 0.778542 3.50078C0.759697 3.54628 0.749999 3.59504 0.75 3.64429V23.1443C0.749999 23.1935 0.759697 23.2423 0.778542 23.2878C0.797387 23.3333 0.82501 23.3746 0.859832 23.4095C0.894654 23.4443 0.935994 23.4719 0.981492 23.4907C1.02699 23.5096 1.07575 23.5193 1.125 23.5193ZM11.25 13.614L10.7652 13.1291C10.6948 13.0588 10.5995 13.0193 10.5 13.0193C10.4005 13.0193 10.3052 13.0588 10.2348 13.1291L9.375 13.989L8.51516 13.1291C8.44483 13.0588 8.34945 13.0193 8.25 13.0193C8.15055 13.0193 8.05517 13.0588 7.98484 13.1291L7.5 13.614V10.0193H11.25V13.614ZM11.25 9.26929H7.5V4.01929H11.25V9.26929ZM6.75 4.01929V9.26929H1.5V4.01929H6.75Z" fill="#E30D42"/>
<path d="M2.625 11.5193V19.0193C2.625 19.0685 2.6347 19.1173 2.65354 19.1628C2.67239 19.2083 2.70001 19.2496 2.73483 19.2845C2.76965 19.3193 2.81099 19.3469 2.85649 19.3657C2.90199 19.3846 2.95075 19.3943 3 19.3943H9C9.04925 19.3943 9.09801 19.3846 9.14351 19.3657C9.18901 19.3469 9.23035 19.3193 9.26517 19.2845C9.29999 19.2496 9.32761 19.2083 9.34646 19.1628C9.3653 19.1173 9.375 19.0685 9.375 19.0193V15.6443H8.625V18.6443H3.375V11.8943H6V11.1443H3C2.95075 11.1443 2.90199 11.154 2.85649 11.1728C2.81099 11.1917 2.76965 11.2193 2.73483 11.2541C2.70001 11.2889 2.67239 11.3303 2.65354 11.3758C2.6347 11.4213 2.625 11.47 2.625 11.5193Z" fill="#E30D42"/>
<path d="M12.1098 17.2542L10.9848 18.3792C10.95 18.414 10.9224 18.4553 10.9035 18.5008C10.8847 18.5463 10.875 18.5951 10.875 18.6443C10.875 18.6936 10.8847 18.7423 10.9035 18.7878C10.9224 18.8333 10.95 18.8747 10.9848 18.9095L13.6098 21.5345C13.6447 21.5693 13.686 21.5969 13.7315 21.6158C13.777 21.6346 13.8258 21.6443 13.875 21.6443C13.9243 21.6443 13.973 21.6346 14.0185 21.6158C14.064 21.5969 14.1053 21.5693 14.1402 21.5345L15.2652 20.4095L14.7348 19.8792L13.875 20.739L11.7803 18.6443L12.6402 17.7845L12.1098 17.2542Z" fill="#E30D42"/>
<path d="M15.1062 19.5037L15.8561 18.7538L16.3863 19.284L15.6365 20.0339L15.1062 19.5037Z" fill="#E30D42"/>
<path d="M13.2316 18.7537L15.4813 16.504L16.0115 17.0343L13.7619 19.2839L13.2316 18.7537Z" fill="#E30D42"/>
<path d="M4.125 17.1443H4.875V17.8943H4.125V17.1443Z" fill="#E30D42"/>
<path d="M5.625 17.1443H7.875V17.8943H5.625V17.1443Z" fill="#E30D42"/>
<path d="M4.125 15.6443H5.625V16.3943H4.125V15.6443Z" fill="#E30D42"/>
<path d="M6.375 15.6443H7.125V16.3943H6.375V15.6443Z" fill="#E30D42"/>
<path d="M4.125 14.1443H6V14.8943H4.125V14.1443Z" fill="#E30D42"/>
<path d="M4.125 12.6443H6V13.3943H4.125V12.6443Z" fill="#E30D42"/>
<path d="M21.375 1.01929H16.875C16.3779 1.01985 15.9013 1.21757 15.5498 1.56908C15.1983 1.92059 15.0006 2.39718 15 2.89429V7.01929C15 7.07185 15.011 7.12383 15.0324 7.17185C15.0538 7.21987 15.0851 7.26286 15.1241 7.29802L18.8741 10.673C18.943 10.735 19.0324 10.7693 19.125 10.7693C19.2176 10.7693 19.307 10.735 19.3759 10.673L23.1259 7.29802C23.1649 7.26286 23.1962 7.21987 23.2176 7.17185C23.239 7.12383 23.25 7.07185 23.25 7.01929V2.89429C23.2494 2.39718 23.0517 1.92059 22.7002 1.56908C22.3487 1.21757 21.8721 1.01985 21.375 1.01929ZM22.5 6.85227L19.125 9.88979L15.75 6.85227V2.89429C15.7503 2.59602 15.869 2.31007 16.0799 2.09917C16.2908 1.88826 16.5767 1.76963 16.875 1.76929H21.375C21.6733 1.76963 21.9592 1.88826 22.1701 2.09917C22.381 2.31007 22.4997 2.59602 22.5 2.89429V6.85227Z" fill="#E30D42"/>
<path d="M18.75 5.73899L17.8902 4.87915L17.3599 5.40947L18.4849 6.53447C18.5197 6.56929 18.561 6.59692 18.6065 6.61576C18.652 6.63461 18.7008 6.64431 18.75 6.64431C18.7993 6.64431 18.848 6.63461 18.8935 6.61576C18.939 6.59692 18.9804 6.56929 19.0152 6.53447L21.2652 4.28447L20.7349 3.75415L18.75 5.73899Z" fill="#E30D42"/>
</svg>
