<svg width="25" height="26" viewBox="0 0 25 26" fill="none" xmlns="http://www.w3.org/2000/svg">
<g clip-path="url(#clip0)">
<path d="M15.75 3.99854C15.9571 3.99854 16.125 3.82365 16.125 3.60791C16.125 3.39217 15.9571 3.21729 15.75 3.21729C15.5429 3.21729 15.375 3.39217 15.375 3.60791C15.375 3.82365 15.5429 3.99854 15.75 3.99854Z" fill="#E30D42"/>
<path d="M17.25 3.99854C17.4571 3.99854 17.625 3.82365 17.625 3.60791C17.625 3.39217 17.4571 3.21729 17.25 3.21729C17.0429 3.21729 16.875 3.39217 16.875 3.60791C16.875 3.82365 17.0429 3.99854 17.25 3.99854Z" fill="#E30D42"/>
<path d="M11.625 3.21729H14.625V3.99854H11.625V3.21729Z" fill="#E30D42"/>
<path d="M11.625 22.7485H14.625V23.5298H11.625V22.7485Z" fill="#E30D42"/>
<path d="M23.625 11.811H19.125V2.82666C19.1247 2.51597 19.006 2.2181 18.7951 1.9984C18.5842 1.77871 18.2983 1.65513 18 1.65479H8.25C7.95173 1.65513 7.66578 1.77871 7.45487 1.9984C7.24397 2.2181 7.12533 2.51597 7.125 2.82666V6.34229H1.875C1.82575 6.34228 1.77699 6.35239 1.73149 6.37202C1.68599 6.39165 1.64465 6.42042 1.60983 6.45669C1.57501 6.49297 1.54739 6.53603 1.52854 6.58342C1.5097 6.63082 1.5 6.68161 1.5 6.73291V14.5454C1.5 14.5967 1.5097 14.6475 1.52854 14.6949C1.54739 14.7423 1.57501 14.7854 1.60983 14.8216C1.64465 14.8579 1.68599 14.8867 1.73149 14.9063C1.77699 14.9259 1.82575 14.936 1.875 14.936H7.125V23.9204C7.12533 24.2311 7.24397 24.529 7.45487 24.7487C7.66578 24.9684 7.95173 25.0919 8.25 25.0923H18C18.2983 25.0919 18.5842 24.9684 18.7951 24.7487C19.006 24.529 19.1247 24.2311 19.125 23.9204V20.4048H23.625C23.6742 20.4048 23.723 20.3947 23.7685 20.3751C23.814 20.3554 23.8553 20.3267 23.8902 20.2904C23.925 20.2541 23.9526 20.211 23.9715 20.1636C23.9903 20.1163 24 20.0655 24 20.0142V12.2017C24 12.1504 23.9903 12.0996 23.9715 12.0522C23.9526 12.0048 23.925 11.9617 23.8902 11.9254C23.8553 11.8892 23.814 11.8604 23.7685 11.8408C23.723 11.8211 23.6742 11.811 23.625 11.811ZM23.25 14.9077C22.6896 14.8225 22.1705 14.5511 21.77 14.1339C21.3695 13.7167 21.109 13.1761 21.0272 12.5923H23.25V14.9077ZM8.25 2.43604H18C18.0994 2.43615 18.1947 2.47735 18.265 2.55058C18.3353 2.62381 18.3749 2.7231 18.375 2.82666V4.84698C18.2546 4.80246 18.1278 4.77973 18 4.77979H8.25C8.12224 4.77973 7.9954 4.80246 7.875 4.84698V2.82666C7.87511 2.7231 7.91466 2.62381 7.98496 2.55058C8.05526 2.47735 8.15058 2.43615 8.25 2.43604ZM18 24.311H8.25C8.15058 24.3109 8.05526 24.2697 7.98496 24.1965C7.91466 24.1233 7.87511 24.024 7.875 23.9204V21.9001C7.9954 21.9446 8.12224 21.9673 8.25 21.9673H18C18.1278 21.9673 18.2546 21.9446 18.375 21.9001V23.9204C18.3749 24.024 18.3353 24.1233 18.265 24.1965C18.1947 24.2697 18.0994 24.3109 18 24.311ZM18.375 20.7954C18.3749 20.899 18.3353 20.9983 18.265 21.0715C18.1947 21.1447 18.0994 21.1859 18 21.186H8.25C8.15058 21.1859 8.05526 21.1447 7.98496 21.0715C7.91466 20.9983 7.87511 20.899 7.875 20.7954V14.936H10.125V14.1548H2.25V7.12354H10.125V6.34229H7.875V5.95166C7.87511 5.8481 7.91466 5.74881 7.98496 5.67558C8.05526 5.60235 8.15058 5.56115 8.25 5.56104H18C18.0994 5.56115 18.1947 5.60235 18.265 5.67558C18.3353 5.74881 18.3749 5.8481 18.375 5.95166V11.811H15.375V12.5923H20.2713C20.3575 13.3843 20.699 14.1224 21.24 14.686C21.7811 15.2496 22.4897 15.6053 23.25 15.6951V16.5208C22.4897 16.6105 21.7811 16.9662 21.24 17.5298C20.699 18.0934 20.3575 18.8315 20.2713 19.6235H15.375V20.4048H18.375V20.7954ZM21.0272 19.6235C21.109 19.0398 21.3695 18.4991 21.77 18.0819C22.1705 17.6647 22.6896 17.3934 23.25 17.3081V19.6235H21.0272Z" fill="#E30D42"/>
<path d="M7.125 7.90479H3.375C3.32575 7.90478 3.27699 7.91489 3.23149 7.93452C3.18599 7.95415 3.14465 7.98292 3.10983 8.01919C3.07501 8.05547 3.04739 8.09853 3.02854 8.14592C3.0097 8.19332 3 8.24411 3 8.29541V11.4204C3 11.4717 3.0097 11.5225 3.02854 11.5699C3.04739 11.6173 3.07501 11.6604 3.10983 11.6966C3.14465 11.7329 3.18599 11.7617 3.23149 11.7813C3.27699 11.8009 3.32575 11.811 3.375 11.811H7.125C7.17425 11.811 7.22301 11.8009 7.26851 11.7813C7.31401 11.7617 7.35535 11.7329 7.39017 11.6966C7.42499 11.6604 7.45261 11.6173 7.47146 11.5699C7.4903 11.5225 7.5 11.4717 7.5 11.4204V8.29541C7.5 8.24411 7.4903 8.19332 7.47146 8.14592C7.45261 8.09853 7.42499 8.05547 7.39017 8.01919C7.35535 7.98292 7.31401 7.95415 7.26851 7.93452C7.22301 7.91489 7.17425 7.90478 7.125 7.90479ZM4.5 8.68604V9.46729H3.75V8.68604H4.5ZM6.75 11.0298H3.75V10.2485H4.875C4.92425 10.2485 4.97301 10.2384 5.01851 10.2188C5.06401 10.1992 5.10535 10.1704 5.14017 10.1341C5.17499 10.0979 5.20261 10.0548 5.22146 10.0074C5.2403 9.96 5.25 9.90921 5.25 9.85791V8.68604H6.75V11.0298Z" fill="#E30D42"/>
<path d="M3 12.5923H3.75V13.3735H3V12.5923Z" fill="#E30D42"/>
<path d="M4.5 12.5923H6.75V13.3735H4.5V12.5923Z" fill="#E30D42"/>
<path d="M9 7.90479H11.25V8.68604H9V7.90479Z" fill="#E30D42"/>
<path d="M12 7.90479H12.75V8.68604H12V7.90479Z" fill="#E30D42"/>
<path d="M9 9.46729H11.25V10.2485H9V9.46729Z" fill="#E30D42"/>
<path d="M12 9.46729H12.75V10.2485H12V9.46729Z" fill="#E30D42"/>
<path d="M9 11.0298H11.25V11.811H9V11.0298Z" fill="#E30D42"/>
<path d="M12 11.0298H12.75V11.811H12V11.0298Z" fill="#E30D42"/>
<path d="M9 12.5923H11.25V13.3735H9V12.5923Z" fill="#E30D42"/>
<path d="M14.25 18.061H16.5V18.8423H14.25V18.061Z" fill="#E30D42"/>
<path d="M12.75 18.061H13.5V18.8423H12.75V18.061Z" fill="#E30D42"/>
<path d="M14.25 16.4985H16.5V17.2798H14.25V16.4985Z" fill="#E30D42"/>
<path d="M12.75 16.4985H13.5V17.2798H12.75V16.4985Z" fill="#E30D42"/>
<path d="M14.25 14.936H16.5V15.7173H14.25V14.936Z" fill="#E30D42"/>
<path d="M12.75 14.936H13.5V15.7173H12.75V14.936Z" fill="#E30D42"/>
<path d="M12.75 13.3735H13.5V14.1548H12.75V13.3735Z" fill="#E30D42"/>
<path d="M12 12.5923H12.75V13.3735H12V12.5923Z" fill="#E30D42"/>
<path d="M14.25 13.3735H16.5V14.1548H14.25V13.3735Z" fill="#E30D42"/>
<path d="M19.875 16.1081C19.8742 15.3847 19.5981 14.6913 19.1071 14.1798C18.6161 13.6684 17.9504 13.3807 17.256 13.3799V14.1611C17.7517 14.1611 18.2271 14.3663 18.5776 14.7314C18.9281 15.0965 19.125 15.5917 19.125 16.1081C19.125 16.6244 18.9281 17.1196 18.5776 17.4847C18.2271 17.8499 17.7517 18.055 17.256 18.055V18.8362C17.9504 18.8354 18.6161 18.5477 19.1071 18.0363C19.5981 17.5248 19.8742 16.8314 19.875 16.1081Z" fill="#E30D42"/>
</g>
<defs>
<clipPath id="clip0">
<rect width="24" height="25" fill="white" transform="translate(0.75 0.873535)"/>
</clipPath>
</defs>
</svg>
