<svg width="24" height="25" viewBox="0 0 24 25" fill="none" xmlns="http://www.w3.org/2000/svg">
<g clip-path="url(#clip0)">
<path d="M1.125 22.1409H5.5023C6.52307 22.87 7.74556 23.2632 9 23.2659H12.375C12.555 23.2659 12.7324 23.2228 12.8923 23.1401C13.0521 23.0573 13.1898 22.9375 13.2937 22.7905C13.3976 22.6435 13.4647 22.4737 13.4894 22.2954C13.5141 22.1172 13.4956 21.9355 13.4355 21.7659H21.375C21.4242 21.7659 21.473 21.7562 21.5185 21.7373C21.564 21.7185 21.6053 21.6909 21.6402 21.656C21.675 21.6212 21.7026 21.5799 21.7215 21.5344C21.7403 21.4889 21.75 21.4401 21.75 21.3909V14.2659H22.875C22.9429 14.2659 23.0095 14.2474 23.0677 14.2126C23.1259 14.1777 23.1736 14.1277 23.2056 14.0678C23.2376 14.008 23.2528 13.9406 23.2496 13.8728C23.2463 13.805 23.2247 13.7393 23.187 13.6829L21.687 11.4329C21.6528 11.3815 21.6064 11.3394 21.5519 11.3102C21.4975 11.2811 21.4367 11.2659 21.375 11.2659H19.9016L19.5413 10.9055C19.479 10.8432 19.4368 10.7637 19.4201 10.6773C19.4033 10.5908 19.4128 10.5013 19.4473 10.4202L19.4502 10.4132C19.4834 10.3325 19.54 10.2634 19.6126 10.2149C19.6853 10.1664 19.7707 10.1406 19.8581 10.1409H21.375C21.4242 10.1409 21.473 10.1312 21.5185 10.1123C21.564 10.0935 21.6053 10.0659 21.6402 10.031C21.675 9.99621 21.7026 9.95487 21.7215 9.90938C21.7403 9.86388 21.75 9.81511 21.75 9.76587V6.76587C21.75 6.71662 21.7403 6.66786 21.7215 6.62236C21.7026 6.57686 21.675 6.53552 21.6402 6.5007C21.6053 6.46588 21.564 6.43826 21.5185 6.41941C21.473 6.40057 21.4242 6.39087 21.375 6.39087H19.8581C19.7708 6.39115 19.6854 6.36545 19.6129 6.31704C19.5403 6.26863 19.4837 6.19971 19.4504 6.11905L19.4458 6.10781C19.4121 6.02712 19.4032 5.93822 19.4202 5.85245C19.4372 5.76668 19.4794 5.68791 19.5413 5.6262L20.6139 4.55354C20.6488 4.51872 20.6764 4.47739 20.6952 4.43189C20.7141 4.38639 20.7238 4.33763 20.7238 4.28838C20.7238 4.23914 20.7141 4.19037 20.6952 4.14488C20.6764 4.09938 20.6488 4.05804 20.6139 4.02322L18.4926 1.90192C18.4578 1.8671 18.4165 1.83948 18.371 1.82063C18.3255 1.80179 18.2767 1.79209 18.2275 1.79209C18.1782 1.79209 18.1295 1.80179 18.084 1.82063C18.0385 1.83948 17.9971 1.8671 17.9623 1.90192L16.8897 2.97456C16.8279 3.03655 16.749 3.07874 16.6632 3.09572C16.5773 3.11271 16.4884 3.10372 16.4076 3.06991L16.3974 3.06565C16.3166 3.03242 16.2475 2.97588 16.199 2.90324C16.1505 2.8306 16.1247 2.74515 16.125 2.65781V1.14087C16.125 1.09162 16.1153 1.04286 16.0965 0.997361C16.0776 0.951863 16.05 0.910523 16.0152 0.875701C15.9803 0.840879 15.939 0.813256 15.8935 0.794411C15.848 0.775566 15.7992 0.765868 15.75 0.765869H12.75C12.7008 0.765868 12.652 0.775566 12.6065 0.794411C12.561 0.813256 12.5197 0.840879 12.4848 0.875701C12.45 0.910523 12.4224 0.951863 12.4035 0.997361C12.3847 1.04286 12.375 1.09162 12.375 1.14087V2.65781C12.3752 2.7452 12.3494 2.83069 12.3009 2.90335C12.2523 2.97601 12.1832 3.03256 12.1024 3.06577L12.0919 3.07009C12.0113 3.10379 11.9224 3.1127 11.8366 3.09568C11.7508 3.07867 11.672 3.0365 11.6103 2.97456L10.5377 1.90192C10.4673 1.8316 10.372 1.79209 10.2725 1.79209C10.1731 1.79209 10.0777 1.8316 10.0074 1.90192L7.88605 4.02322C7.85123 4.05804 7.8236 4.09938 7.80476 4.14488C7.78591 4.19037 7.77621 4.23914 7.77621 4.28838C7.77621 4.33763 7.78591 4.38639 7.80476 4.43189C7.8236 4.47739 7.85123 4.51872 7.88605 4.55354L8.95869 5.6262C9.02097 5.6885 9.06319 5.768 9.07994 5.85448C9.09668 5.94096 9.08719 6.03048 9.05267 6.11152L9.04978 6.1185C9.01655 6.19928 8.96001 6.26833 8.88737 6.31684C8.81473 6.36535 8.72929 6.39112 8.64194 6.39087H7.125C7.07575 6.39087 7.02699 6.40057 6.98149 6.41941C6.93599 6.43826 6.89465 6.46588 6.85983 6.5007C6.82501 6.53552 6.79739 6.57686 6.77854 6.62236C6.7597 6.66786 6.75 6.71662 6.75 6.76587V9.76587C6.75 9.81511 6.7597 9.86388 6.77854 9.90938C6.79739 9.95487 6.82501 9.99621 6.85983 10.031C6.89465 10.0659 6.93599 10.0935 6.98149 10.1123C7.02699 10.1312 7.07575 10.1409 7.125 10.1409H8.64194C8.72919 10.1406 8.81455 10.1663 8.88714 10.2147C8.95974 10.2631 9.01627 10.332 9.04955 10.4127L9.05422 10.4239C9.08793 10.5046 9.09684 10.5935 9.07983 10.6793C9.06281 10.7651 9.02064 10.8438 8.95869 10.9055L8.59836 11.2659H6.375C6.31326 11.2659 6.25248 11.2811 6.19806 11.3102C6.14363 11.3394 6.09723 11.3815 6.06299 11.4329L4.56299 13.6829C4.52534 13.7393 4.50372 13.805 4.50045 13.8728C4.49717 13.9406 4.51235 14.008 4.54438 14.0678C4.57641 14.1277 4.62407 14.1777 4.6823 14.2126C4.74053 14.2474 4.80713 14.2659 4.875 14.2659H6V18.393C5.96957 18.3923 5.93928 18.3909 5.90874 18.3909H4.91215L1.19854 17.6481C1.14414 17.6373 1.088 17.6386 1.03417 17.652C0.980341 17.6655 0.930166 17.6907 0.887261 17.7259C0.844355 17.7611 0.809789 17.8053 0.786053 17.8555C0.762318 17.9056 0.750004 17.9604 0.75 18.0159V21.7659C0.749999 21.8151 0.759697 21.8639 0.778542 21.9094C0.797387 21.9549 0.82501 21.9962 0.859832 22.031C0.894654 22.0659 0.935994 22.0935 0.981492 22.1123C1.02699 22.1312 1.07575 22.1409 1.125 22.1409ZM21 21.0159H15V12.8794L15.813 14.0989C15.8472 14.1502 15.8936 14.1924 15.9481 14.2215C16.0025 14.2506 16.0633 14.2659 16.125 14.2659H21V21.0159ZM22.1743 13.5159H16.3257L15.3257 12.0159H21.1743L22.1743 13.5159ZM9.74705 10.1367C9.74693 10.1365 9.7451 10.1321 9.74499 10.1318L9.74302 10.127C9.65339 9.90883 9.50079 9.72226 9.30468 9.59114C9.10857 9.46002 8.87784 9.3903 8.64194 9.39087H7.5V7.14087H8.64194C8.87784 7.14144 9.10857 7.07172 9.30468 6.9406C9.50079 6.80948 9.65339 6.62291 9.74302 6.40469L9.74499 6.39996L9.74689 6.39542C9.83783 6.17769 9.86187 5.93781 9.81594 5.70636C9.77001 5.47491 9.6562 5.26239 9.48901 5.09588L8.68153 4.28838L10.2725 2.6974L11.08 3.50488C11.2465 3.67202 11.4589 3.78581 11.6903 3.83177C11.9216 3.87772 12.1614 3.85375 12.3791 3.76292L12.3888 3.75889C12.607 3.66926 12.7936 3.51666 12.9247 3.32055C13.0558 3.12444 13.1256 2.89371 13.125 2.65781V1.51587H15.375V2.65781C15.3744 2.89366 15.4441 3.12435 15.5752 3.32044C15.7062 3.51652 15.8927 3.66912 16.1109 3.75877L16.1204 3.76276C16.3382 3.85368 16.5781 3.87771 16.8095 3.83178C17.0409 3.78585 17.2535 3.67205 17.42 3.50488L18.2275 2.6974L19.8185 4.28838L19.011 5.09588C18.8438 5.26232 18.73 5.47476 18.6841 5.70613C18.6381 5.93749 18.6621 6.1773 18.753 6.39499C18.7531 6.39529 18.7549 6.39968 18.755 6.39996L18.757 6.4047C18.8466 6.62291 18.9992 6.80948 19.1953 6.9406C19.3914 7.07172 19.6222 7.14144 19.8581 7.14087H21V9.39087H19.8581C19.6222 9.3903 19.3914 9.46002 19.1953 9.59114C18.9992 9.72226 18.8466 9.90883 18.757 10.127L18.755 10.1318L18.7531 10.1363C18.6767 10.3194 18.6475 10.5187 18.668 10.7161C18.6885 10.9134 18.7582 11.1024 18.8706 11.2659H17.0811C17.4799 10.8896 17.7996 10.4375 18.0217 9.93623C18.2437 9.43491 18.3635 8.89436 18.3742 8.34618C18.3849 7.798 18.2862 7.25319 18.0839 6.74361C17.8815 6.23402 17.5796 5.76989 17.1958 5.37834L16.6602 5.9034C17.0301 6.28076 17.3062 6.73968 17.4663 7.24322C17.6264 7.74676 17.6661 8.28086 17.5821 8.80252C17.4981 9.32419 17.2928 9.81886 16.9828 10.2467C16.6727 10.6746 16.2666 11.0236 15.797 11.2659H12.7046C12.3084 11.0611 11.9565 10.7801 11.669 10.4391C11.3816 10.098 11.1642 9.70366 11.0294 9.27851L10.3139 9.50323C10.5263 10.1755 10.907 10.7822 11.4199 11.2659H9.62936C9.74178 11.1025 9.81145 10.9135 9.83201 10.7163C9.85257 10.519 9.82336 10.3198 9.74705 10.1367ZM6.57568 12.0159H13.9243L12.9243 13.5159H5.5757L6.57568 12.0159ZM6.75 14.2659H13.125C13.1867 14.2659 13.2475 14.2506 13.3019 14.2215C13.3564 14.1924 13.4028 14.1502 13.437 14.0989L14.25 12.8794V21.0159L11.1855 21.0159C11.2455 20.8463 11.264 20.6647 11.2393 20.4864C11.2146 20.3081 11.1475 20.1383 11.0436 19.9914C10.9397 19.8444 10.802 19.7245 10.6422 19.6418C10.4823 19.559 10.305 19.5159 10.125 19.5159H10.1248L8.77629 19.5161C8.21025 18.9883 7.50877 18.6279 6.75 18.4752V14.2659ZM8.35989 20.1563C8.39471 20.1911 8.43605 20.2188 8.48155 20.2376C8.52705 20.2565 8.57582 20.2662 8.62507 20.2662H8.62514L10.125 20.2659C10.1742 20.2659 10.223 20.2755 10.2685 20.2944C10.314 20.3132 10.3553 20.3408 10.3901 20.3756C10.425 20.4105 10.4526 20.4518 10.4715 20.4973C10.4903 20.5428 10.5 20.5915 10.5 20.6408C10.5 20.69 10.4904 20.7388 10.4715 20.7843C10.4527 20.8298 10.4251 20.8711 10.3903 20.906C10.3554 20.9408 10.3141 20.9684 10.2686 20.9873C10.2231 21.0061 10.1744 21.0159 10.1251 21.0159H8.625V21.7659L12.375 21.7659C12.4243 21.7658 12.4731 21.7755 12.5186 21.7943C12.5642 21.8131 12.6055 21.8407 12.6404 21.8756C12.6753 21.9104 12.7029 21.9517 12.7218 21.9973C12.7407 22.0428 12.7504 22.0916 12.7504 22.1409C12.7504 22.1901 12.7407 22.2389 12.7218 22.2845C12.703 22.33 12.6753 22.3713 12.6404 22.4062C12.6056 22.441 12.5642 22.4686 12.5187 22.4874C12.4731 22.5063 12.4243 22.5159 12.375 22.5159H9C7.86444 22.5135 6.75986 22.1453 5.84999 21.4659C5.78508 21.4172 5.70614 21.3909 5.625 21.3909H5.25V19.1409H5.90874C6.36416 19.1396 6.8153 19.2287 7.23604 19.403C7.65678 19.5773 8.03877 19.8334 8.35989 20.1563ZM1.5 18.4733L4.5 19.0733V21.3909H1.5V18.4733Z" fill="#E30D42"/>
<path d="M14.25 10.5159C14.695 10.5159 15.13 10.3839 15.5 10.1367C15.87 9.88944 16.1584 9.53804 16.3287 9.12691C16.499 8.71577 16.5436 8.26337 16.4568 7.82692C16.3699 7.39046 16.1557 6.98955 15.841 6.67488C15.5263 6.36021 15.1254 6.14592 14.689 6.0591C14.2525 5.97229 13.8001 6.01684 13.389 6.18714C12.9778 6.35744 12.6264 6.64583 12.3792 7.01584C12.132 7.38585 12 7.82086 12 8.26587C12.0007 8.8624 12.2379 9.4343 12.6598 9.85611C13.0816 10.2779 13.6535 10.5152 14.25 10.5159ZM14.25 6.76587C14.5467 6.76587 14.8367 6.85384 15.0834 7.01867C15.33 7.18349 15.5223 7.41776 15.6358 7.69184C15.7494 7.96593 15.7791 8.26753 15.7212 8.5585C15.6633 8.84947 15.5204 9.11675 15.3107 9.32653C15.1009 9.53631 14.8336 9.67917 14.5426 9.73705C14.2517 9.79492 13.9501 9.76522 13.676 9.65169C13.4019 9.53816 13.1676 9.3459 13.0028 9.09922C12.838 8.85255 12.75 8.56254 12.75 8.26587C12.7504 7.86818 12.9086 7.48691 13.1898 7.2057C13.471 6.92449 13.8523 6.76632 14.25 6.76587Z" fill="#E30D42"/>
<path d="M12 15.7659H11.25V16.5159H12V15.7659Z" fill="#E30D42"/>
<path d="M10.5 15.7659H9V16.5159H10.5V15.7659Z" fill="#E30D42"/>
<path d="M12.75 17.2659H10.125V18.0159H12.75V17.2659Z" fill="#E30D42"/>
<path d="M9.375 17.2659H8.25V18.0159H9.375V17.2659Z" fill="#E30D42"/>
</g>
<defs>
<clipPath id="clip0">
<rect width="24" height="24" fill="white" transform="translate(0 0.0158691)"/>
</clipPath>
</defs>
</svg>
