<svg width="25" height="25" viewBox="0 0 25 25" fill="none" xmlns="http://www.w3.org/2000/svg">
<g clip-path="url(#clip0)">
<path d="M4.20792 6.88696H2.70792C2.60846 6.88696 2.51308 6.92647 2.44275 6.9968C2.37243 7.06712 2.33292 7.16251 2.33292 7.26196V8.76196C2.33292 8.86142 2.37243 8.9568 2.44275 9.02713C2.51308 9.09745 2.60846 9.13696 2.70792 9.13696H4.20792C4.30737 9.13696 4.40275 9.09745 4.47308 9.02713C4.54341 8.9568 4.58292 8.86142 4.58292 8.76196V7.26196C4.58292 7.16251 4.54341 7.06712 4.47308 6.9968C4.40275 6.92647 4.30737 6.88696 4.20792 6.88696ZM3.83292 8.38696H3.08292V7.63696H3.83292V8.38696Z" fill="#E30D42"/>
<path d="M4.20792 9.88696H2.70792C2.60846 9.88696 2.51308 9.92647 2.44275 9.9968C2.37243 10.0671 2.33292 10.1625 2.33292 10.262V11.762C2.33292 11.8614 2.37243 11.9568 2.44275 12.0271C2.51308 12.0975 2.60846 12.137 2.70792 12.137H4.20792C4.30737 12.137 4.40275 12.0975 4.47308 12.0271C4.54341 11.9568 4.58292 11.8614 4.58292 11.762V10.262C4.58292 10.1625 4.54341 10.0671 4.47308 9.9968C4.40275 9.92647 4.30737 9.88696 4.20792 9.88696ZM3.83292 11.387H3.08292V10.637H3.83292V11.387Z" fill="#E30D42"/>
<path d="M15.4579 3.88696C15.665 3.88696 15.8329 3.71907 15.8329 3.51196C15.8329 3.30486 15.665 3.13696 15.4579 3.13696C15.2508 3.13696 15.0829 3.30486 15.0829 3.51196C15.0829 3.71907 15.2508 3.88696 15.4579 3.88696Z" fill="#E30D42"/>
<path d="M16.9579 3.88696C17.165 3.88696 17.3329 3.71907 17.3329 3.51196C17.3329 3.30486 17.165 3.13696 16.9579 3.13696C16.7508 3.13696 16.5829 3.30486 16.5829 3.51196C16.5829 3.71907 16.7508 3.88696 16.9579 3.88696Z" fill="#E30D42"/>
<path d="M11.3329 3.13696H14.3329V3.88696H11.3329V3.13696Z" fill="#E30D42"/>
<path d="M11.3329 21.137H14.3329V21.887H11.3329V21.137Z" fill="#E30D42"/>
<path d="M9.45792 9.88696H11.7079C11.8074 9.88696 11.9028 9.84745 11.9731 9.77713C12.0434 9.7068 12.0829 9.61142 12.0829 9.51196V7.26196C12.0829 7.16251 12.0434 7.06712 11.9731 6.9968C11.9028 6.92647 11.8074 6.88696 11.7079 6.88696H9.45792C9.35846 6.88696 9.26308 6.92647 9.19275 6.9968C9.12243 7.06712 9.08292 7.16251 9.08292 7.26196V9.51196C9.08292 9.61142 9.12243 9.7068 9.19275 9.77713C9.26308 9.84745 9.35846 9.88696 9.45792 9.88696ZM9.83292 7.63696H11.3329V9.13696H9.83292V7.63696Z" fill="#E30D42"/>
<path d="M13.9579 9.88696H16.2079C16.3074 9.88696 16.4028 9.84745 16.4731 9.77713C16.5434 9.7068 16.5829 9.61142 16.5829 9.51196V7.26196C16.5829 7.16251 16.5434 7.06712 16.4731 6.9968C16.4028 6.92647 16.3074 6.88696 16.2079 6.88696H13.9579C13.8585 6.88696 13.7631 6.92647 13.6928 6.9968C13.6224 7.06712 13.5829 7.16251 13.5829 7.26196V9.51196C13.5829 9.61142 13.6224 9.7068 13.6928 9.77713C13.7631 9.84745 13.8585 9.88696 13.9579 9.88696ZM14.3329 7.63696H15.8329V9.13696H14.3329V7.63696Z" fill="#E30D42"/>
<path d="M9.45792 14.387H11.7079C11.8074 14.387 11.9028 14.3475 11.9731 14.2771C12.0434 14.2068 12.0829 14.1114 12.0829 14.012V11.762C12.0829 11.6625 12.0434 11.5671 11.9731 11.4968C11.9028 11.4265 11.8074 11.387 11.7079 11.387H9.45792C9.35846 11.387 9.26308 11.4265 9.19275 11.4968C9.12243 11.5671 9.08292 11.6625 9.08292 11.762V14.012C9.08292 14.1114 9.12243 14.2068 9.19275 14.2771C9.26308 14.3475 9.35846 14.387 9.45792 14.387ZM9.83292 12.137H11.3329V13.637H9.83292V12.137Z" fill="#E30D42"/>
<path d="M13.5829 11.387H14.3329V10.637H13.2079C13.1085 10.637 13.0131 10.6765 12.9428 10.7468C12.8724 10.8171 12.8329 10.9125 12.8329 11.012V12.887H13.5829V11.387Z" fill="#E30D42"/>
<path d="M12.8329 13.637H13.5829V14.387H12.8329V13.637Z" fill="#E30D42"/>
<path d="M15.0829 16.637H15.8329V17.387H15.0829V16.637Z" fill="#E30D42"/>
<path d="M9.83292 16.637H11.3329V17.387H9.83292V16.637Z" fill="#E30D42"/>
<path d="M12.0829 16.637H14.3329V17.387H12.0829V16.637Z" fill="#E30D42"/>
<path d="M22.9579 20.762H21.8329V10.9476C21.8329 10.169 21.5236 9.42234 20.9731 8.87181C20.4225 8.32127 19.6758 8.01198 18.8973 8.01196H18.8329V2.76196C18.8326 2.4637 18.7139 2.17775 18.503 1.96684C18.2921 1.75594 18.0062 1.6373 17.7079 1.63696H7.95792C7.65965 1.6373 7.3737 1.75594 7.1628 1.96684C6.95189 2.17775 6.83326 2.4637 6.83292 2.76196V3.02695C6.349 2.85815 5.84438 2.75595 5.33292 2.72317V1.26196C5.33292 1.16251 5.29341 1.06712 5.22308 0.996798C5.15276 0.926472 5.05737 0.886963 4.95792 0.886963C4.85846 0.886963 4.76308 0.926472 4.69275 0.996798C4.62243 1.06712 4.58292 1.16251 4.58292 1.26196V2.72401C3.21016 2.81485 1.91687 3.40027 0.942757 4.37178C0.872427 4.44211 0.832917 4.5375 0.832916 4.63696V15.512C0.832917 15.6114 0.872426 15.7068 0.942752 15.7771C1.01308 15.8475 1.10846 15.887 1.20792 15.887H6.83292V22.262C6.83326 22.5602 6.95189 22.8462 7.1628 23.0571C7.3737 23.268 7.65965 23.3866 7.95792 23.387H17.7079C18.0062 23.3866 18.2921 23.268 18.503 23.0571C18.7139 22.8462 18.8326 22.5602 18.8329 22.262V21.512H22.5829V23.387H23.3329V21.137C23.3329 21.0375 23.2934 20.9421 23.2231 20.8718C23.1528 20.8015 23.0574 20.762 22.9579 20.762ZM7.95792 2.38696H17.7079C17.8073 2.38708 17.9027 2.42662 17.973 2.49692C18.0433 2.56722 18.0828 2.66254 18.0829 2.76196V4.70147C17.9625 4.65873 17.8357 4.63691 17.7079 4.63696H7.95792C7.83015 4.63691 7.70332 4.65873 7.58292 4.70147V2.76196C7.58303 2.66254 7.62258 2.56722 7.69288 2.49692C7.76318 2.42662 7.85849 2.38708 7.95792 2.38696ZM6.83292 8.38696H6.08292V7.63696H6.83292V8.38696ZM1.58292 15.137V4.79567C2.40345 4.02691 3.46179 3.56122 4.58292 3.47562V5.01196C4.58292 5.11142 4.62243 5.2068 4.69275 5.27713C4.76308 5.34745 4.85846 5.38696 4.95792 5.38696C5.05737 5.38696 5.15276 5.34745 5.22308 5.27713C5.29341 5.2068 5.33292 5.11142 5.33292 5.01196V3.47454C5.84846 3.51266 6.35472 3.63212 6.83292 3.82848V6.88696H5.70792C5.60846 6.88696 5.51308 6.92647 5.44275 6.9968C5.37243 7.06712 5.33292 7.16251 5.33292 7.26196V8.76196C5.33292 8.86142 5.37243 8.9568 5.44275 9.02713C5.51308 9.09745 5.60846 9.13696 5.70792 9.13696H6.83292V9.88696H5.70792C5.60846 9.88696 5.51308 9.92647 5.44275 9.9968C5.37243 10.0671 5.33292 10.1625 5.33292 10.262V11.762H6.08292V10.637H6.83292V15.137H1.58292ZM7.58292 5.76196C7.58303 5.66254 7.62258 5.56722 7.69288 5.49692C7.76318 5.42662 7.85849 5.38708 7.95792 5.38696H17.7079C17.8073 5.38708 17.9027 5.42662 17.973 5.49692C18.0433 5.56722 18.0828 5.66254 18.0829 5.76196V10.5044C17.7841 10.2817 17.4157 10.1728 17.0438 10.197C16.6718 10.2213 16.3208 10.3773 16.0534 10.637H15.0829V11.387H15.6231C15.5629 11.6333 15.5629 11.8906 15.6231 12.137H14.7079C14.6085 12.137 14.5131 12.1765 14.4428 12.2468C14.3724 12.3171 14.3329 12.4125 14.3329 12.512V14.012C14.3329 14.1114 14.3724 14.2068 14.4428 14.2771C14.5131 14.3475 14.6085 14.387 14.7079 14.387H16.2079C16.3074 14.387 16.4028 14.3475 16.4731 14.2771C16.5434 14.2068 16.5829 14.1114 16.5829 14.012V13.4173L17.9276 14.762L17.6891 15.0005C17.5558 15.1341 17.4337 15.2786 17.3243 15.4324C17.3061 15.3488 17.2599 15.2738 17.1932 15.2201C17.1266 15.1663 17.0435 15.137 16.9579 15.137H8.70792C8.60846 15.137 8.51308 15.1765 8.44275 15.2468C8.37243 15.3171 8.33292 15.4125 8.33292 15.512V18.512C8.33292 18.6114 8.37243 18.7068 8.44275 18.7771C8.51308 18.8475 8.60846 18.887 8.70792 18.887H16.9579C16.9876 18.8869 17.0171 18.8832 17.0459 18.8762C17.1819 19.1521 17.3549 19.408 17.5604 19.637H7.95792C7.85849 19.6368 7.76318 19.5973 7.69288 19.527C7.62258 19.4567 7.58303 19.3614 7.58292 19.262V5.76196ZM15.8329 12.887V13.637H15.0829V12.887H15.8329ZM16.5829 15.887V18.137H9.08292V15.887H16.5829ZM18.0829 22.262C18.0828 22.3614 18.0433 22.4567 17.973 22.527C17.9027 22.5973 17.8073 22.6368 17.7079 22.637H7.95792C7.85849 22.6368 7.76318 22.5973 7.69288 22.527C7.62258 22.4567 7.58303 22.3614 7.58292 22.262V20.3225C7.70332 20.3652 7.83015 20.387 7.95792 20.387H17.7079C17.8356 20.3871 17.9624 20.3655 18.0829 20.3231V22.262ZM18.8329 20.762V20.012C18.8329 19.9125 18.7934 19.8171 18.7231 19.7468L18.2194 19.2431C17.7271 18.7508 17.4506 18.0832 17.4506 17.387C17.4506 16.6908 17.7271 16.0231 18.2194 15.5308L18.7231 15.0271C18.7579 14.9923 18.7855 14.951 18.8044 14.9055C18.8232 14.86 18.8329 14.8112 18.8329 14.762C18.8329 14.7127 18.8232 14.6639 18.8044 14.6184C18.7855 14.5729 18.7579 14.5316 18.7231 14.4968L16.5668 12.3406C16.4134 12.1871 16.3272 11.979 16.3272 11.762C16.3272 11.545 16.4134 11.3368 16.5668 11.1834C16.7203 11.0299 16.9284 10.9437 17.1454 10.9437C17.3624 10.9437 17.5706 11.0299 17.724 11.1834L18.9428 12.4021C19.0131 12.4725 19.1085 12.512 19.2079 12.512C19.3074 12.512 19.4028 12.4725 19.4731 12.4021C19.5434 12.3318 19.5829 12.2364 19.5829 12.1369C19.5829 12.0375 19.5434 11.9421 19.4731 11.8718L18.8329 11.2316V8.76196H18.8973C19.1843 8.76196 19.4685 8.81848 19.7337 8.92832C19.9989 9.03815 20.2398 9.19915 20.4428 9.4021C20.6457 9.60506 20.8067 9.84601 20.9166 10.1112C21.0264 10.3764 21.0829 10.6606 21.0829 10.9476V20.762H18.8329Z" fill="#E30D42"/>
</g>
<defs>
<clipPath id="clip0">
<rect width="24" height="24" fill="white" transform="translate(0.0829163 0.136963)"/>
</clipPath>
</defs>
</svg>
