<svg width="24" height="25" viewBox="0 0 24 25" fill="none" xmlns="http://www.w3.org/2000/svg">
<path d="M12.0002 10.2954C11.926 10.2954 11.8535 10.2734 11.7918 10.2322C11.7302 10.191 11.6821 10.1324 11.6537 10.0639C11.6253 9.99539 11.6179 9.91999 11.6324 9.84725C11.6469 9.77451 11.6826 9.70769 11.735 9.65524C11.7875 9.6028 11.8543 9.56709 11.927 9.55262C11.9998 9.53815 12.0752 9.54557 12.1437 9.57396C12.2122 9.60234 12.2708 9.6504 12.312 9.71207C12.3532 9.77374 12.3752 9.84624 12.3752 9.92041H13.1252C13.1249 9.68786 13.0526 9.46109 12.9184 9.27123C12.7841 9.08136 12.5943 8.93769 12.3752 8.85992V8.04541H11.6252V8.85992C11.375 8.94836 11.1641 9.12241 11.0298 9.35131C10.8955 9.5802 10.8465 9.8492 10.8914 10.1107C10.9363 10.3723 11.0722 10.6096 11.2751 10.7806C11.478 10.9516 11.7348 11.0454 12.0002 11.0454C12.0744 11.0454 12.1469 11.0674 12.2085 11.1086C12.2702 11.1498 12.3183 11.2084 12.3466 11.2769C12.375 11.3454 12.3824 11.4208 12.368 11.4936C12.3535 11.5663 12.3178 11.6331 12.2653 11.6856C12.2129 11.738 12.1461 11.7737 12.0733 11.7882C12.0006 11.8027 11.9252 11.7952 11.8567 11.7669C11.7882 11.7385 11.7296 11.6904 11.6884 11.6287C11.6472 11.5671 11.6252 11.4946 11.6252 11.4204H10.8752C10.8755 11.653 10.9477 11.8797 11.082 12.0696C11.2163 12.2595 11.406 12.4031 11.6252 12.4809V13.2954H12.3752V12.4809C12.6254 12.3925 12.8363 12.2184 12.9705 11.9895C13.1048 11.7606 13.1539 11.4916 13.109 11.2301C13.0641 10.9685 12.9282 10.7313 12.7253 10.5602C12.5224 10.3892 12.2656 10.2954 12.0002 10.2954Z" fill="#E30D42"/>
<path d="M19.5 19.6701C18.9912 19.6704 18.4878 19.774 18.0203 19.9749C17.5528 20.1757 17.1311 20.4695 16.7807 20.8384C16.6598 20.8602 16.5405 20.8904 16.4239 20.9289C15.3499 19.761 14.7173 18.2549 14.6353 16.6704H15.75C15.8495 16.6704 15.9448 16.6309 16.0152 16.5605C16.0855 16.4902 16.125 16.3948 16.125 16.2954V15.5454C16.1247 15.2471 16.006 14.9612 15.7951 14.7502C15.5842 14.5393 15.2983 14.4207 15 14.4204V12.9204H17.25C17.3495 12.9204 17.4448 12.8809 17.5152 12.8105C17.5855 12.7402 17.625 12.6448 17.625 12.5454V11.4268C17.6237 11.0197 17.4905 10.624 17.2453 10.2989C17.0001 9.97388 16.6562 9.73707 16.2651 9.62396L15 9.26249V6.54756C15.0021 5.78397 14.8527 5.02755 14.5605 4.32208C14.2683 3.6166 13.8391 2.97608 13.2977 2.43758L12.2654 1.40523C12.195 1.33492 12.0997 1.29542 12.0002 1.29541C11.9008 1.2954 11.8054 1.33489 11.735 1.40518L10.7026 2.43753C10.1611 2.97602 9.73184 3.61657 9.43958 4.32209C9.14733 5.02761 8.99792 5.78409 9 6.54775V9.26249L7.73492 9.62396C7.34381 9.73706 6.99988 9.97387 6.7547 10.2989C6.50952 10.6239 6.3763 11.0197 6.375 11.4268V12.5454C6.375 12.6448 6.41452 12.7402 6.48484 12.8105C6.55517 12.8809 6.65055 12.9204 6.75 12.9204H9V14.4204C8.70174 14.4207 8.41579 14.5393 8.20488 14.7502C7.99398 14.9612 7.87534 15.2471 7.875 15.5454V16.2954C7.875 16.3948 7.91452 16.4902 7.98484 16.5605C8.05517 16.6309 8.15055 16.6704 8.25 16.6704H9.36468C9.28272 18.2549 8.65014 19.761 7.57614 20.9289C7.45946 20.8904 7.34023 20.8602 7.21932 20.8384C6.70301 20.2944 6.03545 19.9178 5.30289 19.7572C4.57032 19.5965 3.80642 19.6592 3.10987 19.9372C2.41332 20.2152 1.81613 20.6957 1.39545 21.3165C0.974772 21.9374 0.74994 22.6702 0.75 23.4201H1.5C1.49967 22.8843 1.64294 22.3582 1.91489 21.8966C2.18684 21.4349 2.57754 21.0546 3.04634 20.7951C3.51513 20.5357 4.04489 20.4066 4.58049 20.4213C5.11609 20.436 5.63797 20.594 6.09182 20.8787C5.52914 21.0253 5.0309 21.3542 4.67504 21.8141C4.31917 22.2739 4.12574 22.8387 4.125 23.4201H4.875C4.87476 23.0952 4.95902 22.7759 5.1195 22.4934C5.27997 22.2108 5.51115 21.9749 5.79034 21.8087C6.06954 21.6426 6.38714 21.5519 6.71198 21.5455C7.03682 21.5391 7.35773 21.6174 7.64321 21.7725C7.3323 21.9233 7.06026 22.1437 6.84814 22.4165C6.63602 22.6893 6.48952 23.0073 6.41995 23.3458L7.15494 23.4949C7.21886 23.1826 7.38058 22.8987 7.61666 22.6845C7.85274 22.4703 8.15092 22.3368 8.46796 22.3034C8.785 22.27 9.10444 22.3385 9.37996 22.4988C9.65549 22.6592 9.87278 22.9031 10.0004 23.1953L10.6876 22.895C10.5124 22.4938 10.2239 22.1524 9.85752 21.9126C9.49117 21.6729 9.06284 21.5452 8.625 21.5451C8.6122 21.5451 8.59953 21.5458 8.58675 21.546C8.48776 21.449 8.38123 21.36 8.26817 21.2799C8.87622 20.5807 9.35065 19.7758 9.66784 18.9052C9.79444 19.3099 9.98272 19.6926 10.226 20.0398L11.693 22.1354C11.7276 22.1848 11.7735 22.2251 11.827 22.253C11.8805 22.2808 11.9399 22.2954 12.0002 22.2954C12.0605 22.2954 12.1199 22.2808 12.1734 22.253C12.2268 22.2251 12.2728 22.1848 12.3074 22.1354L13.7743 20.0398C14.0175 19.6927 14.2058 19.3102 14.3324 18.9058C14.6495 19.7761 15.1239 20.5809 15.7318 21.2799C15.6188 21.36 15.5122 21.449 15.4132 21.546C15.4005 21.5458 15.3878 21.5451 15.375 21.5451C14.9372 21.5452 14.5088 21.6729 14.1425 21.9126C13.7761 22.1524 13.4876 22.4938 13.3124 22.895L13.9996 23.1953C14.1272 22.9031 14.3445 22.6592 14.62 22.4988C14.8956 22.3385 15.215 22.27 15.5321 22.3034C15.8491 22.3368 16.1473 22.4703 16.3834 22.6845C16.6194 22.8988 16.7812 23.1826 16.8451 23.4949L17.58 23.3458C17.5105 23.0073 17.364 22.6893 17.1519 22.4165C16.9397 22.1437 16.6677 21.9233 16.3568 21.7725C16.6423 21.6174 16.9632 21.5391 17.288 21.5455C17.6129 21.5519 17.9305 21.6426 18.2097 21.8087C18.4888 21.9749 18.72 22.2108 18.8805 22.4934C19.041 22.7759 19.1252 23.0952 19.125 23.4201H19.875C19.8743 22.8387 19.6808 22.2739 19.325 21.814C18.9691 21.3542 18.4708 21.0253 17.9082 20.8787C18.362 20.594 18.8839 20.436 19.4195 20.4213C19.9551 20.4066 20.4849 20.5356 20.9537 20.7951C21.4225 21.0546 21.8132 21.4349 22.0851 21.8966C22.3571 22.3582 22.5003 22.8843 22.5 23.4201H23.25C23.2489 22.4259 22.8534 21.4727 22.1504 20.7697C21.4474 20.0667 20.4942 19.6713 19.5 19.6701ZM16.0591 10.3451C16.2937 10.413 16.5001 10.5551 16.6472 10.7501C16.7943 10.9451 16.8742 11.1825 16.875 11.4268V12.1704H15V10.0425L16.0591 10.3451ZM11.2329 2.9679L12.0002 2.20068L12.7673 2.9679C13.6274 3.82314 14.1491 4.96059 14.2362 6.17037H9.76377C9.85092 4.96056 10.3727 3.8231 11.2329 2.9679ZM7.125 12.1704V11.4268C7.12578 11.1825 7.20571 10.9451 7.35282 10.7501C7.49993 10.5551 7.70629 10.413 7.94096 10.3451L9 10.0425V12.1704H7.125ZM9.75 6.92037H14.25V14.4204H9.75V6.92037ZM8.625 15.5454C8.62511 15.4459 8.66466 15.3506 8.73496 15.2803C8.80526 15.21 8.90058 15.1705 9 15.1704H15C15.0994 15.1705 15.1947 15.21 15.265 15.2803C15.3353 15.3506 15.3749 15.4459 15.375 15.5454V15.9204H8.625V15.5454ZM11.6252 16.6704H12.3752V16.7347C12.3764 17.1716 12.2457 17.5987 12.0002 17.96C11.7547 17.5987 11.624 17.1716 11.6252 16.7347V16.6704ZM13.1599 19.6097L12.0002 21.2665L10.8404 19.6097C10.544 19.1876 10.349 18.7027 10.2707 18.1929C10.1925 17.683 10.2331 17.162 10.3894 16.6704H10.8752V16.7347C10.8741 17.1204 10.9496 17.5024 11.0972 17.8588C11.2448 18.2151 11.4616 18.5386 11.735 18.8105C11.8053 18.8809 11.9007 18.9204 12.0002 18.9204C12.0996 18.9204 12.195 18.8809 12.2654 18.8105C12.5388 18.5386 12.7556 18.2151 12.9032 17.8588C13.0508 17.5024 13.1262 17.1204 13.1252 16.7347V16.6704H13.611C13.7673 17.162 13.8079 17.683 13.7296 18.1929C13.6514 18.7027 13.4564 19.1876 13.1599 19.6097Z" fill="#E30D42"/>
</svg>
