<svg width="24" height="25" viewBox="0 0 24 25" fill="none" xmlns="http://www.w3.org/2000/svg">
<path d="M22.875 1.01929H12C11.9005 1.01929 11.8052 1.0588 11.7348 1.12912C11.6645 1.19945 11.625 1.29483 11.625 1.39429V8.14429C11.625 8.24374 11.6645 8.33913 11.7348 8.40945C11.8052 8.47978 11.9005 8.51929 12 8.51929H13.125V11.8943C13.125 11.9701 13.148 12.0442 13.191 12.1067C13.2339 12.1692 13.2948 12.2172 13.3656 12.2444C13.4365 12.2716 13.5139 12.2766 13.5876 12.2589C13.6614 12.2412 13.728 12.2015 13.7787 12.1451L17.042 8.51929H22.875C22.9745 8.51929 23.0698 8.47978 23.1402 8.40945C23.2105 8.33913 23.25 8.24374 23.25 8.14429V1.39429C23.25 1.29483 23.2105 1.19945 23.1402 1.12912C23.0698 1.0588 22.9745 1.01929 22.875 1.01929ZM22.5 7.76929H16.875C16.8224 7.76929 16.7705 7.78034 16.7224 7.80173C16.6744 7.82312 16.6314 7.85436 16.5963 7.89343L13.875 10.9171V8.14429C13.875 8.04483 13.8355 7.94945 13.7652 7.87912C13.6948 7.8088 13.5995 7.76929 13.5 7.76929H12.375V1.76929H22.5V7.76929Z" fill="#E30D42"/>
<path d="M15.3472 5.64677L15.8598 6.15947C15.9302 6.22977 16.0256 6.26926 16.125 6.26926C16.2245 6.26926 16.3198 6.22977 16.3902 6.15947L17.625 4.92461L18.4848 5.78447C18.5552 5.85477 18.6506 5.89426 18.75 5.89426C18.8495 5.89426 18.9448 5.85477 19.0152 5.78447L21 3.79963V4.76929H21.75V2.89429C21.75 2.79483 21.7105 2.69945 21.6402 2.62912C21.5698 2.5588 21.4745 2.51929 21.375 2.51929H19.5V3.26929H20.4697L18.75 4.98897L17.8902 4.1291C17.8198 4.0588 17.7245 4.01931 17.625 4.01931C17.5256 4.01931 17.4302 4.0588 17.3598 4.1291L16.125 5.36397L15.6402 4.8791C15.5749 4.81389 15.4879 4.77502 15.3957 4.76992C15.3036 4.76482 15.2128 4.79385 15.1407 4.85146L13.2657 6.35146L13.7343 6.93712L15.3472 5.64677Z" fill="#E30D42"/>
<path d="M14.625 13.0193H13.875V13.8081C13.5363 13.462 13.1085 13.2164 12.6389 13.0984C12.1694 12.9804 11.6763 12.9946 11.2143 13.1394C10.7523 13.2842 10.3393 13.554 10.0211 13.919C9.70288 14.2839 9.49182 14.7297 9.41125 15.2072L10.1509 15.3313C10.2122 14.9697 10.3781 14.634 10.6282 14.3658C10.8783 14.0975 11.2016 13.9085 11.558 13.8221C11.9144 13.7357 12.2884 13.7557 12.6335 13.8796C12.9787 14.0035 13.28 14.2259 13.5001 14.5193H12.375V15.2693H14.25C14.3494 15.2693 14.4448 15.2298 14.5151 15.1595C14.5855 15.0891 14.625 14.9937 14.625 14.8943V13.0193Z" fill="#E30D42"/>
<path d="M11.625 16.0193H9.75C9.65054 16.0193 9.55516 16.0588 9.48484 16.1291C9.41451 16.1995 9.375 16.2948 9.375 16.3943V18.2693H10.125V17.4805C10.4637 17.8266 10.8915 18.0722 11.361 18.1902C11.8306 18.3082 12.3237 18.294 12.7857 18.1492C13.2477 18.0043 13.6607 17.7345 13.9789 17.3696C14.2971 17.0047 14.5082 16.5589 14.5887 16.0814L13.8491 15.9573C13.7878 16.3189 13.6218 16.6546 13.3718 16.9228C13.1217 17.1911 12.7984 17.3801 12.442 17.4665C12.0856 17.5529 11.7116 17.5329 11.3664 17.409C11.0213 17.2851 10.72 17.0627 10.4999 16.7693H11.625V16.0193Z" fill="#E30D42"/>
<path d="M22.125 21.2693H21.375V9.26929H20.625V21.2693H2.625V8.51929H10.875V7.76929H2.25C2.15054 7.76929 2.05516 7.8088 1.98484 7.87912C1.91451 7.94945 1.875 8.04483 1.875 8.14429V21.2693H1.125C1.02554 21.2693 0.930162 21.3088 0.859836 21.3791C0.78951 21.4494 0.750001 21.5448 0.75 21.6443V23.1443C0.750001 23.2437 0.78951 23.3391 0.859836 23.4095C0.930162 23.4798 1.02554 23.5193 1.125 23.5193H22.125C22.2245 23.5193 22.3198 23.4798 22.3902 23.4095C22.4605 23.3391 22.5 23.2437 22.5 23.1443V21.6443C22.5 21.5448 22.4605 21.4494 22.3902 21.3791C22.3198 21.3088 22.2245 21.2693 22.125 21.2693ZM21.75 22.7693H1.5V22.0193H21.75V22.7693Z" fill="#E30D42"/>
<path d="M3.375 9.64429V20.1443C3.375 20.2437 3.41451 20.3391 3.48484 20.4095C3.55516 20.4798 3.65054 20.5193 3.75 20.5193H19.5C19.5995 20.5193 19.6948 20.4798 19.7652 20.4095C19.8355 20.3391 19.875 20.2437 19.875 20.1443V9.64429C19.875 9.54483 19.8355 9.44945 19.7652 9.37912C19.6948 9.3088 19.5995 9.26929 19.5 9.26929H17.25V10.0193H19.125V19.7693H4.125V10.0193H12.375V9.26929H3.75C3.65054 9.26929 3.55516 9.3088 3.48484 9.37912C3.41451 9.44945 3.375 9.54483 3.375 9.64429Z" fill="#E30D42"/>
</svg>
