<svg width="51" height="51" viewBox="0 0 51 51" fill="none" xmlns="http://www.w3.org/2000/svg">
<path d="M23.2272 29.8281H27.9147V31.3906H23.2272V29.8281Z" fill="#E30D42"/>
<path d="M16.1959 31.3906C16.6274 31.3906 16.9772 31.0408 16.9772 30.6094C16.9772 30.1779 16.6274 29.8281 16.1959 29.8281C15.7645 29.8281 15.4147 30.1779 15.4147 30.6094C15.4147 31.0408 15.7645 31.3906 16.1959 31.3906Z" fill="#E30D42"/>
<path d="M18.5397 31.3906C18.9711 31.3906 19.3209 31.0408 19.3209 30.6094C19.3209 30.1779 18.9711 29.8281 18.5397 29.8281C18.1082 29.8281 17.7584 30.1779 17.7584 30.6094C17.7584 31.0408 18.1082 31.3906 18.5397 31.3906Z" fill="#E30D42"/>
<path d="M32.6022 31.3906C33.0336 31.3906 33.3834 31.0408 33.3834 30.6094C33.3834 30.1779 33.0336 29.8281 32.6022 29.8281C32.1707 29.8281 31.8209 30.1779 31.8209 30.6094C31.8209 31.0408 32.1707 31.3906 32.6022 31.3906Z" fill="#E30D42"/>
<path d="M34.9459 31.3906C35.3774 31.3906 35.7272 31.0408 35.7272 30.6094C35.7272 30.1779 35.3774 29.8281 34.9459 29.8281C34.5145 29.8281 34.1647 30.1779 34.1647 30.6094C34.1647 31.0408 34.5145 31.3906 34.9459 31.3906Z" fill="#E30D42"/>
<path d="M34.1647 36.0781H16.9772C16.77 36.0781 16.5713 36.1604 16.4247 36.307C16.2782 36.4535 16.1959 36.6522 16.1959 36.8594V40.7656C16.1959 40.9728 16.2782 41.1715 16.4247 41.318C16.5713 41.4646 16.77 41.5469 16.9772 41.5469H34.1647C34.3719 41.5469 34.5706 41.4646 34.7171 41.318C34.8636 41.1715 34.9459 40.9728 34.9459 40.7656V36.8594C34.9459 36.6522 34.8636 36.4535 34.7171 36.307C34.5706 36.1604 34.3719 36.0781 34.1647 36.0781ZM33.3834 39.9844H17.7584V37.6406H33.3834V39.9844Z" fill="#E30D42"/>
<path d="M21.6647 9.51562H23.2272V12.6406H21.6647V9.51562Z" fill="#E30D42"/>
<path d="M5.25842 15.7656H6.82092V18.8906H5.25842V15.7656Z" fill="#E30D42"/>
<path d="M5.25842 29.8281H6.82092V32.9531H5.25842V29.8281Z" fill="#E30D42"/>
<path d="M44.3209 29.8281H45.8834V32.9531H44.3209V29.8281Z" fill="#E30D42"/>
<path d="M48.2272 26.7031H2.91467C2.70747 26.7031 2.50876 26.7854 2.36225 26.932C2.21574 27.0785 2.13342 27.2772 2.13342 27.4844V48.5781C2.13342 48.7853 2.21574 48.984 2.36225 49.1306C2.50876 49.2771 2.70747 49.3594 2.91467 49.3594H48.2272C48.4344 49.3594 48.6331 49.2771 48.7796 49.1306C48.9261 48.984 49.0084 48.7853 49.0084 48.5781V27.4844C49.0084 27.2772 48.9261 27.0785 48.7796 26.932C48.6331 26.7854 48.4344 26.7031 48.2272 26.7031ZM14.6334 28.2656H20.1022V32.9531H14.6334V28.2656ZM21.6647 32.9531V28.2656H29.4772V32.9531H21.6647ZM14.6334 34.5156H36.5084V43.1094H14.6334V34.5156ZM36.5084 32.9531H31.0397V28.2656H36.5084V32.9531ZM3.69592 28.2656H13.0709V47.7969H3.69592V28.2656ZM14.6334 44.6719H36.5084V47.7969H14.6334V44.6719ZM47.4459 47.7969H38.0709V28.2656H47.4459V47.7969Z" fill="#E30D42"/>
<path d="M27.9147 9.51562H29.4772V12.6406H27.9147V9.51562Z" fill="#E30D42"/>
<path d="M44.3209 15.7656H45.8834V18.8906H44.3209V15.7656Z" fill="#E30D42"/>
<path d="M48.2272 2.48438H2.91467C2.70747 2.48438 2.50876 2.56669 2.36225 2.7132C2.21574 2.85971 2.13342 3.05843 2.13342 3.26562V21.2344C2.13342 21.4416 2.21574 21.6403 2.36225 21.7868C2.50876 21.9333 2.70747 22.0156 2.91467 22.0156H13.8522C14.0594 22.0156 14.2581 21.9333 14.4046 21.7868C14.5511 21.6403 14.6334 21.4416 14.6334 21.2344V15.7656H18.216L16.4248 17.5569L16.4248 17.5569C16.3521 17.6294 16.2945 17.7155 16.2552 17.8103C16.2159 17.9051 16.1958 18.0068 16.1959 18.1094V21.2344C16.1959 21.4416 16.2782 21.6403 16.4247 21.7868C16.5713 21.9333 16.77 22.0156 16.9772 22.0156H34.1647C34.3719 22.0156 34.5706 21.9333 34.7171 21.7868C34.8636 21.6403 34.9459 21.4416 34.9459 21.2344V18.1094C34.9461 18.0068 34.9259 17.9051 34.8866 17.8103C34.8474 17.7155 34.7897 17.6294 34.7171 17.5569L34.7171 17.5569L32.9258 15.7656H36.5084V21.2344C36.5084 21.4416 36.5907 21.6403 36.7372 21.7868C36.8838 21.9333 37.0825 22.0156 37.2897 22.0156H48.2272C48.4344 22.0156 48.6331 21.9333 48.7796 21.7868C48.9261 21.6403 49.0084 21.4416 49.0084 21.2344V3.26562C49.0084 3.05843 48.9261 2.85971 48.7796 2.7132C48.6331 2.56669 48.4344 2.48438 48.2272 2.48438ZM13.0709 20.4531H3.69592V4.04688H13.0709V20.4531ZM14.6334 4.04688H24.7897V14.2031H14.6334V4.04688ZM33.3834 20.4531H17.7584V18.8906H33.3834V20.4531ZM32.2785 17.3281H18.8633L20.4258 15.7656H30.716L32.2785 17.3281ZM26.3522 14.2031V4.04688H36.5084V14.2031H26.3522ZM47.4459 20.4531H38.0709V4.04688H47.4459V20.4531Z" fill="#E30D42"/>
</svg>
