<svg width="52" height="52" viewBox="0 0 52 52" fill="none" xmlns="http://www.w3.org/2000/svg">
<path d="M36.0293 29.6094H3.35742C3.14608 29.6094 2.94339 29.6933 2.79395 29.8428C2.64451 29.9922 2.56055 30.1949 2.56055 30.4062V49.5312C2.56055 49.7426 2.64451 49.9453 2.79395 50.0947C2.94339 50.2442 3.14608 50.3281 3.35742 50.3281H36.0293C36.2406 50.3281 36.4433 50.2442 36.5928 50.0947C36.7422 49.9453 36.8262 49.7426 36.8262 49.5312V30.4062C36.8262 30.1949 36.7422 29.9922 36.5928 29.8428C36.4433 29.6933 36.2406 29.6094 36.0293 29.6094ZM35.2324 48.7344H4.1543V31.2031H35.2324V48.7344Z" fill="#E30D42"/>
<path d="M8.13867 47.1406H27.1433C27.9874 47.3999 28.8809 47.4558 29.7507 47.3038C30.6206 47.1518 31.4421 46.7963 32.1483 46.2662L33.3199 45.3875C33.4189 45.3133 33.4992 45.217 33.5545 45.1064C33.6099 44.9957 33.6387 44.8737 33.6387 44.75C33.6387 44.6263 33.6099 44.5043 33.5545 44.3936C33.4992 44.283 33.4189 44.1867 33.3199 44.1125L32.1483 43.2338C31.4425 42.705 30.6217 42.3501 29.7529 42.1982C28.8841 42.0462 27.9917 42.1015 27.1482 42.3594H8.13867C7.50464 42.3594 6.89657 42.6112 6.44824 43.0596C5.99992 43.5079 5.74805 44.116 5.74805 44.75C5.74805 45.384 5.99992 45.9921 6.44824 46.4404C6.89657 46.8888 7.50464 47.1406 8.13867 47.1406ZM31.1921 44.5088L31.5137 44.75L31.1921 44.9912C30.7491 45.3231 30.2422 45.5598 29.7032 45.6863C29.1643 45.8128 28.605 45.8264 28.0605 45.7263V43.7737C28.605 43.6736 29.1643 43.6872 29.7032 43.8137C30.2422 43.9402 30.7491 44.1769 31.1921 44.5088ZM26.4668 45.5469H24.873V43.9531H26.4668V45.5469ZM8.13867 43.9531H23.2793V45.5469H8.13867C7.92733 45.5469 7.72464 45.4629 7.5752 45.3135C7.42575 45.164 7.3418 44.9613 7.3418 44.75C7.3418 44.5387 7.42575 44.336 7.5752 44.1865C7.72464 44.0371 7.92733 43.9531 8.13867 43.9531Z" fill="#E30D42"/>
<path d="M10.5293 40.7656C11.3173 40.7656 12.0877 40.5319 12.7429 40.0941C13.3981 39.6563 13.9088 39.0341 14.2104 38.306C14.5119 37.578 14.5909 36.7768 14.4371 36.0039C14.2834 35.231 13.9039 34.5211 13.3467 33.9639C12.7895 33.4066 12.0795 33.0272 11.3066 32.8734C10.5337 32.7197 9.73259 32.7986 9.00454 33.1002C8.27649 33.4017 7.65422 33.9124 7.21641 34.5677C6.7786 35.2229 6.54492 35.9932 6.54492 36.7813C6.54612 37.8376 6.96629 38.8504 7.71324 39.5973C8.4602 40.3443 9.47294 40.7644 10.5293 40.7656ZM10.5293 34.3906C11.0021 34.3906 11.4643 34.5308 11.8575 34.7935C12.2506 35.0562 12.557 35.4296 12.7379 35.8664C12.9189 36.3032 12.9662 36.7839 12.874 37.2476C12.7817 37.7114 12.5541 38.1373 12.2197 38.4717C11.8854 38.806 11.4594 39.0337 10.9957 39.1259C10.5319 39.2182 10.0513 39.1708 9.61444 38.9899C9.17761 38.809 8.80425 38.5025 8.54156 38.1094C8.27888 37.7163 8.13867 37.2541 8.13867 36.7813C8.1394 36.1474 8.3915 35.5398 8.83967 35.0916C9.28784 34.6435 9.89549 34.3914 10.5293 34.3906Z" fill="#E30D42"/>
<path d="M20.0918 40.7656C20.8798 40.7656 21.6502 40.5319 22.3054 40.0941C22.9606 39.6563 23.4713 39.0341 23.7729 38.306C24.0744 37.578 24.1533 36.7768 23.9996 36.0039C23.8459 35.231 23.4664 34.5211 22.9092 33.9639C22.3519 33.4066 21.642 33.0272 20.8691 32.8734C20.0962 32.7197 19.2951 32.7986 18.567 33.1002C17.839 33.4017 17.2167 33.9124 16.7789 34.5677C16.3411 35.2229 16.1074 35.9932 16.1074 36.7813C16.1086 37.8376 16.5288 38.8504 17.2757 39.5973C18.0227 40.3443 19.0354 40.7644 20.0918 40.7656ZM20.0918 34.3906C20.5646 34.3906 21.0268 34.5308 21.42 34.7935C21.8131 35.0562 22.1195 35.4296 22.3004 35.8664C22.4814 36.3032 22.5287 36.7839 22.4365 37.2476C22.3442 37.7114 22.1166 38.1373 21.7822 38.4717C21.4479 38.806 21.0219 39.0337 20.5582 39.1259C20.0944 39.2182 19.6138 39.1708 19.1769 38.9899C18.7401 38.809 18.3667 38.5025 18.1041 38.1094C17.8414 37.7163 17.7012 37.2541 17.7012 36.7813C17.7019 36.1474 17.954 35.5398 18.4022 35.0916C18.8503 34.6435 19.458 34.3914 20.0918 34.3906Z" fill="#E30D42"/>
<path d="M29.6543 40.7656C30.4423 40.7656 31.2127 40.5319 31.8679 40.0941C32.5231 39.6563 33.0338 39.0341 33.3354 38.306C33.6369 37.578 33.7159 36.7768 33.5621 36.0039C33.4084 35.231 33.0289 34.5211 32.4717 33.9639C31.9145 33.4066 31.2045 33.0272 30.4316 32.8734C29.6587 32.7197 28.8576 32.7986 28.1295 33.1002C27.4015 33.4017 26.7792 33.9124 26.3414 34.5677C25.9036 35.2229 25.6699 35.9932 25.6699 36.7813C25.6711 37.8376 26.0913 38.8504 26.8382 39.5973C27.5852 40.3443 28.5979 40.7644 29.6543 40.7656ZM29.6543 34.3906C30.1271 34.3906 30.5893 34.5308 30.9825 34.7935C31.3756 35.0562 31.682 35.4296 31.8629 35.8664C32.0439 36.3032 32.0912 36.7839 31.999 37.2476C31.9067 37.7114 31.6791 38.1373 31.3447 38.4717C31.0104 38.806 30.5844 39.0337 30.1207 39.1259C29.6569 39.2182 29.1763 39.1708 28.7394 38.9899C28.3026 38.809 27.9293 38.5025 27.6666 38.1094C27.4039 37.7163 27.2637 37.2541 27.2637 36.7813C27.2644 36.1474 27.5165 35.5398 27.9647 35.0916C28.4128 34.6435 29.0205 34.3914 29.6543 34.3906Z" fill="#E30D42"/>
<path d="M7.3418 20.8438H25.6699V28.0156H27.2637V20.0469C27.2637 19.8745 27.2078 19.7067 27.1043 19.5688L22.3231 13.1938C22.2489 13.0948 22.1526 13.0145 22.0419 12.9591C21.9313 12.9038 21.8093 12.875 21.6855 12.875H20.8887V8.89062H22.1306C22.2979 8.89045 22.4609 8.94301 22.5967 9.04083C22.7324 9.13865 22.8338 9.27675 22.8865 9.43551L23.3202 10.7364C23.3532 10.8357 23.4055 10.9276 23.474 11.0067C23.5426 11.0858 23.626 11.1506 23.7197 11.1974C23.8133 11.2442 23.9152 11.2721 24.0197 11.2795C24.1241 11.2868 24.2289 11.2735 24.3282 11.2403L26.7188 10.4435C26.8219 10.4091 26.9168 10.3541 26.9977 10.2818C27.0787 10.2094 27.1441 10.1213 27.1897 10.0228C27.2354 9.92426 27.2605 9.81745 27.2634 9.70891C27.2663 9.60036 27.247 9.49236 27.2067 9.39154L26.4144 7.41093C26.1208 6.67005 25.6109 6.0348 24.951 5.58802C24.2911 5.14124 23.5119 4.90366 22.715 4.90625H20.8887V3.3125C20.8887 3.10116 20.8047 2.89847 20.6553 2.74903C20.5058 2.59958 20.3031 2.51563 20.0918 2.51562H12.9199C12.7086 2.51563 12.5059 2.59958 12.3564 2.74903C12.207 2.89847 12.123 3.10116 12.123 3.3125V12.875H11.3262C11.2025 12.875 11.0804 12.9038 10.9698 12.9591C10.8591 13.0145 10.7629 13.0948 10.6886 13.1938L5.90738 19.5688C5.80396 19.7067 5.74806 19.8745 5.74805 20.0469V28.0156H7.3418V20.8438ZM22.715 6.5C23.1932 6.49844 23.6607 6.64099 24.0566 6.90905C24.4525 7.17712 24.7585 7.55827 24.9346 8.0028L25.413 9.19879L24.5802 9.47641L24.3985 8.93153C24.2403 8.45528 23.936 8.04101 23.5288 7.74757C23.1217 7.45412 22.6324 7.29643 22.1306 7.29688H20.8887V6.5H22.715ZM19.2949 4.10938V8.89062H13.7168V4.10938H19.2949ZM13.7168 10.4844H19.2949V12.875H13.7168V10.4844ZM11.7246 14.4688H21.2871L24.873 19.25H8.13867L11.7246 14.4688Z" fill="#E30D42"/>
<path d="M49.5762 9.6875H28.8574C28.6461 9.6875 28.4434 9.77146 28.2939 9.9209C28.1445 10.0703 28.0605 10.273 28.0605 10.4844V13.6719C28.0606 13.7131 28.0637 13.7542 28.0701 13.7949L30.3113 28.1386L31.886 27.8926L29.7885 14.4688H48.6451L44.9098 38.375H39.2168V39.9688H44.7949V43.1562H39.2168V45.5469H40.8105C41.0219 45.5469 41.2246 45.4629 41.3741 45.3135L41.9375 44.75H44.7949V48.7344H39.2168V50.3281H45.5918C45.8031 50.3281 46.0058 50.2442 46.1553 50.0947C46.3047 49.9453 46.3887 49.7426 46.3887 49.5312V39.2339L50.3635 13.7949C50.3699 13.7542 50.373 13.7131 50.373 13.6719V10.4844C50.373 10.273 50.2891 10.0703 50.1396 9.9209C49.9902 9.77146 49.7875 9.6875 49.5762 9.6875ZM48.7793 11.2812V12.875H29.6543V11.2812H48.7793Z" fill="#E30D42"/>
</svg>
