<svg width="51" height="51" viewBox="0 0 51 51" fill="none" xmlns="http://www.w3.org/2000/svg">
<path d="M42.3487 2.85937C42.1843 2.73605 41.9779 2.6825 41.7742 2.71032C41.5706 2.73814 41.3861 2.8451 41.2608 3.00801L33.6828 12.8594H18.4425C18.2353 12.8594 18.0366 12.9417 17.8901 13.0882C17.7436 13.2347 17.6613 13.4334 17.6613 13.6406V14.8795L9.84875 7.06698V5.04686C9.84875 4.83966 9.76644 4.64095 9.61993 4.49444C9.47342 4.34793 9.2747 4.26562 9.0675 4.26561H5.16125C4.33245 4.26561 3.5376 4.59485 2.95155 5.18091C2.3655 5.76696 2.03625 6.56181 2.03625 7.39061C2.03625 8.21942 2.3655 9.01427 2.95155 9.60032C3.5376 10.1864 4.33245 10.5156 5.16125 10.5156H6.40012L17.6613 21.7767V24.5781C17.6624 25.6138 18.0744 26.6066 18.8067 27.3389C19.539 28.0713 20.5319 28.4832 21.5675 28.4844H24.3689L28.6657 32.7812L24.0864 37.3606C22.9183 36.9697 21.6524 36.9848 20.494 37.4036C19.3356 37.8223 18.3526 38.62 17.7044 39.6674C17.0562 40.7149 16.7809 41.9505 16.923 43.1741C17.0651 44.3976 17.6163 45.5373 18.4873 46.4083C19.3582 47.2792 20.4979 47.8305 21.7214 47.9726C22.945 48.1147 24.1806 47.8393 25.2281 47.1912C26.2755 46.543 27.0732 45.56 27.492 44.4016C27.9107 43.2432 27.9259 41.9773 27.535 40.8092L32.1144 36.2299L36.6942 40.8097C36.3022 41.9789 36.3167 43.2463 36.7353 44.4062C37.154 45.5661 37.9522 46.5506 39.0006 47.1999C40.049 47.8492 41.286 48.1253 42.511 47.9833C43.736 47.8414 44.8771 47.2897 45.7491 46.4178C46.6212 45.546 47.1732 44.405 47.3155 43.1801C47.4577 41.9551 47.182 40.718 46.5329 39.6695C45.8839 38.6209 44.8996 37.8224 43.7398 37.4035C42.5799 36.9846 41.3126 36.9698 40.1433 37.3615L35.563 32.7812L39.8599 28.4844H45.005C46.0406 28.4832 47.0335 28.0713 47.7658 27.3389C48.4981 26.6066 48.9101 25.6138 48.9113 24.5781V15.9844C48.9052 13.4384 48.3096 10.9285 47.171 8.65138C46.0324 6.37423 44.3819 4.39175 42.3487 2.85937ZM34.0675 14.4219C34.3765 14.4219 34.6786 14.5135 34.9356 14.6852C35.1925 14.8569 35.3928 15.1009 35.5111 15.3864C35.6293 15.6719 35.6603 15.9861 35.6 16.2892C35.5397 16.5923 35.3909 16.8707 35.1724 17.0892C34.9538 17.3077 34.6754 17.4566 34.3723 17.5168C34.0692 17.5771 33.7551 17.5462 33.4696 17.4279C33.1841 17.3097 32.94 17.1094 32.7683 16.8524C32.5966 16.5955 32.505 16.2934 32.505 15.9844C32.5055 15.5701 32.6703 15.173 32.9632 14.88C33.2561 14.5871 33.6532 14.4223 34.0675 14.4219ZM19.2238 14.4219H31.3629C31.0875 14.8965 30.9425 15.4356 30.9425 15.9844C30.9425 16.5331 31.0875 17.0722 31.3629 17.5469H20.3286L19.2238 16.442V14.4219ZM5.9425 7.39061V8.95311H5.16125C4.74685 8.95311 4.34943 8.78849 4.0564 8.49547C3.76337 8.20244 3.59875 7.80502 3.59875 7.39061C3.59875 6.97621 3.76337 6.57879 4.0564 6.28576C4.34943 5.99273 4.74685 5.82811 5.16125 5.82811H8.28625V6.60936H6.72375C6.51656 6.60937 6.31784 6.69168 6.17133 6.83819C6.02482 6.9847 5.94251 7.18341 5.9425 7.39061ZM21.5675 26.9219C20.9461 26.9212 20.3504 26.674 19.911 26.2346C19.4716 25.7952 19.2245 25.1995 19.2238 24.5781V23.3392L22.8064 26.9219H21.5675ZM22.3488 46.4531C21.3128 46.4531 20.3192 46.0416 19.5866 45.309C18.8541 44.5764 18.4425 43.5829 18.4425 42.5469C18.4425 41.5109 18.8541 40.5173 19.5866 39.7847C20.3192 39.0522 21.3128 38.6406 22.3488 38.6406C22.4936 38.6407 22.6384 38.6487 22.7824 38.6646L20.7192 40.7278C20.2626 41.1852 20.0062 41.8053 20.0065 42.4516C20.0068 43.098 20.2637 43.7178 20.7208 44.1749C21.1779 44.6319 21.7977 44.8888 22.444 44.8891C23.0904 44.8894 23.7104 44.633 24.1679 44.1764L26.231 42.1132C26.2469 42.2572 26.2549 42.402 26.255 42.5469C26.2538 43.5825 25.8419 44.5754 25.1096 45.3077C24.3773 46.04 23.3844 46.4519 22.3488 46.4531ZM23.063 43.0715C22.9816 43.1529 22.885 43.2174 22.7788 43.2614C22.6725 43.3054 22.5586 43.3281 22.4435 43.3281C22.3285 43.3281 22.2146 43.3054 22.1083 43.2614C22.002 43.2174 21.9054 43.1528 21.8241 43.0715C21.7427 42.9901 21.6782 42.8936 21.6342 42.7873C21.5902 42.681 21.5675 42.5671 21.5675 42.452C21.5675 42.337 21.5902 42.2231 21.6342 42.1168C21.6783 42.0105 21.7428 41.9139 21.8241 41.8326L29.7706 33.8861L31.0095 35.125L23.063 43.0715ZM41.88 38.6406C42.6526 38.6406 43.4078 38.8697 44.0502 39.2989C44.6926 39.7282 45.1933 40.3382 45.4889 41.052C45.7846 41.7658 45.8619 42.5512 45.7112 43.3089C45.5605 44.0667 45.1884 44.7627 44.6421 45.309C44.0958 45.8553 43.3998 46.2273 42.6421 46.3781C41.8843 46.5288 41.0989 46.4514 40.3851 46.1558C39.6714 45.8601 39.0613 45.3594 38.6321 44.7171C38.2029 44.0747 37.9738 43.3194 37.9738 42.5469C37.9738 42.4019 37.9817 42.257 37.9975 42.1129L40.0609 44.1764C40.5182 44.6337 41.1384 44.8906 41.7852 44.8906C42.4319 44.8906 43.0522 44.6337 43.5095 44.1764C43.9668 43.7191 44.2237 43.0988 44.2238 42.4521C44.2238 41.8054 43.9669 41.1851 43.5095 40.7278L41.4468 38.665C41.5906 38.649 41.7353 38.6408 41.88 38.6406ZM42.4046 41.8326C42.486 41.9139 42.5505 42.0105 42.5945 42.1168C42.6386 42.2231 42.6612 42.337 42.6612 42.452C42.6612 42.5671 42.6386 42.681 42.5946 42.7873C42.5505 42.8936 42.486 42.9901 42.4047 43.0715C42.3233 43.1528 42.2268 43.2174 42.1205 43.2614C42.0142 43.3054 41.9003 43.3281 41.7852 43.3281C41.6702 43.3281 41.5563 43.3054 41.45 43.2614C41.3437 43.2174 41.2471 43.1529 41.1658 43.0715L7.505 9.41073V8.17186H8.74392L42.4046 41.8326ZM31.2661 28.4844H32.9626L32.1144 29.3326L31.2661 28.4844ZM34.4581 31.6764L33.2193 30.4375L35.1724 28.4844H37.6501L34.4581 31.6764ZM47.3488 24.5781C47.3481 25.1995 47.1009 25.7952 46.6615 26.2346C46.2221 26.674 45.6264 26.9212 45.005 26.9219H29.7036L21.8911 19.1094H47.3488V24.5781ZM47.3488 17.5469H36.7721C36.9943 17.1646 37.1323 16.7392 37.1767 16.2992L40.9014 12.1089L39.7336 11.0708L36.7653 14.4101C36.4496 13.871 35.9805 13.4381 35.4179 13.1665L42.0163 4.58858C43.6813 5.98516 45.0212 7.72859 45.9423 9.69697C46.8634 11.6653 47.3434 13.8112 47.3488 15.9844V17.5469Z" fill="#E30D42"/>
<path d="M42.0773 8.43404L40.6884 9.99658L41.8563 11.0347L43.2452 9.47211L42.0773 8.43404Z" fill="#E30D42"/>
</svg>
