<svg width="51" height="51" viewBox="0 0 51 51" fill="none" xmlns="http://www.w3.org/2000/svg">
<path d="M44.0077 9.53687V4.84937C44.0077 4.72808 43.9794 4.60845 43.9252 4.49997C43.8709 4.39148 43.7922 4.29711 43.6952 4.22433L40.5702 1.88058L40.5696 1.88129C40.4348 1.77945 40.2704 1.72436 40.1014 1.72437H14.3202C14.1512 1.72435 13.9868 1.77945 13.852 1.88129L13.8515 1.88058L10.7265 4.22433C10.6294 4.29711 10.5507 4.39148 10.4964 4.49997C10.4422 4.60845 10.414 4.72808 10.4139 4.84937V6.41187H9.63269C8.80418 6.41281 8.00987 6.74236 7.42403 7.3282C6.83818 7.91405 6.50864 8.70835 6.50769 9.53687V16.6433C6.50923 17.2359 6.67858 17.816 6.99615 18.3164C7.31372 18.8169 7.76652 19.2171 8.30212 19.4708L18.8917 24.4541C19.1595 24.581 19.3859 24.7812 19.5447 25.0314C19.7035 25.2816 19.7882 25.5716 19.7889 25.868V28.2869H17.4452C17.238 28.2869 17.0393 28.3692 16.8928 28.5157C16.7463 28.6622 16.664 28.8609 16.6639 29.0681V31.4119C16.6639 31.5332 16.6922 31.6528 16.7464 31.7613L17.4452 33.1588V47.8181C17.4452 48.0253 17.5275 48.224 17.674 48.3705C17.8205 48.517 18.0192 48.5994 18.2264 48.5994H22.9139C23.1211 48.5994 23.3198 48.517 23.4664 48.3705C23.6129 48.224 23.6952 48.0253 23.6952 47.8181V33.1588L24.3939 31.7613C24.4482 31.6528 24.4764 31.5332 24.4764 31.4119V29.0681C24.4764 28.8609 24.3941 28.6622 24.2476 28.5157C24.1011 28.3692 23.9024 28.2869 23.6952 28.2869H21.3514V25.868C21.3499 25.2753 21.1805 24.6952 20.863 24.1948C20.5454 23.6944 20.0926 23.2941 19.557 23.0404L8.96741 18.0571C8.69961 17.9302 8.47321 17.7301 8.31443 17.4799C8.15564 17.2297 8.07096 16.9396 8.07019 16.6433V9.53687C8.07066 9.12261 8.23544 8.72546 8.52836 8.43253C8.82128 8.13961 9.21844 7.97484 9.63269 7.97437H10.4139V9.53687C10.414 9.65816 10.4422 9.77778 10.4964 9.88626C10.5507 9.99475 10.6294 10.0891 10.7265 10.1619L13.8515 12.5057L13.852 12.5049C13.9868 12.6068 14.1512 12.6619 14.3202 12.6619H40.1014C40.2704 12.6619 40.4348 12.6068 40.5696 12.5049L40.5702 12.5057L43.6952 10.1619C43.7922 10.0891 43.8709 9.99475 43.9252 9.88626C43.9794 9.77778 44.0077 9.65816 44.0077 9.53687ZM22.9139 31.2274L22.2152 32.6249C22.1609 32.7334 22.1327 32.8531 22.1327 32.9744V47.0369H19.0077V32.9744C19.0077 32.8531 18.9795 32.7334 18.9252 32.6249L18.2264 31.2274V29.8494H22.9139V31.2274ZM11.9764 5.23999L13.5389 4.06812V10.3181L11.9764 9.14624V5.23999ZM39.3202 11.0994H15.1014V3.28687H39.3202V11.0994ZM42.4452 9.14624L40.8827 10.3181V4.06812L42.4452 5.23999V9.14624Z" fill="#E30D42"/>
<path d="M41.6639 29.8494V15.0056C41.6639 14.7984 41.5816 14.5997 41.4351 14.4532C41.2886 14.3067 41.0899 14.2244 40.8827 14.2244H26.8202C26.613 14.2244 26.4143 14.3067 26.2678 14.4532C26.1213 14.5997 26.0389 14.7984 26.0389 15.0056V29.8494C26.038 30.6991 26.2473 31.5359 26.6483 32.2851C27.0493 33.0343 27.6294 33.6726 28.3369 34.1432L30.639 35.6779L29.2475 42.6353C29.0734 43.5059 29.1728 44.409 29.532 45.2209C29.8911 46.0328 30.4925 46.7138 31.2538 47.1707L33.4495 48.4881C33.5709 48.5609 33.7098 48.5994 33.8514 48.5994C33.993 48.5994 34.132 48.5609 34.2534 48.4881L36.4491 47.1707C37.2103 46.7138 37.8117 46.0328 38.1709 45.2209C38.5301 44.409 38.6295 43.5059 38.4554 42.6353L37.0639 35.6779L39.366 34.1432C40.0735 33.6726 40.6536 33.0343 41.0546 32.2851C41.4555 31.5359 41.6649 30.6991 41.6639 29.8494ZM27.6014 23.5994H40.1014V25.1619H30.7264V26.7244H40.1014V29.0681H27.6014V23.5994ZM40.1014 22.0369H37.7577V15.7869H40.1014V22.0369ZM27.6014 15.7869H29.9452V20.4744H31.5077V15.7869H33.0702V20.4744H34.6327V15.7869H36.1952V22.0369H27.6014V15.7869ZM38.4993 32.8431L35.7618 34.6681C35.633 34.754 35.5326 34.8761 35.4734 35.0192C35.4142 35.1622 35.3987 35.3196 35.4291 35.4714L36.9232 42.9418C37.0341 43.4964 36.9708 44.0716 36.742 44.5888C36.5132 45.106 36.1301 45.5398 35.6451 45.8308L33.8514 46.9071L32.0578 45.8308C31.5728 45.5398 31.1897 45.106 30.9609 44.5888C30.7321 44.0716 30.6688 43.4964 30.7796 42.9418L32.2738 35.4714C32.3041 35.3196 32.2887 35.1622 32.2295 35.0192C32.1702 34.8761 32.0698 34.754 31.941 34.6681L29.2036 32.8431C28.4316 32.3291 27.8886 31.5362 27.6885 30.6306H40.0144C39.8143 31.5362 39.2713 32.3291 38.4993 32.8431Z" fill="#E30D42"/>
<path d="M33.8514 43.9119C34.2829 43.9119 34.6327 43.5621 34.6327 43.1306C34.6327 42.6991 34.2829 42.3494 33.8514 42.3494C33.42 42.3494 33.0702 42.6991 33.0702 43.1306C33.0702 43.5621 33.42 43.9119 33.8514 43.9119Z" fill="#E30D42"/>
</svg>
