<svg width="50" height="51" viewBox="0 0 50 51" fill="none" xmlns="http://www.w3.org/2000/svg">
<path d="M45.8452 21.0295H35.1563V22.592H42.9685C43.0807 22.5921 43.1917 22.6163 43.2937 22.663C43.3958 22.7098 43.4866 22.778 43.5599 22.863C43.6333 22.948 43.6874 23.0478 43.7187 23.1556C43.75 23.2634 43.7577 23.3767 43.7412 23.4877L41.0792 41.4566C41.0508 41.6415 40.9574 41.8103 40.8157 41.9325C40.6741 42.0547 40.4935 42.1223 40.3064 42.1233H17.436C17.3238 42.1233 17.2128 42.0991 17.1107 42.0524C17.0087 42.0056 16.9179 41.9374 16.8445 41.8524C16.7712 41.7674 16.717 41.6676 16.6858 41.5598C16.6545 41.452 16.6468 41.3387 16.6633 41.2276L18.2497 30.519L16.704 30.2901L15.1176 40.9986C15.0615 41.3768 15.0989 41.7629 15.2264 42.1233H3.90625C3.28465 42.1233 2.68851 42.3702 2.24897 42.8098C1.80943 43.2493 1.5625 43.8454 1.5625 44.467C1.5625 45.0886 1.80943 45.6848 2.24897 46.1243C2.68851 46.5639 3.28465 46.8108 3.90625 46.8108H42.9688C43.4085 46.8112 43.8395 46.6877 44.2124 46.4545C44.5852 46.2213 44.8849 45.8879 45.0771 45.4923C45.2693 45.0968 45.3462 44.6551 45.299 44.2179C45.2519 43.7806 45.0825 43.3655 44.8104 43.02C45.1818 42.6636 45.4248 42.1945 45.5017 41.6856L48.1637 23.7167C48.2131 23.3835 48.19 23.0436 48.0962 22.7202C48.0023 22.3967 47.8398 22.0972 47.6198 21.8422C47.3998 21.5872 47.1274 21.3826 46.8211 21.2424C46.5149 21.1021 46.182 21.0295 45.8452 21.0295ZM3.125 44.467C3.12524 44.2599 3.20762 44.0613 3.35409 43.9149C3.50055 43.7684 3.69912 43.686 3.90625 43.6858H21.2282C21.049 44.1912 21.049 44.7429 21.2282 45.2483H3.90625C3.69912 45.2481 3.50055 45.1657 3.35409 45.0192C3.20762 44.8727 3.12524 44.6742 3.125 44.467ZM42.9688 45.2483H23.4375C23.2303 45.2483 23.0316 45.166 22.8851 45.0195C22.7386 44.873 22.6563 44.6742 22.6563 44.467C22.6563 44.2598 22.7386 44.0611 22.8851 43.9146C23.0316 43.7681 23.2303 43.6858 23.4375 43.6858H42.9688C43.176 43.6858 43.3747 43.7681 43.5212 43.9146C43.6677 44.0611 43.75 44.2598 43.75 44.467C43.75 44.6742 43.6677 44.873 43.5212 45.0195C43.3747 45.166 43.176 45.2483 42.9688 45.2483ZM46.618 23.4877L43.9561 41.4565C43.9277 41.6414 43.8343 41.8102 43.6926 41.9324C43.5509 42.0547 43.3703 42.1223 43.1831 42.1233H42.5144C42.5654 41.9813 42.6024 41.8347 42.6249 41.6856L45.287 23.7167C45.343 23.3386 45.3056 22.9524 45.1781 22.592H45.8452C45.9575 22.592 46.0685 22.6162 46.1705 22.663C46.2726 22.7097 46.3634 22.7779 46.4367 22.8629C46.5101 22.9479 46.5642 23.0477 46.5955 23.1556C46.6268 23.2634 46.6345 23.3767 46.618 23.4877Z" fill="#E30D42"/>
<path d="M39.8438 33.5295H32.8125C32.6245 33.5295 32.4427 33.5974 32.3007 33.7206C32.1586 33.8438 32.0657 34.0141 32.0391 34.2003L31.2578 39.669C31.242 39.7798 31.2502 39.8927 31.2818 40.0001C31.3134 40.1075 31.3677 40.2068 31.4411 40.2914C31.5144 40.376 31.6051 40.4438 31.7069 40.4903C31.8087 40.5367 31.9193 40.5608 32.0313 40.5608H39.0625C39.2506 40.5608 39.4323 40.493 39.5744 40.3697C39.7165 40.2465 39.8093 40.0762 39.836 39.8901L40.6172 34.4213C40.633 34.3105 40.6249 34.1976 40.5933 34.0902C40.5616 33.9828 40.5073 33.8835 40.434 33.7989C40.3607 33.7144 40.27 33.6466 40.1682 33.6001C40.0663 33.5536 39.9557 33.5295 39.8438 33.5295ZM38.3849 38.9983H32.932L33.4901 35.092H38.943L38.3849 38.9983Z" fill="#E30D42"/>
<path d="M22.6562 35.8733H19.5312V37.4358H22.6562V35.8733Z" fill="#E30D42"/>
<path d="M25.7812 35.8733H24.2188V37.4358H25.7812V35.8733Z" fill="#E30D42"/>
<path d="M30.4688 35.8733H27.3438V37.4358H30.4688V35.8733Z" fill="#E30D42"/>
<path d="M21.875 38.9983H18.75V40.5608H21.875V38.9983Z" fill="#E30D42"/>
<path d="M29.6875 38.9983H28.125V40.5608H29.6875V38.9983Z" fill="#E30D42"/>
<path d="M26.5625 38.9983H23.4375V40.5608H26.5625V38.9983Z" fill="#E30D42"/>
<path d="M21.0938 3.84204V3.84319C21.0753 3.84316 21.0569 3.84276 21.0384 3.84404C20.9267 3.85196 20.8181 3.88379 20.7198 3.93736C20.6215 3.99094 20.5359 4.06501 20.4687 4.15456L18.2012 7.17785L14.7153 7.75888C14.6599 7.76812 14.6058 7.78331 14.5537 7.80418L10.6474 9.36668C10.4571 9.44267 10.3043 9.59048 10.2221 9.77819L7.09859 16.806C7.01943 16.9841 7.0097 17.1854 7.07131 17.3704L8.63381 22.0579C8.66748 22.1589 8.72143 22.2519 8.79236 22.3313C8.86329 22.4107 8.94969 22.4748 9.04627 22.5195C9.14285 22.5643 9.24756 22.5889 9.35398 22.5918C9.46039 22.5946 9.56627 22.5757 9.66511 22.5362L13.5714 20.9737C13.7445 20.9044 13.8872 20.7756 13.9736 20.6103C14.06 20.445 14.0844 20.2543 14.0425 20.0726L13.1786 16.3291L14.8438 15.8295V27.2795C14.8438 27.4509 14.9001 27.6175 15.0042 27.7537C15.1082 27.8899 15.2541 27.9881 15.4195 28.0332C18.2872 28.815 21.2464 29.211 24.2188 29.2107C27.1911 29.211 30.1503 28.815 33.018 28.0332C33.1834 27.9881 33.3293 27.8899 33.4333 27.7537C33.5374 27.6175 33.5937 27.4509 33.5938 27.2795V15.8152L43.5354 18.6558C43.729 18.7111 43.9365 18.6896 44.1146 18.5957C44.2927 18.5017 44.4276 18.3427 44.4912 18.1516L46.0537 13.4641C46.1167 13.2751 46.1051 13.0691 46.0212 12.8883C45.9374 12.7076 45.7876 12.5657 45.6026 12.4917L33.8839 7.80418C33.8318 7.78331 33.7776 7.76812 33.7222 7.75888L30.2363 7.17785L27.9688 4.15456C27.9016 4.06501 27.816 3.99094 27.7177 3.93736C27.6195 3.88379 27.5108 3.85196 27.3992 3.84404C27.3807 3.84276 27.3622 3.84314 27.3438 3.84319V3.84204H21.0938ZM24.2188 6.64336L22.9799 5.40454H25.4576L24.2188 6.64336ZM21.1783 5.81271L23.1872 7.82163L21.7905 9.68387L19.7816 7.67495L21.1783 5.81271ZM9.85413 20.7777L8.64945 17.1637L10.7019 12.5457L12.3695 19.7715L9.85413 20.7777ZM16.0914 14.1528C15.9936 14.0801 15.8803 14.0313 15.7603 14.0101C15.6404 13.989 15.5172 13.9962 15.4005 14.0312L12.8265 14.8034L11.8493 10.5688L15.0555 9.28628L18.5934 8.69662L21.3225 11.4258C21.4691 11.5722 21.6677 11.6545 21.8749 11.6545C21.8934 11.6545 21.9119 11.6539 21.9304 11.6525C22.0421 11.6446 22.1507 11.6128 22.249 11.5592C22.3473 11.5056 22.4329 11.4316 22.5 11.342L23.4375 10.0921V27.6377C21.0653 27.5801 18.707 27.2579 16.4063 26.677V14.7795C16.4063 14.6578 16.3778 14.5376 16.3231 14.4288C16.2685 14.32 16.1891 14.2255 16.0914 14.1528ZM44.3384 13.6688L43.2454 16.9478L33.0271 14.0283C32.9108 13.9951 32.7884 13.9894 32.6696 14.0115C32.5507 14.0336 32.4386 14.083 32.342 14.1559C32.2455 14.2287 32.1672 14.3229 32.1133 14.4311C32.0593 14.5394 32.0313 14.6586 32.0313 14.7795V26.677C29.7306 27.2579 27.3722 27.5801 25 27.6377V10.0921L25.9375 11.342C26.0046 11.4316 26.0902 11.5056 26.1885 11.5592C26.2868 11.6128 26.3954 11.6446 26.5071 11.6525C26.5256 11.6539 26.5441 11.6545 26.5626 11.6545C26.7698 11.6545 26.9685 11.5722 27.115 11.4258L29.8441 8.69662L33.382 9.28628L44.3384 13.6688ZM28.6559 7.67495L26.647 9.68387L25.2503 7.82163L27.2593 5.81272L28.6559 7.67495Z" fill="#E30D42"/>
<path d="M41.4062 28.0608C41.4063 27.9322 41.3745 27.8055 41.3138 27.6922C41.2531 27.5788 41.1654 27.4821 41.0583 27.4108L36.3708 24.2858C36.2532 24.2073 36.1165 24.1623 35.9752 24.1555C35.834 24.1486 35.6935 24.1803 35.5689 24.247C35.4442 24.3137 35.34 24.413 35.2673 24.5343C35.1946 24.6556 35.1562 24.7944 35.1563 24.9358V31.1858C35.1562 31.3272 35.1946 31.4659 35.2673 31.5873C35.34 31.7086 35.4442 31.8079 35.5689 31.8746C35.6935 31.9413 35.834 31.973 35.9752 31.9661C36.1165 31.9593 36.2532 31.9143 36.3708 31.8358L41.0583 28.7108C41.1654 28.6395 41.2531 28.5428 41.3138 28.4294C41.3745 28.316 41.4063 28.1894 41.4062 28.0608ZM36.7188 29.726V26.3956L39.2166 28.0608L36.7188 29.726Z" fill="#E30D42"/>
<path d="M7.37915 28.7108L12.0667 31.8358C12.1843 31.9143 12.321 31.9593 12.4623 31.9661C12.6035 31.973 12.744 31.9413 12.8686 31.8746C12.9933 31.8079 13.0975 31.7086 13.1702 31.5873C13.2429 31.466 13.2813 31.3272 13.2812 31.1858V24.9358C13.2813 24.7944 13.2429 24.6556 13.1702 24.5343C13.0975 24.413 12.9933 24.3137 12.8686 24.247C12.744 24.1803 12.6035 24.1486 12.4623 24.1555C12.321 24.1623 12.1843 24.2073 12.0667 24.2858L7.37915 27.4108C7.27213 27.4821 7.18438 27.5788 7.12369 27.6922C7.063 27.8056 7.03125 27.9322 7.03125 28.0608C7.03125 28.1894 7.063 28.316 7.12369 28.4294C7.18438 28.5428 7.27213 28.6395 7.37915 28.7108ZM11.7188 26.3956V29.726L9.22089 28.0608L11.7188 26.3956Z" fill="#E30D42"/>
</svg>
