<svg width="50" height="51" viewBox="0 0 50 51" fill="none" xmlns="http://www.w3.org/2000/svg">
<path d="M2.34375 41.717H21.0938V40.1545H3.125V9.68579H36.7188V8.12329H3.125V3.43579H38.2812V14.3733H36.7188V11.2483H35.1562V25.3108H36.7188V20.6233H38.2812V25.3108H39.8438V2.65454C39.8438 2.55194 39.8235 2.45035 39.7843 2.35557C39.745 2.26078 39.6875 2.17465 39.6149 2.10211C39.5424 2.02956 39.4563 1.97201 39.3615 1.93275C39.2667 1.89349 39.1651 1.87329 39.0625 1.87329H2.34375C2.24115 1.87329 2.13956 1.89349 2.04478 1.93275C1.94999 1.97201 1.86386 2.02956 1.79132 2.10211C1.71877 2.17465 1.66122 2.26078 1.62196 2.35557C1.5827 2.45035 1.5625 2.55194 1.5625 2.65454V40.9358C1.5625 41.0384 1.5827 41.14 1.62196 41.2348C1.66122 41.3296 1.71877 41.4157 1.79132 41.4882C1.86386 41.5608 1.94999 41.6183 2.04478 41.6576C2.13956 41.6968 2.24115 41.717 2.34375 41.717ZM36.7188 19.0608V15.9358H38.2812V19.0608H36.7188Z" fill="#E30D42"/>
<path d="M25.7812 17.4983C25.8838 17.4983 25.9854 17.4781 26.0802 17.4388C26.175 17.3996 26.2611 17.342 26.3337 17.2695C26.4062 17.1969 26.4638 17.1108 26.503 17.016C26.5423 16.9212 26.5625 16.8196 26.5625 16.717V12.0295C26.5625 11.9269 26.5423 11.8254 26.503 11.7306C26.4638 11.6358 26.4062 11.5497 26.3337 11.4771C26.2611 11.4046 26.175 11.347 26.0802 11.3078C25.9854 11.2685 25.8838 11.2483 25.7812 11.2483H15.625C15.5224 11.2483 15.4208 11.2685 15.326 11.3078C15.2312 11.347 15.1451 11.4046 15.0726 11.4771C15 11.5497 14.9425 11.6358 14.9032 11.7306C14.864 11.8254 14.8437 11.9269 14.8438 12.0295V16.717C14.8437 16.8196 14.864 16.9212 14.9032 17.016C14.9425 17.1108 15 17.1969 15.0726 17.2695C15.1451 17.342 15.2312 17.3996 15.326 17.4388C15.4208 17.4781 15.5224 17.4983 15.625 17.4983H25.7812ZM16.4062 12.8108H25V15.9358H16.4062V12.8108Z" fill="#E30D42"/>
<path d="M15.625 19.842C15.625 19.7394 15.6048 19.6379 15.5655 19.5431C15.5263 19.4483 15.4687 19.3622 15.3962 19.2896C15.3236 19.2171 15.2375 19.1595 15.1427 19.1203C15.0479 19.081 14.9463 19.0608 14.8438 19.0608H5.46875C5.36615 19.0608 5.26456 19.081 5.16977 19.1203C5.07499 19.1595 4.98886 19.2171 4.91632 19.2896C4.84377 19.3622 4.78622 19.4483 4.74696 19.5431C4.7077 19.6379 4.6875 19.7394 4.6875 19.842V26.092C4.6875 26.1946 4.7077 26.2962 4.74696 26.391C4.78622 26.4858 4.84377 26.5719 4.91632 26.6445C4.98886 26.717 5.07499 26.7746 5.16977 26.8138C5.26456 26.8531 5.36615 26.8733 5.46875 26.8733H14.8438C14.9463 26.8733 15.0479 26.8531 15.1427 26.8138C15.2375 26.7746 15.3236 26.717 15.3962 26.6445C15.4687 26.5719 15.5263 26.4858 15.5655 26.391C15.6048 26.2962 15.625 26.1946 15.625 26.092V19.842ZM14.0625 25.3108H6.25V20.6233H14.0625V25.3108Z" fill="#E30D42"/>
<path d="M25 19.0608H33.5938V20.6233H25V19.0608Z" fill="#E30D42"/>
<path d="M20.3125 19.0608H23.4375V20.6233H20.3125V19.0608Z" fill="#E30D42"/>
<path d="M17.1875 22.1858H33.5938V23.7483H17.1875V22.1858Z" fill="#E30D42"/>
<path d="M17.1875 25.3108H27.3438V26.8733H17.1875V25.3108Z" fill="#E30D42"/>
<path d="M23.4375 29.217H25V30.7795H23.4375V29.217Z" fill="#E30D42"/>
<path d="M18.75 29.217H21.875V30.7795H18.75V29.217Z" fill="#E30D42"/>
<path d="M17.1875 32.342H22.6562V33.9045H17.1875V32.342Z" fill="#E30D42"/>
<path d="M28.125 36.2483V39.3733C28.125 39.4759 28.1452 39.5775 28.1845 39.6723C28.2237 39.7671 28.2813 39.8532 28.3538 39.9257C28.4264 39.9983 28.5125 40.0558 28.6073 40.0951C28.7021 40.1343 28.8037 40.1545 28.9062 40.1545H29.498L29.0796 40.5729C29.007 40.6455 28.9495 40.7316 28.9102 40.8264C28.8709 40.9211 28.8507 41.0227 28.8507 41.1253C28.8507 41.2279 28.8709 41.3295 28.9102 41.4243C28.9495 41.5191 29.007 41.6052 29.0796 41.6777L31.2893 43.8875C31.3618 43.96 31.448 44.0176 31.5428 44.0568C31.6375 44.0961 31.7391 44.1163 31.8417 44.1163C31.9443 44.1163 32.0459 44.0961 32.1407 44.0568C32.2355 44.0176 32.3216 43.96 32.3942 43.8875L32.8125 43.469V44.0608C32.8125 44.1634 32.8327 44.265 32.872 44.3598C32.9112 44.4546 32.9688 44.5407 33.0413 44.6132C33.1139 44.6858 33.2 44.7433 33.2948 44.7826C33.3896 44.8218 33.4912 44.842 33.5938 44.842H36.7188C36.8213 44.842 36.9229 44.8218 37.0177 44.7826C37.1125 44.7433 37.1986 44.6858 37.2712 44.6132C37.3437 44.5407 37.4013 44.4546 37.4405 44.3598C37.4798 44.265 37.5 44.1634 37.5 44.0608V43.4691L37.9184 43.8875C38.0649 44.034 38.2636 44.1163 38.4708 44.1163C38.678 44.1163 38.8767 44.034 39.0232 43.8875L41.2329 41.6777C41.3055 41.6052 41.363 41.5191 41.4023 41.4243C41.4416 41.3295 41.4618 41.2279 41.4618 41.1253C41.4618 41.0227 41.4416 40.9211 41.4023 40.8264C41.363 40.7316 41.3055 40.6455 41.2329 40.5729L40.8145 40.1545H41.4062C41.5088 40.1545 41.6104 40.1343 41.7052 40.0951C41.8 40.0558 41.8861 39.9983 41.9587 39.9257C42.0312 39.8532 42.0888 39.7671 42.128 39.6723C42.1673 39.5775 42.1875 39.4759 42.1875 39.3733V36.2483C42.1875 36.1457 42.1673 36.0441 42.128 35.9493C42.0888 35.8545 42.0312 35.7684 41.9587 35.6959C41.8861 35.6233 41.8 35.5658 41.7052 35.5265C41.6104 35.4872 41.5088 35.467 41.4062 35.467H40.8145L41.2329 35.0486C41.3055 34.9761 41.363 34.89 41.4023 34.7952C41.4415 34.7004 41.4617 34.5988 41.4617 34.4962C41.4617 34.3936 41.4415 34.292 41.4023 34.1972C41.363 34.1024 41.3055 34.0163 41.2329 33.9438L39.0232 31.7341C38.9507 31.6616 38.8645 31.604 38.7698 31.5647C38.675 31.5255 38.5734 31.5053 38.4708 31.5053C38.3682 31.5053 38.2666 31.5255 38.1718 31.5647C38.077 31.604 37.9909 31.6616 37.9184 31.7341L37.5 32.1525V31.5608C37.5 31.4582 37.4798 31.3566 37.4405 31.2618C37.4013 31.167 37.3437 31.0809 37.2712 31.0084C37.1986 30.9358 37.1125 30.8783 37.0177 30.839C36.9229 30.7997 36.8213 30.7795 36.7188 30.7795H33.5938C33.4912 30.7795 33.3896 30.7997 33.2948 30.839C33.2 30.8783 33.1139 30.9358 33.0413 31.0084C32.9688 31.0809 32.9112 31.167 32.872 31.2618C32.8327 31.3566 32.8125 31.4582 32.8125 31.5608V32.1525L32.3941 31.7341C32.3216 31.6616 32.2355 31.604 32.1407 31.5648C32.0459 31.5255 31.9443 31.5053 31.8417 31.5053C31.7391 31.5053 31.6375 31.5255 31.5427 31.5648C31.448 31.604 31.3618 31.6616 31.2893 31.7341L29.0796 33.9438C29.007 34.0163 28.9495 34.1025 28.9102 34.1972C28.871 34.292 28.8508 34.3936 28.8508 34.4962C28.8508 34.5988 28.871 34.7004 28.9102 34.7952C28.9495 34.89 29.007 34.9761 29.0796 35.0486L29.498 35.467H28.9062C28.8037 35.467 28.7021 35.4872 28.6073 35.5265C28.5125 35.5658 28.4264 35.6233 28.3538 35.6959C28.2813 35.7684 28.2237 35.8545 28.1845 35.9493C28.1452 36.0441 28.125 36.1457 28.125 36.2483ZM29.6875 37.0295H30.7394C30.9009 37.0295 31.0585 36.9795 31.1904 36.8862C31.3223 36.793 31.422 36.6612 31.4759 36.5089C31.5214 36.3796 31.5737 36.2529 31.6327 36.1292C31.7024 35.9834 31.7252 35.8195 31.6979 35.6602C31.6706 35.5009 31.5946 35.354 31.4803 35.2397L30.7368 34.4962L31.8417 33.3914L32.5851 34.1348C32.6994 34.2491 32.8464 34.3251 33.0057 34.3524C33.165 34.3797 33.3288 34.3569 33.4746 34.2872C33.5984 34.2283 33.7251 34.176 33.8543 34.1305C34.0066 34.0766 34.1384 33.9768 34.2317 33.8449C34.3249 33.713 34.375 33.5555 34.375 33.3939V32.342H35.9375V33.3939C35.9375 33.5555 35.9876 33.713 36.0808 33.8449C36.1741 33.9768 36.3059 34.0766 36.4582 34.1305C36.5874 34.176 36.7142 34.2283 36.8379 34.2872C36.9837 34.3569 37.1475 34.3797 37.3068 34.3524C37.4661 34.3251 37.6131 34.2491 37.7274 34.1348L38.4708 33.3914L39.5757 34.4962L38.8322 35.2397C38.7179 35.354 38.6419 35.5009 38.6146 35.6602C38.5873 35.8195 38.6101 35.9834 38.6798 36.1292C38.7388 36.2529 38.7911 36.3796 38.8366 36.5089C38.8905 36.6612 38.9902 36.793 39.1221 36.8862C39.254 36.9795 39.4116 37.0295 39.5731 37.0295H40.625V38.592H39.5731C39.4116 38.592 39.254 38.6421 39.1221 38.7354C38.9902 38.8286 38.8905 38.9604 38.8366 39.1127C38.7911 39.2419 38.7388 39.3687 38.6798 39.4924C38.6101 39.6382 38.5873 39.8021 38.6146 39.9614C38.6419 40.1207 38.7179 40.2676 38.8322 40.3819L39.5757 41.1253L38.4708 42.2302L37.7274 41.4868C37.6131 41.3725 37.4661 41.2964 37.3068 41.2691C37.1475 41.2419 36.9837 41.2646 36.8379 41.3344C36.7141 41.3933 36.5874 41.4456 36.4582 41.4911C36.3059 41.545 36.1741 41.6448 36.0808 41.7767C35.9876 41.9086 35.9375 42.0661 35.9375 42.2276V43.2795H34.375V42.2276C34.375 42.0661 34.3249 41.9086 34.2317 41.7767C34.1384 41.6448 34.0066 41.545 33.8543 41.4911C33.7251 41.4456 33.5983 41.3933 33.4746 41.3344C33.3288 41.2647 33.165 41.2419 33.0057 41.2692C32.8464 41.2964 32.6994 41.3725 32.5851 41.4867L31.8417 42.2302L30.7368 41.1253L31.4803 40.3819C31.5946 40.2676 31.6706 40.1207 31.6979 39.9614C31.7252 39.8021 31.7024 39.6382 31.6327 39.4924C31.5737 39.3687 31.5214 39.2419 31.4759 39.1127C31.422 38.9604 31.3223 38.8286 31.1904 38.7354C31.0585 38.6421 30.9009 38.592 30.7394 38.592H29.6875V37.0295Z" fill="#E30D42"/>
<path d="M35.1339 40.177C35.5975 40.177 36.0507 40.0395 36.4361 39.782C36.8215 39.5244 37.122 39.1584 37.2994 38.7301C37.4768 38.3018 37.5232 37.8305 37.4327 37.3759C37.3423 36.9212 37.1191 36.5036 36.7913 36.1758C36.4635 35.848 36.0458 35.6247 35.5912 35.5343C35.1365 35.4439 34.6652 35.4903 34.237 35.6677C33.8087 35.8451 33.4426 36.1455 33.1851 36.5309C32.9275 36.9164 32.79 37.3695 32.79 37.8331C32.7907 38.4545 33.0379 39.0503 33.4773 39.4897C33.9167 39.9291 34.5125 40.1763 35.1339 40.177ZM35.1339 37.0518C35.2885 37.0518 35.4395 37.0976 35.568 37.1835C35.6965 37.2693 35.7967 37.3914 35.8558 37.5341C35.9149 37.6769 35.9304 37.834 35.9003 37.9856C35.8701 38.1372 35.7957 38.2764 35.6864 38.3857C35.5771 38.4949 35.4379 38.5693 35.2863 38.5995C35.1348 38.6296 34.9776 38.6142 34.8349 38.555C34.6921 38.4959 34.5701 38.3957 34.4842 38.2672C34.3984 38.1387 34.3525 37.9876 34.3525 37.8331C34.3528 37.6259 34.4352 37.4273 34.5817 37.2809C34.7282 37.1344 34.9268 37.052 35.1339 37.0518V37.0518Z" fill="#E30D42"/>
<path d="M35.1562 26.8733C32.9958 26.8696 30.8828 27.5072 29.0849 28.7054C27.2871 29.9035 25.8854 31.6084 25.0573 33.6039L26.4995 34.2052C27.3223 32.2308 28.7956 30.597 30.6748 29.5751C32.554 28.5531 34.7261 28.2044 36.8307 28.5869C38.9353 28.9693 40.8459 30.0599 42.2454 31.6777C43.6449 33.2954 44.4492 35.343 44.5248 37.4808L43.5212 36.4771L42.4163 37.582L44.7601 39.9257C44.8326 39.9983 44.9187 40.0558 45.0135 40.0951C45.1083 40.1343 45.2099 40.1546 45.3125 40.1546C45.4151 40.1546 45.5167 40.1343 45.6115 40.0951C45.7062 40.0558 45.7924 39.9983 45.8649 39.9257L48.2087 37.582L47.1038 36.4771L46.0888 37.4922C46.0027 34.6489 44.8135 31.9507 42.773 29.9687C40.7325 27.9868 38.0008 26.8766 35.1562 26.8733Z" fill="#E30D42"/>
<path d="M24.2697 38.8646C24.4973 41.2122 25.4774 43.4233 27.0641 45.1683C28.6508 46.9134 30.759 48.0989 33.0744 48.548C35.3897 48.9972 37.7883 48.686 39.9124 47.6609C42.0365 46.6357 43.7724 44.9515 44.8612 42.8594L43.4756 42.1372C42.5533 43.9096 41.089 45.3411 39.296 46.223C37.5031 47.1049 35.4754 47.391 33.5085 47.0396C31.5415 46.6883 29.7383 45.7178 28.3616 44.2697C26.9849 42.8216 26.1067 40.9717 25.8551 38.9895L26.7913 39.9257L27.8962 38.8209L25.5524 36.4771C25.4059 36.3306 25.2072 36.2483 25 36.2483C24.7928 36.2483 24.5941 36.3306 24.4476 36.4771L22.1038 38.8209L23.2087 39.9257L24.2697 38.8646Z" fill="#E30D42"/>
<path d="M14.8438 29.217H5.46875C5.36615 29.217 5.26456 29.2372 5.16977 29.2765C5.07499 29.3158 4.98886 29.3733 4.91632 29.4459C4.84377 29.5184 4.78622 29.6045 4.74696 29.6993C4.7077 29.7941 4.6875 29.8957 4.6875 29.9983V36.2483C4.6875 36.3509 4.7077 36.4525 4.74696 36.5473C4.78622 36.6421 4.84377 36.7282 4.91632 36.8007C4.98886 36.8733 5.07499 36.9308 5.16977 36.9701C5.26456 37.0093 5.36615 37.0295 5.46875 37.0295H14.8438C14.9463 37.0295 15.0479 37.0093 15.1427 36.9701C15.2375 36.9308 15.3236 36.8733 15.3962 36.8007C15.4687 36.7282 15.5263 36.6421 15.5655 36.5473C15.6048 36.4525 15.625 36.3509 15.625 36.2483V29.9983C15.625 29.8957 15.6048 29.7941 15.5655 29.6993C15.5263 29.6045 15.4687 29.5184 15.3962 29.4459C15.3236 29.3733 15.2375 29.3158 15.1427 29.2765C15.0479 29.2372 14.9463 29.217 14.8438 29.217ZM14.0625 35.467H6.25V30.7795H14.0625V35.467Z" fill="#E30D42"/>
<path d="M5.46875 6.56079C5.90022 6.56079 6.25 6.21101 6.25 5.77954C6.25 5.34807 5.90022 4.99829 5.46875 4.99829C5.03728 4.99829 4.6875 5.34807 4.6875 5.77954C4.6875 6.21101 5.03728 6.56079 5.46875 6.56079Z" fill="#E30D42"/>
<path d="M8.59375 6.56079C9.02522 6.56079 9.375 6.21101 9.375 5.77954C9.375 5.34807 9.02522 4.99829 8.59375 4.99829C8.16228 4.99829 7.8125 5.34807 7.8125 5.77954C7.8125 6.21101 8.16228 6.56079 8.59375 6.56079Z" fill="#E30D42"/>
<path d="M11.7188 6.56079C12.1502 6.56079 12.5 6.21101 12.5 5.77954C12.5 5.34807 12.1502 4.99829 11.7188 4.99829C11.2873 4.99829 10.9375 5.34807 10.9375 5.77954C10.9375 6.21101 11.2873 6.56079 11.7188 6.56079Z" fill="#E30D42"/>
</svg>
