<svg width="50" height="51" viewBox="0 0 50 51" fill="none" xmlns="http://www.w3.org/2000/svg">
<path d="M44.5312 8.31079H11.7188C10.6831 8.31183 9.6901 8.72371 8.95776 9.45605C8.22542 10.1884 7.81354 11.1814 7.8125 12.217V20.8108H9.375V12.217C9.37582 11.5957 9.62302 11 10.0624 10.5607C10.5017 10.1213 11.0974 9.87411 11.7188 9.87329H44.5312C45.1526 9.87411 45.7483 10.1213 46.1876 10.5607C46.627 11 46.8742 11.5957 46.875 12.217V30.967H45.3125V12.9983C45.312 12.5841 45.1472 12.1869 44.8543 11.894C44.5613 11.6011 44.1642 11.4363 43.75 11.4358H12.5C12.0858 11.4363 11.6887 11.6011 11.3957 11.894C11.1028 12.1869 10.938 12.5841 10.9375 12.9983V20.8108H12.5V12.9983H43.75V30.967H21.875V32.5295H46.875V33.3108C46.8742 33.9321 46.627 34.5278 46.1876 34.9672C45.7483 35.4065 45.1526 35.6537 44.5312 35.6545H21.875V37.217H24.2188V39.5608C24.2179 40.1821 23.9707 40.7778 23.5314 41.2172C23.092 41.6565 22.4963 41.9037 21.875 41.9045C21.6678 41.9045 21.4691 41.9869 21.3226 42.1334C21.1761 42.2799 21.0938 42.4786 21.0938 42.6858C21.0938 42.893 21.1761 43.0917 21.3226 43.2382C21.4691 43.3847 21.6678 43.467 21.875 43.467H34.375C34.5822 43.467 34.7809 43.3847 34.9274 43.2382C35.0739 43.0917 35.1562 42.893 35.1562 42.6858C35.1562 42.4786 35.0739 42.2799 34.9274 42.1334C34.7809 41.9869 34.5822 41.9045 34.375 41.9045C33.7537 41.9037 33.158 41.6565 32.7186 41.2172C32.2793 40.7778 32.0321 40.1821 32.0312 39.5608V37.217H44.5312C45.5669 37.216 46.5599 36.8041 47.2922 36.0718C48.0246 35.3394 48.4365 34.3465 48.4375 33.3108V12.217C48.4365 11.1814 48.0246 10.1884 47.2922 9.45605C46.5599 8.72371 45.5669 8.31183 44.5312 8.31079ZM24.998 41.9045C25.5071 41.2293 25.7821 40.4064 25.7812 39.5608V37.217H30.4688V39.5608C30.4679 40.4064 30.7429 41.2293 31.252 41.9045H24.998Z" fill="#E30D42"/>
<path d="M28.125 34.8733C28.5565 34.8733 28.9062 34.5235 28.9062 34.092C28.9062 33.6606 28.5565 33.3108 28.125 33.3108C27.6935 33.3108 27.3438 33.6606 27.3438 34.092C27.3438 34.5235 27.6935 34.8733 28.125 34.8733Z" fill="#E30D42"/>
<path d="M35.1455 20.6819L34.7187 18.1223C34.5858 17.3415 34.2198 16.6192 33.6689 16.0502C33.118 15.4811 32.4079 15.092 31.6318 14.9338L29.8408 14.5764C29.7275 14.5536 29.6105 14.5562 29.4983 14.5841C29.3861 14.612 29.2815 14.6645 29.1921 14.7378C29.1026 14.811 29.0306 14.9032 28.9812 15.0077C28.9317 15.1123 28.9061 15.2264 28.9062 15.342C28.9062 15.5492 28.8239 15.748 28.6774 15.8945C28.5309 16.041 28.3322 16.1233 28.125 16.1233C27.9178 16.1233 27.7191 16.041 27.5725 15.8945C27.426 15.748 27.3437 15.5492 27.3437 15.342C27.3438 15.2264 27.3182 15.1123 27.2688 15.0077C27.2193 14.9032 27.1473 14.811 27.0579 14.7378C26.9684 14.6645 26.8638 14.612 26.7516 14.5841C26.6395 14.5562 26.5225 14.5536 26.4091 14.5764L24.6181 14.9338C23.8421 15.092 23.132 15.4811 22.581 16.0502C22.0301 16.6192 21.6642 17.3415 21.5312 18.1223L21.1045 20.6819C21.0859 20.7938 21.0918 20.9084 21.122 21.0178C21.1521 21.1272 21.2057 21.2287 21.279 21.3153C21.3523 21.4019 21.4436 21.4716 21.5465 21.5193C21.6494 21.5671 21.7615 21.5919 21.875 21.592H24.2187V23.9358C24.2187 24.0384 24.2389 24.14 24.2781 24.2348C24.3174 24.3296 24.3749 24.4157 24.4475 24.4883C24.52 24.5608 24.6062 24.6184 24.701 24.6576C24.7958 24.6969 24.8974 24.7171 25 24.717H31.25C31.3526 24.7171 31.4542 24.6969 31.549 24.6576C31.6438 24.6184 31.7299 24.5608 31.8024 24.4883C31.875 24.4157 31.9325 24.3296 31.9718 24.2348C32.011 24.14 32.0312 24.0384 32.0312 23.9358V21.592H34.375C34.4884 21.5919 34.6005 21.5671 34.7034 21.5193C34.8063 21.4715 34.8976 21.4019 34.9709 21.3153C35.0442 21.2287 35.0978 21.1272 35.128 21.0178C35.1581 20.9084 35.1641 20.7938 35.1455 20.6819ZM32.0312 20.0295V19.2483H30.4687V23.1545H25.7812V19.2483H24.2187V20.0295H22.7968L23.0722 18.3792C23.1522 17.9107 23.3719 17.4774 23.7025 17.136C24.0331 16.7946 24.4591 16.5611 24.9248 16.4661L25.9677 16.258C26.1475 16.6815 26.4479 17.0426 26.8315 17.2965C27.2151 17.5504 27.665 17.6858 28.125 17.6858C28.585 17.6858 29.0348 17.5504 29.4184 17.2965C29.802 17.0426 30.1024 16.6815 30.2822 16.258L31.3252 16.4661C31.7908 16.5611 32.2168 16.7946 32.5474 17.136C32.878 17.4774 33.0977 17.9107 33.1777 18.3792L33.4531 20.0295H32.0312Z" fill="#E30D42"/>
<path d="M37.5 23.1546C37.3974 23.1546 37.2958 23.1344 37.201 23.0951C37.1062 23.0559 37.0201 22.9983 36.9476 22.9258C36.875 22.8532 36.8175 22.7671 36.7782 22.6723C36.7389 22.5775 36.7187 22.4759 36.7188 22.3733V17.6858C36.7187 17.5476 36.7554 17.4118 36.8251 17.2923C36.8947 17.1729 36.9948 17.0741 37.1151 17.006C37.2354 16.9378 37.3716 16.9029 37.5099 16.9046C37.6481 16.9063 37.7834 16.9447 37.902 17.0159L41.8082 19.3596C41.9239 19.429 42.0196 19.5272 42.0861 19.6446C42.1526 19.762 42.1875 19.8947 42.1875 20.0296C42.1875 20.1645 42.1526 20.2971 42.0861 20.4145C42.0196 20.5319 41.9239 20.6301 41.8082 20.6995L37.902 23.0433C37.7805 23.1161 37.6416 23.1546 37.5 23.1546ZM38.2812 19.0657V20.9935L39.8878 20.0296L38.2812 19.0657Z" fill="#E30D42"/>
<path d="M18.75 23.1546C18.6084 23.1546 18.4695 23.1161 18.348 23.0433L14.4418 20.6995C14.3261 20.6301 14.2304 20.5319 14.1639 20.4145C14.0974 20.2971 14.0625 20.1645 14.0625 20.0296C14.0625 19.8947 14.0974 19.762 14.1639 19.6446C14.2304 19.5272 14.3261 19.429 14.4418 19.3596L18.348 17.0159C18.4666 16.9447 18.6019 16.9063 18.7401 16.9046C18.8784 16.9029 19.0146 16.9378 19.1349 17.006C19.2552 17.0741 19.3553 17.1729 19.4249 17.2923C19.4946 17.4118 19.5312 17.5476 19.5312 17.6858V22.3733C19.5313 22.4759 19.511 22.5775 19.4718 22.6723C19.4325 22.7671 19.375 22.8532 19.3024 22.9258C19.2299 22.9983 19.1438 23.0559 19.049 23.0951C18.9542 23.1344 18.8526 23.1546 18.75 23.1546ZM16.3622 20.0296L17.9687 20.9935V19.0657L16.3622 20.0296Z" fill="#E30D42"/>
<path d="M26.5625 30.1858H21.875C21.6678 30.1858 21.4691 30.1035 21.3226 29.957C21.1761 29.8105 21.0938 29.6117 21.0938 29.4045V26.2795C21.0938 26.0723 21.1761 25.8736 21.3226 25.7271C21.4691 25.5806 21.6678 25.4983 21.875 25.4983H26.5625C26.7697 25.4983 26.9684 25.5806 27.1149 25.7271C27.2614 25.8736 27.3437 26.0723 27.3438 26.2795V29.4045C27.3437 29.6117 27.2614 29.8105 27.1149 29.957C26.9684 30.1035 26.7697 30.1858 26.5625 30.1858ZM22.6562 28.6233H25.7812V27.0608H22.6562V28.6233Z" fill="#E30D42"/>
<path d="M34.375 30.1858H29.6875C29.4803 30.1858 29.2816 30.1035 29.1351 29.957C28.9886 29.8105 28.9063 29.6117 28.9062 29.4045V26.2795C28.9063 26.0723 28.9886 25.8736 29.1351 25.7271C29.2816 25.5806 29.4803 25.4983 29.6875 25.4983H34.375C34.5822 25.4983 34.7809 25.5806 34.9274 25.7271C35.0739 25.8736 35.1562 26.0723 35.1562 26.2795V29.4045C35.1562 29.6117 35.0739 29.8105 34.9274 29.957C34.7809 30.1035 34.5822 30.1858 34.375 30.1858ZM30.4688 28.6233H33.5938V27.0608H30.4688V28.6233Z" fill="#E30D42"/>
<path d="M19.5312 26.2795H16.4062V25.4983C16.4064 24.8634 16.2132 24.2436 15.8523 23.7213C15.4914 23.199 14.9799 22.7991 14.386 22.5748C13.7921 22.3505 13.1439 22.3124 12.5278 22.4657C11.9118 22.619 11.357 22.9564 10.9375 23.4329C10.518 22.9564 9.96322 22.619 9.34715 22.4657C8.73108 22.3124 8.08292 22.3505 7.48901 22.5748C6.8951 22.7991 6.38363 23.199 6.02271 23.7213C5.66179 24.2436 5.46856 24.8634 5.46875 25.4983V26.2795H2.34375C2.24115 26.2795 2.13954 26.2997 2.04475 26.339C1.94995 26.3782 1.86381 26.4358 1.79126 26.5083C1.71871 26.5809 1.66117 26.667 1.62191 26.7618C1.58266 26.8566 1.56247 26.9582 1.5625 27.0608V42.6858C1.56247 42.7884 1.58266 42.89 1.62191 42.9848C1.66117 43.0796 1.71871 43.1657 1.79126 43.2383C1.86381 43.3108 1.94995 43.3684 2.04475 43.4076C2.13954 43.4469 2.24115 43.4671 2.34375 43.467H19.5312C19.6339 43.4671 19.7355 43.4469 19.8303 43.4076C19.9251 43.3684 20.0112 43.3108 20.0837 43.2383C20.1563 43.1657 20.2138 43.0796 20.2531 42.9848C20.2923 42.89 20.3125 42.7884 20.3125 42.6858V27.0608C20.3125 26.9582 20.2923 26.8566 20.2531 26.7618C20.2138 26.667 20.1563 26.5809 20.0837 26.5083C20.0112 26.4358 19.9251 26.3782 19.8303 26.339C19.7355 26.2997 19.6339 26.2795 19.5312 26.2795ZM11.7188 25.4983C11.7188 25.0839 11.8834 24.6865 12.1764 24.3934C12.4694 24.1004 12.8668 23.9358 13.2812 23.9358C13.6957 23.9358 14.0931 24.1004 14.3861 24.3934C14.6791 24.6865 14.8438 25.0839 14.8438 25.4983V26.2795H11.7188V25.4983ZM7.03125 25.4983C7.03125 25.0839 7.19587 24.6865 7.4889 24.3934C7.78192 24.1004 8.17935 23.9358 8.59375 23.9358C9.00815 23.9358 9.40558 24.1004 9.6986 24.3934C9.99163 24.6865 10.1562 25.0839 10.1562 25.4983V26.2795H7.03125V25.4983ZM3.125 27.842H5.46875V29.4045H7.03125V27.842H10.1562V29.4045H11.7188V27.842H14.0625V41.9045H3.125V27.842ZM18.75 41.9045H15.625V27.842H18.75V41.9045Z" fill="#E30D42"/>
</svg>
